<?xml version="1.0" encoding="utf-8"?>
<!-- Generator: Adobe Illustrator 23.0.3, SVG Export Plug-In . SVG Version: 6.00 Build 0)  -->
<svg version="1.1" id="Слой_1" xmlns="http://www.w3.org/2000/svg" xmlns:xlink="http://www.w3.org/1999/xlink" x="0px" y="0px"
	 viewBox="0 0 1440 861" style="enable-background:new 0 0 1440 861;" xml:space="preserve">
<style type="text/css">
	.st0{fill:#FFFFFF;}
	.st1{fill:#4589FF;}
</style>
<image style="display:none;overflow:visible;enable-background:new    ;" width="1440" height="861" xlink:href="five.png" >
</image>
<path class="st0" d="M582.4,753.1L793,234.7H596.8V349H482.5V124.9h444.6v117L724.6,753.1H582.4z M1410,753.1H965.4V629.8
	l193.5-165.6c17.4-15,32.1-28.5,44.1-40.5c12-12.6,21.6-24.6,28.8-36c7.8-12,13.2-23.7,16.2-35.1c3.6-11.4,5.4-23.7,5.4-36.9v-12.6
	c0-12-2.4-22.5-7.2-31.5s-11.1-16.5-18.9-22.5s-16.8-10.5-27-13.5c-9.6-3-19.5-4.5-29.7-4.5c-15,0-28.2,2.4-39.6,7.2
	c-10.8,4.8-20.4,11.4-28.8,19.8c-7.8,7.8-14.4,17.1-19.8,27.9c-5.4,10.2-9.6,21.3-12.6,33.3l-117.9-45c7.2-21.6,17.1-42,29.7-61.2
	c12.6-19.8,28.2-36.9,46.8-51.3c19.2-15,41.7-26.7,67.5-35.1c25.8-8.4,54.9-12.6,87.3-12.6c34.2,0,64.5,4.8,90.9,14.4
	c26.4,9.6,48.6,22.8,66.6,39.6c18.6,16.8,32.7,36.9,42.3,60.3c9.6,22.8,14.4,47.7,14.4,74.7s-4.5,51.6-13.5,73.8s-21.3,43.2-36.9,63
	c-15,19.2-32.7,37.5-53.1,54.9s-41.7,35.1-63.9,53.1l-117,91.8h297L1410,753.1L1410,753.1z"/>
<path class="st1" d="M1152.7,672.6h-0.3c-0.8,1.2-1.9,2.3-3.3,3c-1.4,0.7-3.2,1.1-5.4,1.1c-7,0-10.5-3.7-10.5-11.1v-11.3h7.9v10.9
	c0,1.7,0.4,3,1.3,3.8c0.9,0.8,2.3,1.2,4.2,1.2c1.9,0,3.5-0.3,4.5-0.9s1.6-1.5,1.6-2.5v-12.4h7.9v32.4h-7.9V672.6z M1165.8,654.3h7.8
	v14.4l-0.7,7.6h0.2l3.8-6.9l10.1-15.1h7.1v32.4h-7.8v-14.4l0.7-7.6h-0.2l-3.8,6.9l-10.1,15.1h-7.1V654.3z M1212.1,687.4
	c-2.4,0-4.5-0.4-6.4-1.2c-1.9-0.8-3.4-1.9-4.7-3.4c-1.2-1.5-2.2-3.3-2.9-5.3c-0.7-2.1-1-4.5-1-7.1s0.3-4.9,1-7
	c0.7-2.1,1.6-3.8,2.9-5.3c1.3-1.5,2.9-2.6,4.7-3.4s4-1.2,6.4-1.2c3.3,0,6,0.7,8.1,2.2c2.1,1.4,3.7,3.5,4.7,6l-6.5,2.9
	c-0.4-1.4-1.1-2.5-2.1-3.3c-1-0.9-2.4-1.4-4.1-1.4c-2.2,0-3.9,0.7-5,2.1c-1.1,1.4-1.6,3.2-1.6,5.5v5.9c0,2.3,0.5,4.1,1.6,5.5
	c1.1,1.4,2.8,2,5,2c1.9,0,3.4-0.5,4.4-1.4c1-1,1.8-2.2,2.4-3.7l6.1,2.9c-1.1,2.9-2.7,5-4.9,6.4
	C1217.9,686.7,1215.3,687.4,1212.1,687.4z M1223.3,680.3h4.2c0.4-0.6,0.8-1.4,1.1-2.2c0.4-0.9,0.7-1.9,0.9-3.2
	c0.2-1.3,0.4-2.8,0.6-4.5c0.2-1.8,0.2-3.8,0.2-6.2v-9.9h24.6v32.4h-7.9v-26h-9.1v4c0,2.9-0.1,5.5-0.3,7.7c-0.2,2.1-0.5,4-0.9,5.6
	c-0.4,1.6-0.8,2.9-1.4,4c-0.5,1-1.1,1.9-1.8,2.5c-1,1-2,1.6-3.2,2c-1.2,0.4-2.7,0.6-4.4,0.6h-2.5V680.3z M1283.9,686.6
	c-1.7,0-3.1-0.5-4.2-1.5c-1-1-1.6-2.4-1.9-4.1h-0.4c-0.5,2.1-1.6,3.7-3.3,4.8c-1.7,1-3.7,1.5-6.1,1.5c-3.3,0-5.8-0.9-7.6-2.6
	c-1.8-1.7-2.7-4.1-2.7-6.9c0-3.3,1.2-5.8,3.6-7.4c2.4-1.7,5.8-2.5,10.2-2.5h5.5v-2.4c0-1.8-0.5-3.2-1.4-4.2c-1-1-2.5-1.5-4.6-1.5
	c-1.9,0-3.4,0.4-4.5,1.2c-1.1,0.8-2.1,1.7-2.9,2.9l-4.7-4.2c1.2-1.9,2.8-3.3,4.8-4.5c2-1.2,4.6-1.7,7.9-1.7c4.4,0,7.7,1,10,3
	c2.3,2,3.4,4.8,3.4,8.6v15.3h3.2v6.3H1283.9z M1270.7,681.6c1.8,0,3.3-0.4,4.5-1.2c1.2-0.8,1.9-1.9,1.9-3.5v-4.3h-5.1
	c-4.1,0-6.2,1.3-6.2,4v1.1c0,1.3,0.4,2.3,1.2,3C1267.9,681.3,1269.2,681.6,1270.7,681.6z M1297.3,680.3h4.1c1.2-1.7,2.1-3.9,2.7-6.6
	c0.6-2.6,0.9-6.1,0.9-10.2v-9.2h24.9v26h5.5v15h-7.2v-8.7h-23.6v8.7h-7.2V680.3z M1321.8,680.3v-19.7h-9.4v3.3
	c0,4.4-0.3,7.9-0.8,10.5c-0.5,2.6-1.2,4.5-2,5.9H1321.8z M1333.7,680.3h4.2c0.4-0.6,0.8-1.4,1.1-2.2c0.4-0.9,0.7-1.9,0.9-3.2
	c0.2-1.3,0.4-2.8,0.6-4.5c0.2-1.8,0.2-3.8,0.2-6.2v-9.9h24.6v32.4h-7.9v-26h-9.1v4c0,2.9-0.1,5.5-0.3,7.7c-0.2,2.1-0.5,4-0.9,5.6
	c-0.4,1.6-0.8,2.9-1.4,4c-0.5,1-1.1,1.9-1.8,2.5c-1,1-2,1.6-3.2,2c-1.2,0.4-2.7,0.6-4.4,0.6h-2.5V680.3z M1368.5,680.3h3.5l1.7-3.4
	c0.8-1.7,2-2.6,3.5-2.8v-0.3c-2.5-0.3-4.5-1.2-6-2.7c-1.4-1.5-2.2-3.6-2.2-6.3c0-1.7,0.3-3.1,0.8-4.4c0.6-1.3,1.3-2.4,2.3-3.3
	c1-0.9,2.1-1.6,3.5-2c1.4-0.5,2.8-0.7,4.4-0.7h16.7v32.4h-7.9V675h-6l-3.4,7c-0.8,1.7-1.8,2.9-2.9,3.6c-1,0.7-2.3,1-3.9,1h-4.1
	V680.3z M1388.8,669.1v-9h-7.1c-1.4,0-2.5,0.3-3.3,1c-0.8,0.7-1.2,1.7-1.2,3v1.3c0,1.2,0.4,2.1,1.2,2.8c0.8,0.6,1.9,0.9,3.3,0.9
	H1388.8z M1155.3,737.4c-2.3,0-4.4-0.4-6.3-1.2c-1.8-0.8-3.4-1.9-4.7-3.4c-1.3-1.5-2.3-3.3-3-5.3c-0.7-2.1-1.1-4.5-1.1-7.1
	s0.4-4.9,1.1-7c0.7-2.1,1.7-3.8,3-5.3c1.3-1.5,2.9-2.6,4.7-3.4c1.9-0.8,3.9-1.2,6.3-1.2c2.3,0,4.4,0.4,6.3,1.2
	c1.9,0.8,3.4,1.9,4.7,3.4c1.3,1.4,2.3,3.2,3,5.3c0.7,2.1,1.1,4.4,1.1,7s-0.4,5-1.1,7.1c-0.7,2.1-1.7,3.8-3,5.3
	c-1.3,1.5-2.9,2.6-4.7,3.4C1159.7,737,1157.6,737.4,1155.3,737.4z M1155.3,731c2.1,0,3.8-0.6,5-1.9c1.2-1.3,1.8-3.2,1.8-5.6v-6
	c0-2.4-0.6-4.3-1.8-5.6c-1.2-1.3-2.9-1.9-5-1.9c-2.1,0-3.7,0.6-4.9,1.9c-1.2,1.3-1.8,3.1-1.8,5.6v6c0,2.5,0.6,4.4,1.8,5.6
	C1151.6,730.3,1153.2,731,1155.3,731z M1173.4,704.3h27.4v32.4h-7.9v-26h-11.5v26h-7.9V704.3z M1219,737.4c-2.4,0-4.5-0.4-6.4-1.2
	c-1.9-0.8-3.5-2-4.8-3.4c-1.3-1.5-2.3-3.3-3-5.3c-0.7-2.1-1.1-4.5-1.1-7.1c0-2.6,0.3-4.9,1-6.9c0.7-2.1,1.7-3.8,3-5.3
	c1.3-1.5,2.9-2.6,4.7-3.4c1.9-0.8,4-1.2,6.3-1.2c2.5,0,4.7,0.4,6.6,1.3s3.4,2,4.6,3.5s2.1,3.2,2.7,5.2c0.6,1.9,0.9,4,0.9,6.3v2.6
	H1212v0.8c0,2.4,0.7,4.3,2,5.7c1.3,1.4,3.3,2.1,5.9,2.1c2,0,3.6-0.4,4.8-1.2c1.3-0.8,2.4-1.9,3.4-3.2l4.3,4.8
	c-1.3,1.9-3.1,3.3-5.5,4.4C1224.6,736.9,1222,737.4,1219,737.4z M1218.9,709.5c-2.1,0-3.8,0.7-5,2.1s-1.9,3.2-1.9,5.5v0.5h13.3V717
	c0-2.2-0.6-4-1.7-5.4C1222.5,710.2,1220.9,709.5,1218.9,709.5z M1236.4,704.3h7.9v5.3h0.2c0.6-1.9,1.7-3.3,3.3-4.4
	c1.6-1.1,3.5-1.7,5.6-1.7c4.1,0,7.3,1.5,9.4,4.4c2.2,2.9,3.3,7,3.3,12.5c0,5.5-1.1,9.7-3.3,12.6c-2.1,2.9-5.3,4.4-9.4,4.4
	c-2.1,0-4-0.6-5.6-1.7c-1.6-1.1-2.7-2.6-3.3-4.5h-0.2V749h-7.9V704.3z M1251,730.8c2.1,0,3.7-0.7,5-2c1.3-1.4,1.9-3.2,1.9-5.5v-5.6
	c0-2.3-0.6-4.2-1.9-5.5c-1.3-1.4-3-2.1-5-2.1c-1.9,0-3.5,0.5-4.8,1.4c-1.2,1-1.9,2.2-1.9,3.8v10.3c0,1.7,0.6,3,1.9,3.9
	C1247.5,730.3,1249.1,730.8,1251,730.8z M1293.4,736.6c-1.7,0-3.1-0.5-4.2-1.5c-1-1-1.6-2.4-1.9-4.1h-0.4c-0.5,2.1-1.6,3.7-3.3,4.8
	c-1.7,1-3.7,1.5-6.1,1.5c-3.3,0-5.8-0.9-7.6-2.6c-1.8-1.7-2.7-4.1-2.7-6.9c0-3.3,1.2-5.8,3.6-7.4c2.4-1.7,5.8-2.5,10.2-2.5h5.5v-2.4
	c0-1.8-0.5-3.2-1.4-4.2c-1-1-2.5-1.5-4.6-1.5c-1.9,0-3.4,0.4-4.5,1.2c-1.1,0.8-2.1,1.7-2.9,2.9l-4.7-4.2c1.2-1.9,2.8-3.3,4.8-4.5
	c2-1.2,4.6-1.7,7.9-1.7c4.4,0,7.7,1,10,3c2.3,2,3.4,4.8,3.4,8.6v15.3h3.2v6.3H1293.4z M1280.3,731.6c1.8,0,3.3-0.4,4.5-1.2
	c1.2-0.8,1.9-1.9,1.9-3.5v-4.3h-5.1c-4.1,0-6.2,1.3-6.2,4v1.1c0,1.3,0.4,2.3,1.2,3C1277.5,731.3,1278.7,731.6,1280.3,731.6z
	 M1325.9,736.6h-25.7v-32.4h7.9v26h11.5v-26h7.9v26h5.5v15h-7.2V736.6z M1334.8,704.3h7.8v14.4l-0.7,7.6h0.2l3.8-6.9l10.1-15.1h7.1
	v32.4h-7.8v-14.4l0.7-7.6h-0.2l-3.8,6.9l-10.1,15.1h-7.1V704.3z M1368.3,704.3h7.8v14.4l-0.7,7.6h0.2l3.8-6.9l10.1-15.1h7.1v32.4
	h-7.8v-14.4l0.7-7.6h-0.2l-3.8,6.9l-10.1,15.1h-7.1V704.3z M1382.5,700.4c-2.6,0-4.7-0.5-6.3-1.6c-1.6-1.1-2.8-2.7-3.7-4.7l-1.3-2.9
	l6.3-2.5l2,6c0.3,0.1,0.8,0.2,1.3,0.3c0.5,0,1.1,0.1,1.6,0.1s1.1,0,1.6-0.1c0.5-0.1,1-0.2,1.3-0.3l2-6l6.3,2.5l-1.3,2.9
	c-0.9,2-2.1,3.6-3.7,4.7C1387.2,699.9,1385.1,700.4,1382.5,700.4z"/>
</svg>
