<?xml version="1.0" encoding="utf-8"?>
<!-- Generator: Adobe Illustrator 23.0.3, SVG Export Plug-In . SVG Version: 6.00 Build 0)  -->
<svg version="1.1" id="Слой_1" xmlns="http://www.w3.org/2000/svg" xmlns:xlink="http://www.w3.org/1999/xlink" x="0px" y="0px"
	 viewBox="0 0 1524.8 592" style="enable-background:new 0 0 1524.8 592;" xml:space="preserve">
<style type="text/css">
	.st0{fill:#4589FF;}
	.st1{fill:#FFFFFF;}
</style>
<rect class="st0" width="1524.8" height="592"/>
<path class="st1" d="M142.8,140.5h4.4c0.4-0.6,0.8-1.4,1.2-2.3c0.4-0.9,0.7-2,1-3.3s0.4-2.9,0.6-4.7c0.2-1.8,0.3-4,0.3-6.4v-10.2
	h25.4V147h-8.2v-26.9h-9.4v4.1c0,3-0.1,5.7-0.3,7.9s-0.5,4.1-1,5.8c-0.4,1.6-0.9,3-1.5,4.1s-1.2,1.9-1.9,2.6c-1,1-2.1,1.7-3.3,2
	c-1.2,0.4-2.8,0.6-4.5,0.6H143v-6.7L142.8,140.5L142.8,140.5z M194.3,147.8c-2.5,0-4.7-0.4-6.7-1.2c-1.9-0.9-3.6-2-4.9-3.5
	c-1.3-1.5-2.3-3.4-3.1-5.5c-0.7-2.2-1.1-4.6-1.1-7.3c0-2.6,0.3-5,1-7.2c0.7-2.1,1.7-3.9,3.1-5.4c1.3-1.5,2.9-2.7,4.9-3.5
	c1.9-0.9,4.1-1.3,6.5-1.3c2.6,0,4.9,0.4,6.8,1.3s3.5,2.1,4.7,3.6s2.2,3.3,2.8,5.4c0.6,2,1,4.2,1,6.5v2.7H187v0.8
	c0,2.4,0.7,4.4,2,5.9c1.4,1.5,3.4,2.2,6.1,2.2c2,0,3.7-0.4,5-1.3c1.3-0.9,2.5-1.9,3.5-3.3l4.4,4.9c-1.4,1.9-3.2,3.4-5.6,4.5
	C200.1,147.2,197.4,147.8,194.3,147.8z M194.1,119c-2.2,0-3.9,0.7-5.2,2.2s-1.9,3.3-1.9,5.6v0.5h13.7v-0.6c0-2.3-0.6-4.2-1.7-5.6
	C197.9,119.7,196.3,119,194.1,119z M212.3,113.6h8.2v13.1h12.9v-13.1h8.2V147h-8.2v-13.8h-12.9V147h-8.2V113.6z M253.6,120.1h-10.2
	v-6.5H272v6.5h-10.2V147h-8.2L253.6,120.1L253.6,120.1z M273.8,113.6h8.2v10.6h8.3c1.6,0,3.1,0.3,4.5,0.8s2.6,1.3,3.6,2.2
	s1.8,2.1,2.4,3.5s0.9,3,0.9,4.9c0,1.8-0.3,3.5-0.8,4.9c-0.6,1.4-1.3,2.6-2.4,3.6c-1,0.9-2.2,1.7-3.6,2.2s-2.9,0.8-4.5,0.8h-16.5
	v-33.5C273.9,113.6,273.8,113.6,273.8,113.6z M288.7,140.9c1.5,0,2.6-0.3,3.4-1c0.9-0.7,1.3-1.7,1.3-3.1v-2.5c0-1.4-0.4-2.4-1.3-3.1
	c-0.8-0.7-1.9-1-3.4-1H282v10.7L288.7,140.9L288.7,140.9z M306.4,113.6h8.2V147h-8.2V113.6z M344,147.8c-2.5,0-4.7-0.4-6.6-1.2
	s-3.5-2-4.9-3.5c-1.3-1.5-2.3-3.4-2.9-5.5c-0.7-2.2-1-4.6-1-7.3s0.3-5.1,1-7.2s1.7-3.9,2.9-5.4c1.3-1.5,2.9-2.7,4.9-3.5
	c1.9-0.8,4.1-1.2,6.6-1.2c3.4,0,6.1,0.7,8.3,2.2c2.2,1.5,3.8,3.6,4.8,6.2l-6.7,3c-0.4-1.4-1.1-2.6-2.2-3.5c-1-0.9-2.4-1.4-4.2-1.4
	c-2.3,0-4,0.7-5.2,2.2c-1.1,1.5-1.7,3.3-1.7,5.7v6.1c0,2.3,0.6,4.2,1.7,5.7c1.2,1.4,2.9,2.1,5.2,2.1c2,0,3.5-0.5,4.5-1.5
	c1.1-1,1.9-2.3,2.5-3.8l6.3,3c-1.1,2.9-2.8,5.2-5.1,6.7C350,147,347.3,147.8,344,147.8z M366.6,120.1h-10.2v-6.5H385v6.5h-10.2V147
	h-8.2L366.6,120.1L366.6,120.1z M411,147c-1.8,0-3.2-0.5-4.3-1.5c-1-1.1-1.7-2.5-1.9-4.2h-0.4c-0.6,2.2-1.7,3.8-3.4,4.9
	c-1.7,1.1-3.8,1.6-6.3,1.6c-3.4,0-6-0.9-7.9-2.7c-1.8-1.8-2.8-4.2-2.8-7.2c0-3.5,1.2-6,3.7-7.7s6-2.6,10.6-2.6h5.7v-2.4
	c0-1.9-0.5-3.3-1.5-4.4c-1-1-2.6-1.5-4.7-1.5c-1.9,0-3.5,0.4-4.7,1.3c-1.2,0.8-2.1,1.8-2.9,2.9l-4.9-4.4c1.2-1.9,2.9-3.5,4.9-4.6
	c2-1.2,4.8-1.8,8.1-1.8c4.5,0,8,1,10.3,3.1c2.3,2,3.5,5,3.5,8.8v15.7h3.3v6.5H411V147z M397.5,141.8c1.8,0,3.4-0.4,4.7-1.2
	c1.3-0.8,1.9-2,1.9-3.6v-4.4h-5.2c-4.3,0-6.4,1.4-6.4,4.1v1.1c0,1.4,0.4,2.4,1.3,3.1C394.6,141.5,395.8,141.8,397.5,141.8z
	 M414.3,140.5h4.4c0.4-0.6,0.8-1.4,1.2-2.3c0.4-0.9,0.7-2,1-3.3s0.4-2.9,0.6-4.7s0.3-4,0.3-6.4v-10.2H447V147h-8.2v-26.9h-9.4v4.1
	c0,3-0.1,5.7-0.3,7.9c-0.2,2.2-0.5,4.1-1,5.8c-0.4,1.6-0.9,3-1.5,4.1s-1.2,1.9-1.9,2.6c-1,1-2.1,1.7-3.3,2c-1.2,0.4-2.8,0.6-4.5,0.6
	h-2.6L414.3,140.5L414.3,140.5z M452.3,113.6h8v14.9l-0.7,7.8h0.3l3.9-7.1l10.4-15.6h7.4V147h-8v-14.9l0.7-7.9H474l-3.9,7.2
	L459.6,147h-7.4L452.3,113.6L452.3,113.6z M146.7,179.6h18.4c3,0,5.3,0.8,6.8,2.3c1.6,1.5,2.4,3.5,2.4,6.1c0,4.2-2.3,6.7-6.9,7.3
	v0.3c2.7,0.3,4.8,1,6.1,2.4s2,3.1,2,5.3c0,2.9-0.9,5.3-2.7,7.1s-4.3,2.7-7.5,2.7h-18.7L146.7,179.6L146.7,179.6z M163.8,207
	c1.1,0,2-0.3,2.6-0.8c0.6-0.6,0.9-1.4,0.9-2.5v-1.8c0-1.1-0.3-1.9-0.9-2.4c-0.6-0.6-1.5-0.9-2.6-0.9h-9v8.4H163.8z M162.8,193.4
	c1,0,1.7-0.3,2.3-0.8c0.6-0.6,0.9-1.3,0.9-2.3v-1.6c0-1-0.3-1.7-0.9-2.3c-0.6-0.6-1.3-0.8-2.3-0.8h-8.1v7.9L162.8,193.4L162.8,193.4
	z M179.1,179.6h8.2v13.1h5.4l5.1-8.8c0.9-1.6,1.9-2.8,2.9-3.4c1-0.6,2.3-1,3.9-1h3.6v6.5h-3.6l-3.5,6.1c-0.6,1.1-1.2,1.9-1.7,2.4
	c-0.6,0.4-1.2,0.7-2,1v0.3c0.8,0.2,1.4,0.5,2,0.9s1.3,1.2,1.9,2.2l4.2,7.4h3.5v6.5h-4.2c-1.6,0-3-0.3-4-1s-2-1.9-2.9-3.5l-5.1-9.3
	h-5.4v14h-8.2L179.1,179.6L179.1,179.6z M208.1,206.5h4.4c0.4-0.6,0.8-1.4,1.2-2.3c0.4-0.9,0.7-2,1-3.3s0.4-2.9,0.6-4.7
	c0.2-1.8,0.3-4,0.3-6.4v-10.2H241V213h-8.2v-26.9h-9.4v4.1c0,3-0.1,5.7-0.3,7.9s-0.5,4.1-1,5.8c-0.4,1.6-0.9,3-1.5,4.1
	s-1.2,1.9-1.9,2.6c-1,1-2.1,1.7-3.3,2c-1.2,0.4-2.8,0.6-4.5,0.6h-2.6v-6.7L208.1,206.5L208.1,206.5z M270.6,213
	c-1.8,0-3.2-0.5-4.3-1.5c-1-1.1-1.7-2.5-1.9-4.2H264c-0.6,2.2-1.7,3.8-3.4,4.9c-1.7,1.1-3.8,1.6-6.3,1.6c-3.4,0-6-0.9-7.9-2.7
	c-1.8-1.8-2.8-4.2-2.8-7.2c0-3.5,1.2-6,3.7-7.7s6-2.6,10.6-2.6h5.7v-2.4c0-1.9-0.5-3.3-1.5-4.4c-1-1-2.6-1.5-4.7-1.5
	c-1.9,0-3.5,0.4-4.7,1.3c-1.2,0.8-2.1,1.8-2.9,2.9l-4.9-4.4c1.2-1.9,2.9-3.5,4.9-4.6c2-1.2,4.8-1.8,8.1-1.8c4.5,0,8,1,10.3,3.1
	c2.3,2,3.5,5,3.5,8.8v15.7h3.3v6.5h-4.4L270.6,213L270.6,213z M257.1,207.8c1.8,0,3.4-0.4,4.7-1.2c1.3-0.8,1.9-2,1.9-3.6v-4.4h-5.2
	c-4.3,0-6.4,1.4-6.4,4.1v1.1c0,1.4,0.4,2.4,1.3,3.1C254.2,207.5,255.5,207.8,257.1,207.8z M274.1,206.5h4.2c1.2-1.8,2.2-4.1,2.8-6.8
	c0.6-2.7,0.9-6.3,0.9-10.6v-9.5h25.7v26.9h5.7V222H306v-9h-24.4v9h-7.4v-15.5H274.1z M299.5,206.5v-20.4h-9.7v3.4
	c0,4.6-0.3,8.2-0.8,10.9c-0.6,2.6-1.2,4.7-2,6.1H299.5z M328.3,213.8c-2.4,0-4.5-0.4-6.5-1.2c-1.9-0.8-3.5-2-4.9-3.5
	c-1.3-1.5-2.3-3.4-3.1-5.5c-0.7-2.2-1.1-4.6-1.1-7.3s0.4-5.1,1.1-7.2s1.7-3.9,3.1-5.4s3-2.7,4.9-3.5s4.1-1.2,6.5-1.2
	s4.5,0.4,6.5,1.2c1.9,0.8,3.5,2,4.9,3.5s2.4,3.3,3.1,5.4c0.7,2.1,1.1,4.5,1.1,7.2s-0.4,5.1-1.1,7.3c-0.7,2.1-1.8,4-3.1,5.5
	c-1.3,1.5-2.9,2.7-4.9,3.5C332.9,213.4,330.7,213.8,328.3,213.8z M328.3,207.2c2.2,0,3.9-0.7,5.1-2s1.9-3.3,1.9-5.8v-6.2
	c0-2.5-0.6-4.4-1.9-5.8c-1.2-1.3-2.9-2-5.1-2c-2.1,0-3.8,0.7-5.1,2c-1.2,1.3-1.9,3.2-1.9,5.8v6.2c0,2.6,0.6,4.5,1.9,5.8
	S326.2,207.2,328.3,207.2z M347,179.6h9.4l8.8,14.7h0.3l8.7-14.7h9.2V213h-7.9v-23.3h-0.3l-2.3,4.4l-7.7,12.7l-7.7-12.7l-2.3-4.4
	h-0.3V213H347V179.6z M147.2,234.3h25.7v7.5h-17.2V279h-8.4v-44.7H147.2z M182.1,279.8c-2.4,0-4.5-0.4-6.5-1.2
	c-1.9-0.8-3.5-2-4.9-3.5c-1.3-1.5-2.3-3.4-3.1-5.5c-0.7-2.2-1.1-4.6-1.1-7.3c0-2.7,0.4-5.1,1.1-7.2c0.7-2.1,1.7-3.9,3.1-5.4
	c1.4-1.5,3-2.7,4.9-3.5s4.1-1.2,6.5-1.2s4.5,0.4,6.5,1.2s3.5,2,4.9,3.5s2.4,3.3,3.1,5.4c0.7,2.1,1.1,4.5,1.1,7.2s-0.4,5.1-1.1,7.3
	c-0.7,2.1-1.8,4-3.1,5.5s-2.9,2.7-4.9,3.5S184.5,279.8,182.1,279.8z M182.1,273.2c2.2,0,3.9-0.7,5.1-2c1.2-1.3,1.9-3.3,1.9-5.8v-6.2
	c0-2.5-0.6-4.4-1.9-5.8s-2.9-2-5.1-2c-2.1,0-3.8,0.7-5.1,2s-1.9,3.2-1.9,5.8v6.2c0,2.6,0.6,4.5,1.9,5.8
	C178.3,272.5,179.9,273.2,182.1,273.2z M200.7,245.6h18.4c3,0,5.3,0.8,6.8,2.3c1.6,1.5,2.4,3.5,2.4,6.1c0,4.2-2.3,6.7-6.9,7.3v0.3
	c2.7,0.3,4.8,1,6.1,2.4c1.4,1.3,2,3.1,2,5.3c0,2.9-0.9,5.3-2.7,7.1c-1.8,1.8-4.3,2.7-7.5,2.7h-18.7L200.7,245.6L200.7,245.6z
	 M217.8,273c1.1,0,2-0.3,2.6-0.8c0.6-0.6,0.9-1.4,0.9-2.5v-1.8c0-1.1-0.3-1.9-0.9-2.4c-0.6-0.6-1.5-0.9-2.6-0.9h-9v8.4L217.8,273
	L217.8,273z M216.8,259.4c1,0,1.7-0.3,2.3-0.8c0.6-0.6,0.9-1.3,0.9-2.3v-1.6c0-1-0.3-1.7-0.9-2.3c-0.6-0.6-1.3-0.8-2.3-0.8h-8.1v7.9
	h8.1V259.4z M257.6,279c-1.8,0-3.2-0.5-4.3-1.5c-1-1.1-1.7-2.5-1.9-4.2H251c-0.6,2.2-1.7,3.8-3.4,4.9s-3.8,1.6-6.3,1.6
	c-3.4,0-6-0.9-7.9-2.7c-1.8-1.8-2.8-4.2-2.8-7.2c0-3.5,1.2-6,3.7-7.7s6-2.6,10.6-2.6h5.7v-2.4c0-1.9-0.5-3.3-1.5-4.4
	c-1-1-2.6-1.5-4.7-1.5c-1.9,0-3.5,0.4-4.7,1.3c-1.2,0.8-2.1,1.8-2.9,2.9l-4.9-4.4c1.2-1.9,2.9-3.5,4.9-4.6c2-1.2,4.8-1.8,8.1-1.8
	c4.5,0,8,1,10.3,3.1c2.3,2,3.5,5,3.5,8.8v15.7h3.3v6.5h-4.4V279z M244.1,273.8c1.8,0,3.4-0.4,4.7-1.2c1.3-0.8,1.9-2,1.9-3.6v-4.4
	h-5.2c-4.3,0-6.4,1.4-6.4,4.1v1.1c0,1.4,0.4,2.4,1.3,3.1C241.2,273.5,242.5,273.8,244.1,273.8z M264.7,245.6h8.2v5.5h0.3
	c0.6-1.9,1.7-3.4,3.4-4.5c1.7-1.2,3.6-1.7,5.8-1.7c4.3,0,7.5,1.5,9.7,4.5c2.3,3,3.4,7.3,3.4,12.9s-1.1,10-3.4,13
	c-2.2,3-5.5,4.5-9.7,4.5c-2.2,0-4.2-0.6-5.8-1.7c-1.6-1.2-2.8-2.7-3.4-4.6h-0.3v18.4h-8.2V245.6L264.7,245.6z M279.7,273
	c2.1,0,3.9-0.7,5.2-2.1c1.3-1.4,2-3.3,2-5.7v-5.8c0-2.4-0.7-4.3-2-5.7c-1.3-1.5-3.1-2.2-5.2-2.2c-2,0-3.6,0.5-4.9,1.5
	s-1.9,2.3-1.9,3.9v10.6c0,1.7,0.6,3.1,1.9,4C276.1,272.5,277.7,273,279.7,273z M294.5,272.5h4.2c1.2-1.8,2.2-4.1,2.8-6.8
	c0.6-2.7,0.9-6.3,0.9-10.6v-9.5h25.7v26.9h5.7V288h-7.4v-9H302v9h-7.4v-15.5H294.5z M319.9,272.5v-20.4h-9.7v3.4
	c0,4.6-0.3,8.2-0.8,10.9c-0.6,2.6-1.2,4.7-2,6.1H319.9z M360,279c-1.8,0-3.2-0.5-4.3-1.5c-1-1.1-1.7-2.5-1.9-4.2h-0.4
	c-0.6,2.2-1.7,3.8-3.4,4.9c-1.7,1.1-3.8,1.6-6.3,1.6c-3.4,0-6-0.9-7.9-2.7c-1.8-1.8-2.8-4.2-2.8-7.2c0-3.5,1.2-6,3.7-7.7
	s6-2.6,10.6-2.6h5.7v-2.4c0-1.9-0.5-3.3-1.5-4.4c-1-1-2.6-1.5-4.7-1.5c-1.9,0-3.5,0.4-4.7,1.3c-1.2,0.8-2.1,1.8-2.9,2.9l-4.9-4.4
	c1.2-1.9,2.9-3.5,4.9-4.6c2-1.2,4.8-1.8,8.1-1.8c4.5,0,8,1,10.3,3.1c2.3,2,3.5,5,3.5,8.8v15.7h3.3v6.5H360V279z M346.5,273.8
	c1.8,0,3.4-0.4,4.7-1.2s1.9-2,1.9-3.6v-4.4h-5.2c-4.3,0-6.4,1.4-6.4,4.1v1.1c0,1.4,0.4,2.4,1.3,3.1
	C343.6,273.5,344.9,273.8,346.5,273.8z M387.2,252.7h16v-0.3c0-3.6-1-6.4-2.9-8.4s-4.6-2.9-7.9-2.9c-2.8,0-4.9,0.6-6.3,1.8
	c-1.5,1.2-2.6,2.7-3.4,4.7l-7-4c1.7-3.2,3.9-5.7,6.5-7.4s6.1-2.6,10.2-2.6c6.2,0,11.1,1.9,14.5,5.8c3.5,3.8,5.2,9.5,5.2,17
	c0,7.5-1.8,13.4-5.2,17.4c-3.5,4-8.3,6-14.5,6c-4.4,0-7.9-0.9-10.6-2.7c-2.7-1.8-4.9-4.3-6.4-7.5l6.8-4.2c0.8,2,1.9,3.7,3.5,5
	s3.8,1.9,6.7,1.9c3.4,0,6-1,7.9-3s2.9-4.8,2.9-8.5v-0.6h-16L387.2,252.7L387.2,252.7z M416,245.6h8v14.9l-0.7,7.8h0.3l3.9-7.1
	l10.4-15.6h7.4V279h-8v-14.9l0.7-7.9h-0.3l-3.9,7.2L423.4,279H416V245.6z M430.7,241.6c-2.7,0-4.8-0.6-6.5-1.7
	c-1.6-1.2-2.9-2.8-3.8-4.9l-1.3-3l6.5-2.6l2.1,6.1c0.3,0.1,0.8,0.2,1.3,0.3c0.6,0,1.1,0.1,1.7,0.1s1.1,0,1.7-0.1s1-0.2,1.3-0.3
	l2.1-6.1l6.5,2.6l-1.3,3c-0.9,2.1-2.2,3.7-3.8,4.9C435.5,241.1,433.4,241.6,430.7,241.6z M450.6,245.6h8.2v13.1h5.4l5.1-8.8
	c0.9-1.6,1.9-2.8,2.9-3.4c1-0.6,2.3-1,3.9-1h3.6v6.5h-3.6l-3.5,6.1c-0.6,1.1-1.2,1.9-1.7,2.4c-0.6,0.4-1.2,0.7-2,1v0.3
	c0.8,0.2,1.5,0.5,2,0.9c0.6,0.4,1.3,1.2,1.9,2.2l4.2,7.4h3.5v6.5h-4.2c-1.6,0-3-0.3-4-1s-2-1.9-2.9-3.5l-5.1-9.3h-5.4v14h-8.2
	L450.6,245.6L450.6,245.6z M496.2,279.8c-2.5,0-4.7-0.4-6.7-1.2c-1.9-0.9-3.6-2-4.9-3.5s-2.3-3.4-3.1-5.5c-0.7-2.2-1.1-4.6-1.1-7.3
	c0-2.6,0.3-5,1-7.2c0.7-2.1,1.7-3.9,3.1-5.4c1.3-1.5,2.9-2.7,4.9-3.5c1.9-0.9,4.1-1.3,6.5-1.3c2.6,0,4.9,0.4,6.8,1.3
	c1.9,0.9,3.5,2.1,4.7,3.6s2.2,3.3,2.8,5.4c0.6,2,1,4.2,1,6.5v2.7H489v0.8c0,2.4,0.7,4.4,2,5.9c1.4,1.5,3.4,2.2,6.1,2.2
	c2,0,3.7-0.4,5-1.3s2.5-1.9,3.5-3.3l4.4,4.9c-1.4,1.9-3.2,3.4-5.6,4.5C502.1,279.2,499.3,279.8,496.2,279.8z M496.1,251
	c-2.2,0-3.9,0.7-5.2,2.2c-1.3,1.5-1.9,3.3-1.9,5.6v0.5h13.7v-0.6c0-2.3-0.6-4.2-1.7-5.6C499.9,251.7,498.2,251,496.1,251z
	 M514.3,245.6h8.2v13.1h12.9v-13.1h8.2V279h-8.2v-13.8h-12.9V279h-8.2V245.6L514.3,245.6z M573.4,279c-1.8,0-3.2-0.5-4.3-1.5
	c-1-1.1-1.7-2.5-1.9-4.2h-0.4c-0.6,2.2-1.7,3.8-3.4,4.9s-3.8,1.6-6.3,1.6c-3.4,0-6-0.9-7.9-2.7c-1.8-1.8-2.8-4.2-2.8-7.2
	c0-3.5,1.2-6,3.7-7.7s6-2.6,10.6-2.6h5.7v-2.4c0-1.9-0.5-3.3-1.5-4.4c-1-1-2.6-1.5-4.7-1.5c-1.9,0-3.5,0.4-4.7,1.3
	c-1.2,0.8-2.1,1.8-2.9,2.9l-4.9-4.4c1.2-1.9,2.9-3.5,4.9-4.6c2-1.2,4.8-1.8,8.1-1.8c4.5,0,8,1,10.3,3.1c2.3,2,3.5,5,3.5,8.8v15.7
	h3.3v6.5h-4.4L573.4,279L573.4,279z M559.9,273.8c1.8,0,3.4-0.4,4.7-1.2c1.3-0.8,1.9-2,1.9-3.6v-4.4h-5.2c-4.3,0-6.4,1.4-6.4,4.1
	v1.1c0,1.4,0.4,2.4,1.3,3.1C557,273.5,558.2,273.8,559.9,273.8z M586,269.1c1.7,0,3,0.4,3.8,1.3c0.9,0.9,1.3,2,1.3,3.4v1.2
	c0,1.2-0.2,2.3-0.5,3.6c-0.3,1.2-0.7,2.4-1.3,3.6s-1.2,2.2-2,3.3c-0.8,1-1.6,1.9-2.6,2.7h-5.8c1.5-1.4,2.7-2.8,3.6-4.2
	c1-1.3,1.7-2.8,2.2-4.4c-1.3-0.2-2.3-0.7-2.9-1.5c-0.6-0.9-0.9-1.9-0.9-3v-1.2c0-1.4,0.4-2.5,1.2-3.4
	C582.9,269.6,584.2,269.1,586,269.1z M146.7,311.6H175V345h-8.2v-26.9h-11.9V345h-8.2L146.7,311.6L146.7,311.6z M193.6,345.8
	c-2.4,0-4.5-0.4-6.5-1.2c-1.9-0.8-3.5-2-4.9-3.5c-1.3-1.5-2.3-3.4-3.1-5.5c-0.7-2.2-1.1-4.6-1.1-7.3c0-2.7,0.4-5.1,1.1-7.2
	c0.7-2.1,1.7-3.9,3.1-5.4c1.4-1.5,3-2.7,4.9-3.5s4.1-1.2,6.5-1.2s4.5,0.4,6.5,1.2s3.5,2,4.9,3.5s2.4,3.3,3.1,5.4
	c0.7,2.1,1.1,4.5,1.1,7.2s-0.4,5.1-1.1,7.3c-0.7,2.1-1.8,4-3.1,5.5s-2.9,2.7-4.9,3.5S196,345.8,193.6,345.8z M193.6,339.2
	c2.2,0,3.9-0.7,5.1-2c1.2-1.3,1.9-3.3,1.9-5.8v-6.2c0-2.5-0.6-4.4-1.9-5.8s-2.9-2-5.1-2c-2.1,0-3.8,0.7-5.1,2s-1.9,3.2-1.9,5.8v6.2
	c0,2.6,0.6,4.5,1.9,5.8C189.8,338.5,191.4,339.2,193.6,339.2z M222.9,345.8c-3.3,0-6.1-0.5-8.3-1.6s-4.2-2.6-5.9-4.6l5.1-4.9
	c1.1,1.5,2.4,2.6,4,3.3c1.5,0.8,3.3,1.2,5.2,1.2c2.1,0,3.7-0.4,4.7-1.1c1.1-0.8,1.6-1.8,1.6-3.1v-0.7c0-1.2-0.4-2.1-1.2-2.6
	c-0.8-0.6-1.9-0.9-3.4-0.9h-7.3v-5.7h6.5c3,0,4.5-1.2,4.5-3.5V321c0-1.1-0.5-2-1.4-2.6s-2.3-1-4.4-1c-1.9,0-3.5,0.4-4.9,1.2
	c-1.4,0.7-2.5,1.7-3.4,3.1l-5-4.4c1.5-2,3.4-3.6,5.6-4.7c2.3-1.1,5-1.7,8.3-1.7c4.6,0,8,0.9,10.2,2.6c2.3,1.7,3.4,3.8,3.4,6.5
	c0,4.2-2.3,6.7-6.9,7.4v0.3c2.4,0.3,4.3,1,5.6,2.4c1.4,1.3,2,3.1,2,5.2c0,3.3-1.3,5.9-3.9,7.8C231.1,344.8,227.5,345.8,222.9,345.8z
	 M241.2,311.6h18.4c3,0,5.3,0.8,6.8,2.3c1.6,1.5,2.4,3.5,2.4,6.1c0,4.2-2.3,6.7-6.9,7.3v0.3c2.7,0.3,4.8,1,6.1,2.4
	c1.4,1.3,2,3.1,2,5.3c0,2.9-0.9,5.3-2.7,7.1c-1.8,1.8-4.3,2.7-7.5,2.7h-18.7L241.2,311.6L241.2,311.6z M258.2,339
	c1.1,0,2-0.3,2.6-0.8c0.6-0.6,0.9-1.4,0.9-2.5v-1.8c0-1.1-0.3-1.9-0.9-2.4c-0.6-0.6-1.5-0.9-2.6-0.9h-9v8.4L258.2,339L258.2,339z
	 M257.3,325.4c1,0,1.7-0.3,2.3-0.8c0.6-0.6,0.9-1.3,0.9-2.3v-1.6c0-1-0.3-1.7-0.9-2.3c-0.6-0.6-1.3-0.8-2.3-0.8h-8.1v7.9h8.1V325.4z
	 M286.8,345.8c-2.4,0-4.5-0.4-6.5-1.2c-1.9-0.8-3.5-2-4.9-3.5c-1.3-1.5-2.3-3.4-3.1-5.5c-0.7-2.2-1.1-4.6-1.1-7.3
	c0-2.7,0.4-5.1,1.1-7.2s1.7-3.9,3.1-5.4s3-2.7,4.9-3.5s4.1-1.2,6.5-1.2s4.5,0.4,6.5,1.2c1.9,0.8,3.5,2,4.9,3.5s2.4,3.3,3.1,5.4
	s1.1,4.5,1.1,7.2s-0.4,5.1-1.1,7.3c-0.7,2.1-1.8,4-3.1,5.5c-1.3,1.5-2.9,2.7-4.9,3.5C291.4,345.4,289.2,345.8,286.8,345.8z
	 M286.8,339.2c2.2,0,3.9-0.7,5.1-2s1.9-3.3,1.9-5.8v-6.2c0-2.5-0.6-4.4-1.9-5.8s-2.9-2-5.1-2c-2.1,0-3.8,0.7-5.1,2s-1.9,3.2-1.9,5.8
	v6.2c0,2.6,0.6,4.5,1.9,5.8C283,338.5,284.7,339.2,286.8,339.2z M301.2,338.5h4.4c0.4-0.6,0.8-1.4,1.2-2.3c0.4-0.9,0.7-2,1-3.3
	s0.4-2.9,0.6-4.7c0.2-1.8,0.3-4,0.3-6.4v-10.2h25.4V345h-8.2v-26.9h-9.4v4.1c0,3-0.1,5.7-0.3,7.9c-0.2,2.2-0.5,4.1-1,5.8
	c-0.4,1.6-0.9,3-1.5,4.1s-1.2,1.9-1.9,2.6c-1,1-2.1,1.7-3.3,2s-2.8,0.6-4.5,0.6h-2.6v-6.7H301.2z M339.1,311.6h8v14.9l-0.7,7.8h0.3
	l3.9-7.1l10.4-15.6h7.4V345h-8v-14.9l0.7-7.9h-0.3l-3.9,7.2L346.4,345H339v-33.4H339.1z M373.7,311.6H392c3,0,5.3,0.8,6.8,2.3
	c1.6,1.5,2.4,3.5,2.4,6.1c0,4.2-2.3,6.7-6.9,7.3v0.3c2.7,0.3,4.8,1,6.1,2.4c1.4,1.3,2,3.1,2,5.3c0,2.9-0.9,5.3-2.7,7.1
	c-1.8,1.8-4.3,2.7-7.5,2.7h-18.7v-33.5L373.7,311.6L373.7,311.6z M390.7,339c1.1,0,2-0.3,2.6-0.8c0.6-0.6,0.9-1.4,0.9-2.5v-1.8
	c0-1.1-0.3-1.9-0.9-2.4c-0.6-0.6-1.5-0.9-2.6-0.9h-9v8.4L390.7,339L390.7,339z M389.7,325.4c1,0,1.7-0.3,2.3-0.8
	c0.6-0.6,0.9-1.3,0.9-2.3v-1.6c0-1-0.3-1.7-0.9-2.3c-0.6-0.6-1.3-0.8-2.3-0.8h-8.1v7.9h8.1V325.4z M430.2,345.8
	c-2.5,0-4.7-0.4-6.6-1.2s-3.5-2-4.9-3.5c-1.3-1.5-2.3-3.4-2.9-5.5c-0.7-2.2-1-4.6-1-7.3c0-2.7,0.3-5.1,1-7.2s1.7-3.9,2.9-5.4
	c1.3-1.5,2.9-2.7,4.9-3.5s4.1-1.2,6.6-1.2c3.4,0,6.1,0.7,8.3,2.2c2.2,1.5,3.8,3.6,4.8,6.2l-6.7,3c-0.4-1.4-1.1-2.6-2.2-3.5
	c-1-0.9-2.4-1.4-4.2-1.4c-2.3,0-4,0.7-5.2,2.2c-1.1,1.5-1.7,3.3-1.7,5.7v6.1c0,2.3,0.6,4.2,1.7,5.7c1.2,1.4,2.9,2.1,5.2,2.1
	c2,0,3.5-0.5,4.5-1.5c1.1-1,1.9-2.3,2.5-3.8l6.3,3c-1.1,2.9-2.8,5.2-5.1,6.7C436.2,345,433.5,345.8,430.2,345.8z M441.5,338.5h4.2
	c1.2-1.8,2.2-4.1,2.8-6.8c0.6-2.7,0.9-6.3,0.9-10.6v-9.5h25.7v26.9h5.7V354h-7.4v-9H449v9h-7.4v-15.5H441.5z M466.9,338.5v-20.4
	h-9.7v3.4c0,4.6-0.3,8.2-0.8,10.9c-0.6,2.6-1.2,4.7-2,6.1H466.9z M496,345.8c-2.5,0-4.7-0.4-6.7-1.2c-1.9-0.9-3.6-2-4.9-3.5
	s-2.3-3.4-3.1-5.5c-0.7-2.2-1.1-4.6-1.1-7.3c0-2.6,0.3-5,1-7.2c0.7-2.1,1.7-3.9,3.1-5.4c1.3-1.5,2.9-2.7,4.9-3.5
	c1.9-0.9,4.1-1.3,6.5-1.3c2.6,0,4.9,0.4,6.8,1.3s3.5,2.1,4.7,3.6s2.2,3.3,2.8,5.4c0.6,2,1,4.2,1,6.5v2.7h-22.2v0.8
	c0,2.4,0.7,4.4,2,5.9c1.4,1.5,3.4,2.2,6.1,2.2c2,0,3.7-0.4,5-1.3s2.5-1.9,3.5-3.3l4.4,4.9c-1.4,1.9-3.2,3.4-5.6,4.5
	C501.8,345.2,499.1,345.8,496,345.8z M495.9,317c-2.2,0-3.9,0.7-5.2,2.2c-1.3,1.5-1.9,3.3-1.9,5.6v0.5h13.7v-0.6
	c0-2.3-0.6-4.2-1.7-5.6C499.6,317.7,498,317,495.9,317z M510.1,338.5h4.4c0.4-0.6,0.8-1.4,1.2-2.3s0.7-2,1-3.3s0.4-2.9,0.6-4.7
	c0.2-1.8,0.3-4,0.3-6.4v-10.2H543V345h-8.2v-26.9h-9.4v4.1c0,3-0.1,5.7-0.3,7.9c-0.2,2.2-0.5,4.1-1,5.8c-0.4,1.6-0.9,3-1.5,4.1
	s-1.2,1.9-1.9,2.6c-1,1-2.1,1.7-3.3,2c-1.2,0.4-2.8,0.6-4.5,0.6h-2.6v-6.7H510.1z M572.6,345c-1.8,0-3.2-0.5-4.3-1.5
	c-1-1.1-1.7-2.5-1.9-4.2H566c-0.6,2.2-1.7,3.8-3.4,4.9s-3.8,1.6-6.3,1.6c-3.4,0-6-0.9-7.9-2.7c-1.8-1.8-2.8-4.2-2.8-7.2
	c0-3.5,1.2-6,3.7-7.7s6-2.6,10.6-2.6h5.7v-2.4c0-1.9-0.5-3.3-1.5-4.4s-2.6-1.5-4.7-1.5c-1.9,0-3.5,0.4-4.7,1.3
	c-1.2,0.8-2.1,1.8-2.9,2.9l-4.9-4.4c1.2-1.9,2.9-3.5,4.9-4.6c2-1.2,4.8-1.8,8.1-1.8c4.5,0,8,1,10.3,3.1c2.3,2,3.5,5,3.5,8.8v15.7
	h3.3v6.5h-4.4L572.6,345L572.6,345z M559,339.8c1.8,0,3.4-0.4,4.7-1.2c1.3-0.8,1.9-2,1.9-3.6v-4.4h-5.2c-4.3,0-6.4,1.4-6.4,4.1v1.1
	c0,1.4,0.4,2.4,1.3,3.1C556.2,339.5,557.4,339.8,559,339.8z M585.2,318.1H575v-6.5h28.5v6.5h-10.2V345h-8.2v-26.9H585.2z
	 M605.5,311.6h8.2v10.6h9c1.7,0,3.2,0.3,4.5,0.8c1.4,0.5,2.6,1.3,3.6,2.2c1,0.9,1.8,2.1,2.4,3.5c0.6,1.4,0.9,3,0.9,4.9
	s-0.3,3.5-0.9,4.9c-0.6,1.4-1.3,2.6-2.4,3.6c-1,0.9-2.2,1.7-3.6,2.2c-1.4,0.5-2.9,0.8-4.5,0.8h-17.2V311.6z M621,338.9
	c1.5,0,2.6-0.3,3.4-1c0.9-0.7,1.3-1.7,1.3-3.1v-2.5c0-1.4-0.4-2.4-1.3-3.1c-0.8-0.7-1.9-1-3.4-1h-7.4v10.7H621z M146.7,377.6h8.2
	v13.1h5.4l5.1-8.8c0.9-1.6,1.9-2.8,2.9-3.4s2.3-1,3.9-1h3.6v6.5h-3.6l-3.5,6.1c-0.6,1.1-1.2,1.9-1.7,2.4c-0.6,0.4-1.2,0.7-2,1v0.3
	c0.8,0.2,1.5,0.5,2,0.9c0.6,0.4,1.3,1.2,1.9,2.2l4.2,7.4h3.5v6.5h-4.2c-1.6,0-3-0.3-4-1s-2-1.9-2.9-3.5l-5.1-9.3H155v14h-8.2
	L146.7,377.6L146.7,377.6z M192.1,411.8c-2.4,0-4.5-0.4-6.5-1.2c-1.9-0.8-3.5-2-4.9-3.5c-1.3-1.5-2.3-3.4-3.1-5.5
	c-0.7-2.2-1.1-4.6-1.1-7.3c0-2.7,0.4-5.1,1.1-7.2c0.7-2.1,1.7-3.9,3.1-5.4c1.4-1.5,3-2.7,4.9-3.5s4.1-1.2,6.5-1.2s4.5,0.4,6.5,1.2
	s3.5,2,4.9,3.5s2.4,3.3,3.1,5.4c0.7,2.1,1.1,4.5,1.1,7.2s-0.4,5.1-1.1,7.3c-0.7,2.1-1.8,4-3.1,5.5s-2.9,2.7-4.9,3.5
	S194.5,411.8,192.1,411.8z M192.1,405.2c2.2,0,3.9-0.7,5.1-2c1.2-1.3,1.9-3.3,1.9-5.8v-6.2c0-2.5-0.6-4.4-1.9-5.8s-2.9-2-5.1-2
	c-2.1,0-3.8,0.7-5.1,2s-1.9,3.2-1.9,5.8v6.2c0,2.6,0.6,4.5,1.9,5.8C188.3,404.5,189.9,405.2,192.1,405.2z M210.7,377.6h9.4l8.8,14.7
	h0.3l8.7-14.7h9.2V411h-7.9v-23.3h-0.3l-2.3,4.4l-7.7,12.7l-7.7-12.7l-2.3-4.4h-0.3V411h-7.9V377.6z M252.4,377.6h28.3V411h-8.2
	v-26.9h-11.9V411h-8.2L252.4,377.6L252.4,377.6z M286,377.6h8.2v10.6h9c1.7,0,3.2,0.3,4.5,0.8c1.4,0.5,2.6,1.3,3.6,2.2
	c1,0.9,1.8,2.1,2.4,3.5s0.9,3,0.9,4.9s-0.3,3.5-0.9,4.9s-1.3,2.6-2.4,3.6c-1,0.9-2.2,1.7-3.6,2.2s-2.9,0.8-4.5,0.8H286V377.6z
	 M301.5,404.9c1.5,0,2.6-0.3,3.4-1c0.9-0.7,1.3-1.7,1.3-3.1v-2.5c0-1.4-0.4-2.4-1.3-3.1c-0.8-0.7-1.9-1-3.4-1h-7.4v10.7H301.5z
	 M346.4,411.8c-4.4,0-7.8-1.3-10.4-3.8c-2.6-2.6-4.1-6.1-4.5-10.7h-6.3V411H317v-33.4h8.2v13.1h6.3c0.6-4.4,2.1-7.8,4.7-10.2
	c2.6-2.4,6-3.6,10.2-3.6c4.8,0,8.5,1.6,11.1,4.7c2.7,3.1,4,7.3,4,12.7c0,2.7-0.3,5.2-1,7.4c-0.7,2.1-1.7,4-3,5.5s-2.9,2.6-4.7,3.5
	S348.8,411.8,346.4,411.8z M346.4,405.2c2.1,0,3.8-0.6,4.9-1.9c1.2-1.3,1.7-3.3,1.7-5.8v-6.3c0-2.6-0.6-4.5-1.7-5.8s-2.7-2-4.9-2
	s-3.8,0.7-4.9,2s-1.7,3.2-1.7,5.8v6.3c0,2.6,0.6,4.5,1.7,5.8C342.6,404.5,344.2,405.2,346.4,405.2z M370.9,384.1h-10.2v-6.5h28.5
	v6.5H379V411h-8.2v-26.9H370.9z M404.2,411.8c-2.5,0-4.7-0.4-6.7-1.2c-1.9-0.9-3.6-2-4.9-3.5s-2.3-3.4-3.1-5.5
	c-0.7-2.2-1.1-4.6-1.1-7.3c0-2.6,0.3-5,1-7.2c0.7-2.1,1.7-3.9,3.1-5.4c1.3-1.5,2.9-2.7,4.9-3.5c1.9-0.9,4.1-1.3,6.5-1.3
	c2.6,0,4.9,0.4,6.8,1.3s3.5,2.1,4.7,3.6s2.2,3.3,2.8,5.4c0.6,2,1,4.2,1,6.5v2.7H397v0.8c0,2.4,0.7,4.4,2,5.9
	c1.4,1.5,3.4,2.2,6.1,2.2c2,0,3.7-0.4,5-1.3s2.5-1.9,3.5-3.3l4.4,4.9c-1.4,1.9-3.2,3.4-5.6,4.5S407.3,411.8,404.2,411.8z M404.1,383
	c-2.2,0-3.9,0.7-5.2,2.2c-1.3,1.5-1.9,3.3-1.9,5.6v0.5h13.7v-0.6c0-2.3-0.6-4.2-1.7-5.6C407.8,383.7,406.2,383,404.1,383z
	 M422.2,377.6h8.2v5.5h0.3c0.6-1.9,1.7-3.4,3.4-4.5c1.7-1.2,3.6-1.7,5.8-1.7c4.3,0,7.5,1.5,9.7,4.5c2.3,3,3.4,7.3,3.4,12.9
	s-1.1,10-3.4,13c-2.2,3-5.5,4.5-9.7,4.5c-2.2,0-4.2-0.6-5.8-1.7c-1.6-1.2-2.8-2.7-3.4-4.6h-0.3v18.4h-8.2V377.6z M437.2,405
	c2.1,0,3.9-0.7,5.2-2.1c1.3-1.4,2-3.3,2-5.7v-5.8c0-2.4-0.7-4.3-2-5.7c-1.3-1.5-3.1-2.2-5.2-2.2c-2,0-3.6,0.5-4.9,1.5
	s-1.9,2.3-1.9,3.9v10.6c0,1.7,0.6,3.1,1.9,4C433.6,404.5,435.3,405,437.2,405z M456.4,377.6h8.2v10.6h8.3c1.6,0,3.1,0.3,4.5,0.8
	s2.6,1.3,3.6,2.2c1,0.9,1.8,2.1,2.4,3.5s0.9,3,0.9,4.9s-0.3,3.5-0.8,4.9c-0.6,1.4-1.3,2.6-2.4,3.6c-1,0.9-2.2,1.7-3.6,2.2
	s-2.9,0.8-4.5,0.8h-16.5v-33.5H456.4z M471.3,404.9c1.5,0,2.6-0.3,3.4-1c0.9-0.7,1.3-1.7,1.3-3.1v-2.5c0-1.4-0.4-2.4-1.3-3.1
	c-0.8-0.7-1.9-1-3.4-1h-6.7v10.7H471.3z M488.9,377.6h8.2V411h-8.2V377.6z M146.7,443.6H175V477h-8.2v-26.9h-11.9V477h-8.2
	L146.7,443.6L146.7,443.6z M180.3,443.6h8.2v5.5h0.3c0.6-1.9,1.7-3.4,3.4-4.5c1.7-1.2,3.6-1.7,5.8-1.7c4.3,0,7.5,1.5,9.7,4.5
	c2.3,3,3.4,7.3,3.4,12.9s-1.1,10-3.4,13c-2.2,3-5.5,4.5-9.7,4.5c-2.2,0-4.2-0.6-5.8-1.7c-1.6-1.2-2.8-2.7-3.4-4.6h-0.3v18.4h-8.2
	V443.6z M195.4,471c2.1,0,3.9-0.7,5.2-2.1s2-3.3,2-5.7v-5.8c0-2.4-0.7-4.3-2-5.7c-1.3-1.5-3.1-2.2-5.2-2.2c-2,0-3.6,0.5-4.9,1.5
	c-1.3,1-1.9,2.3-1.9,3.9v10.6c0,1.7,0.6,3.1,1.9,4C191.8,470.5,193.4,471,195.4,471z M227.8,477.8c-2.4,0-4.5-0.4-6.5-1.2
	c-1.9-0.8-3.5-2-4.9-3.5c-1.3-1.5-2.3-3.4-3.1-5.5c-0.7-2.2-1.1-4.6-1.1-7.3c0-2.7,0.4-5.1,1.1-7.2c0.7-2.1,1.7-3.9,3.1-5.4
	c1.4-1.5,3-2.7,4.9-3.5s4.1-1.2,6.5-1.2s4.5,0.4,6.5,1.2c1.9,0.8,3.5,2,4.9,3.5s2.4,3.3,3.1,5.4c0.7,2.1,1.1,4.5,1.1,7.2
	s-0.4,5.1-1.1,7.3c-0.7,2.1-1.8,4-3.1,5.5s-2.9,2.7-4.9,3.5C232.3,477.4,230.2,477.8,227.8,477.8z M227.8,471.2c2.2,0,3.9-0.7,5.1-2
	c1.2-1.3,1.9-3.3,1.9-5.8v-6.2c0-2.5-0.6-4.4-1.9-5.8s-2.9-2-5.1-2c-2.1,0-3.8,0.7-5.1,2s-1.9,3.2-1.9,5.8v6.2
	c0,2.6,0.6,4.5,1.9,5.8C224,470.5,225.7,471.2,227.8,471.2z M246.4,443.6h22.1v6.5h-14V477h-8.2L246.4,443.6L246.4,443.6z
	 M270.5,443.6h8.2v5.5h0.3c0.6-1.9,1.7-3.4,3.4-4.5c1.7-1.2,3.6-1.7,5.8-1.7c4.3,0,7.5,1.5,9.7,4.5c2.3,3,3.4,7.3,3.4,12.9
	s-1.1,10-3.4,13c-2.2,3-5.5,4.5-9.7,4.5c-2.2,0-4.2-0.6-5.8-1.7c-1.6-1.2-2.8-2.7-3.4-4.6h-0.3v18.4h-8.2V443.6L270.5,443.6z
	 M285.6,471c2.1,0,3.9-0.7,5.2-2.1c1.3-1.4,2-3.3,2-5.7v-5.8c0-2.4-0.7-4.3-2-5.7c-1.3-1.5-3.1-2.2-5.2-2.2c-2,0-3.6,0.5-4.9,1.5
	s-1.9,2.3-1.9,3.9v10.6c0,1.7,0.6,3.1,1.9,4C282,470.5,283.6,471,285.6,471z M329.3,477c-1.8,0-3.2-0.5-4.3-1.5
	c-1-1.1-1.7-2.5-1.9-4.2h-0.4c-0.6,2.2-1.7,3.8-3.4,4.9c-1.7,1.1-3.8,1.6-6.3,1.6c-3.4,0-6-0.9-7.9-2.7c-1.8-1.8-2.8-4.2-2.8-7.2
	c0-3.5,1.2-6,3.7-7.7s6-2.6,10.6-2.6h5.7v-2.4c0-1.9-0.5-3.3-1.5-4.4c-1-1-2.6-1.5-4.7-1.5c-1.9,0-3.5,0.4-4.7,1.3
	c-1.2,0.8-2.1,1.8-2.9,2.9l-4.9-4.4c1.2-1.9,2.9-3.5,4.9-4.6c2-1.2,4.8-1.8,8.1-1.8c4.5,0,8,1,10.3,3.1c2.3,2,3.5,5,3.5,8.8v15.7
	h3.3v6.5h-4.4L329.3,477L329.3,477z M315.8,471.8c1.8,0,3.4-0.4,4.7-1.2s1.9-2,1.9-3.6v-4.4h-5.2c-4.3,0-6.4,1.4-6.4,4.1v1.1
	c0,1.4,0.4,2.4,1.3,3.1C312.9,471.5,314.1,471.8,315.8,471.8z M336.3,443.6h9.4l8.8,14.7h0.3l8.7-14.7h9.2V477h-7.9v-23.3h-0.3
	l-2.3,4.4l-7.7,12.7l-7.7-12.7l-2.3-4.4h-0.3V477h-7.9L336.3,443.6L336.3,443.6z M378,443.6h9.4l8.8,14.7h0.3l8.7-14.7h9.2V477h-7.9
	v-23.3h-0.3l-2.3,4.4l-7.7,12.7l-7.7-12.7l-2.3-4.4h-0.3V477H378V443.6z M419.6,443.6h8v14.9l-0.7,7.8h0.3l3.9-7.1l10.4-15.6h7.4
	V477h-8v-14.9l0.7-7.9h-0.3l-3.9,7.2L427,477h-7.4V443.6z M454.2,443.6h8.2v5.5h0.3c0.6-1.9,1.7-3.4,3.4-4.5
	c1.7-1.2,3.6-1.7,5.8-1.7c4.3,0,7.5,1.5,9.7,4.5c2.3,3,3.4,7.3,3.4,12.9s-1.1,10-3.4,13c-2.2,3-5.5,4.5-9.7,4.5
	c-2.2,0-4.2-0.6-5.8-1.7c-1.6-1.2-2.8-2.7-3.4-4.6h-0.3v18.4h-8.2V443.6z M469.3,471c2.1,0,3.9-0.7,5.2-2.1c1.3-1.4,2-3.3,2-5.7
	v-5.8c0-2.4-0.7-4.3-2-5.7c-1.3-1.5-3-2.2-5.2-2.2c-2,0-3.6,0.5-4.9,1.5s-1.9,2.3-1.9,3.9v10.6c0,1.7,0.6,3.1,1.9,4
	C465.7,470.5,467.3,471,469.3,471z M508.4,443.6h7.7L502.6,483c-0.4,1.2-0.9,2.2-1.5,3.1c-0.5,0.9-1.1,1.6-1.9,2.2
	c-0.7,0.6-1.6,1-2.6,1.2c-1,0.3-2.2,0.4-3.6,0.4h-4.9v-6.5h6l1.5-4.7l-12-35h8.1l5.8,17.7l2.2,8.4h0.4l2.3-8.4L508.4,443.6z
	 M530.4,477.8c-2.5,0-4.7-0.4-6.7-1.2c-1.9-0.9-3.6-2-4.9-3.5c-1.3-1.5-2.3-3.4-3.1-5.5c-0.7-2.2-1.1-4.6-1.1-7.3c0-2.6,0.3-5,1-7.2
	c0.7-2.1,1.7-3.9,3.1-5.4c1.3-1.5,2.9-2.7,4.9-3.5c1.9-0.9,4.1-1.3,6.5-1.3c2.6,0,4.9,0.4,6.8,1.3s3.5,2.1,4.7,3.6s2.2,3.3,2.8,5.4
	c0.6,2,1,4.2,1,6.5v2.7h-22.2v0.8c0,2.4,0.7,4.4,2,5.9c1.4,1.5,3.4,2.2,6.1,2.2c2,0,3.7-0.4,5-1.3s2.5-1.9,3.5-3.3l4.4,4.9
	c-1.4,1.9-3.2,3.4-5.6,4.5S533.5,477.8,530.4,477.8z M530.2,449c-2.2,0-3.9,0.7-5.2,2.2s-1.9,3.3-1.9,5.6v0.5h13.7v-0.6
	c0-2.3-0.6-4.2-1.7-5.6C534,449.7,532.4,449,530.2,449z M548.4,443.6h9.4l8.8,14.7h0.3l8.7-14.7h9.2V477h-7.9v-23.3h-0.3l-2.3,4.4
	l-7.7,12.7l-7.7-12.7l-2.3-4.4h-0.3V477h-7.9V443.6z M590,443.6h8.2v10.6h8.3c1.6,0,3.1,0.3,4.5,0.8s2.6,1.3,3.6,2.2
	c1,0.9,1.8,2.1,2.4,3.5c0.6,1.4,0.9,3,0.9,4.9s-0.3,3.5-0.8,4.9c-0.6,1.4-1.3,2.6-2.4,3.6c-1,0.9-2.2,1.7-3.6,2.2
	c-1.4,0.5-2.9,0.8-4.5,0.8H590V443.6z M604.9,470.9c1.5,0,2.6-0.3,3.4-1c0.9-0.7,1.3-1.7,1.3-3.1v-2.5c0-1.4-0.4-2.4-1.3-3.1
	c-0.8-0.7-1.9-1-3.4-1h-6.7v10.7H604.9z M622.5,443.6h8.2V477h-8.2V443.6z M636.1,443.6h9.4l8.8,14.7h0.3l8.7-14.7h9.2V477h-7.9
	v-23.3h-0.3l-2.3,4.4l-7.7,12.7l-7.7-12.7l-2.3-4.4H644V477h-7.9V443.6z M677.7,443.6h8v14.9l-0.7,7.8h0.3l3.9-7.1l10.4-15.6h7.4
	V477h-8v-14.9l0.7-7.9h-0.3l-3.9,7.2L685.1,477h-7.4L677.7,443.6L677.7,443.6z"/>
<circle class="st1" cx="63" cy="-23" r="17"/>
<circle class="st1" cx="63" cy="41" r="17"/>
<circle class="st1" cx="63" cy="105" r="17"/>
<circle class="st1" cx="63" cy="169" r="17"/>
<circle class="st1" cx="63" cy="233" r="17"/>
<circle class="st1" cx="63" cy="297" r="17"/>
<circle class="st1" cx="63" cy="361" r="17"/>
<circle class="st1" cx="63" cy="425" r="17"/>
<circle class="st1" cx="63" cy="489" r="17"/>
<circle class="st1" cx="63" cy="553" r="17"/>
</svg>
