<?xml version="1.0" encoding="utf-8"?>
<!-- Generator: Adobe Illustrator 23.0.3, SVG Export Plug-In . SVG Version: 6.00 Build 0)  -->
<svg version="1.1" id="Слой_1" xmlns="http://www.w3.org/2000/svg" xmlns:xlink="http://www.w3.org/1999/xlink" x="0px" y="0px"
	 viewBox="0 0 1440 676.1" style="enable-background:new 0 0 1440 676.1;" xml:space="preserve">
<style type="text/css">
	.st0{fill:#247BFD;}
</style>
<path d="M251.2,268.8c-3.6,0-6.8-0.7-9.6-2.2l-3.4,5l-5.9-3.8l3.9-5.8c-1.5-1.9-2.6-4.2-3.5-7c-0.8-2.7-1.2-5.9-1.2-9.4
	c0-3.8,0.5-7.1,1.4-10c0.9-2.9,2.3-5.3,4-7.2c1.7-2,3.8-3.4,6.2-4.4s5.1-1.5,8.1-1.5c3.6,0,6.8,0.7,9.6,2.2l3.4-5l5.9,3.8l-3.9,5.8
	c1.5,1.9,2.6,4.2,3.5,7c0.8,2.7,1.2,5.9,1.2,9.4c0,3.8-0.5,7.1-1.4,10c-0.9,2.9-2.3,5.3-4,7.2c-1.7,1.9-3.8,3.4-6.2,4.4
	C256.8,268.3,254.1,268.8,251.2,268.8z M241.4,249.2c0,2,0.3,3.8,0.8,5.3l14.3-22.7c-1.4-0.9-3.2-1.3-5.2-1.3c-3.1,0-5.5,1-7.2,3
	c-1.7,2-2.6,4.9-2.6,8.6V249.2z M261,242.1c0-2-0.3-3.8-0.8-5.3l-14.3,22.7c1.4,0.9,3.2,1.3,5.2,1.3c3.1,0,5.5-1,7.2-3
	c1.7-2,2.6-4.9,2.6-8.6V242.1z"/>
<path d="M501.2,268.8c-3.6,0-6.8-0.7-9.6-2.2l-3.4,5l-5.9-3.8l3.9-5.8c-1.5-1.9-2.6-4.2-3.5-7c-0.8-2.7-1.2-5.9-1.2-9.4
	c0-3.8,0.5-7.1,1.4-10c0.9-2.9,2.3-5.3,4-7.2c1.7-2,3.8-3.4,6.2-4.4c2.4-1,5.1-1.5,8.1-1.5c3.6,0,6.8,0.7,9.6,2.2l3.4-5l5.9,3.8
	l-3.9,5.8c1.5,1.9,2.6,4.2,3.5,7c0.8,2.7,1.2,5.9,1.2,9.4c0,3.8-0.5,7.1-1.4,10c-0.9,2.9-2.3,5.3-4,7.2c-1.7,1.9-3.8,3.4-6.2,4.4
	C506.8,268.3,504.1,268.8,501.2,268.8z M491.4,249.2c0,2,0.3,3.8,0.8,5.3l14.3-22.7c-1.4-0.9-3.2-1.3-5.2-1.3c-3.1,0-5.5,1-7.2,3
	c-1.7,2-2.6,4.9-2.6,8.6V249.2z M511,242.1c0-2-0.3-3.8-0.8-5.3l-14.3,22.7c1.4,0.9,3.2,1.3,5.2,1.3c3.1,0,5.5-1,7.2-3
	c1.7-2,2.6-4.9,2.6-8.6V242.1z"/>
<path d="M251.2,326.8c-3.6,0-6.8-0.7-9.6-2.2l-3.4,5l-5.9-3.8l3.9-5.8c-1.5-1.9-2.6-4.2-3.5-7c-0.8-2.7-1.2-5.9-1.2-9.4
	c0-3.8,0.5-7.1,1.4-10c0.9-2.9,2.3-5.3,4-7.2c1.7-2,3.8-3.4,6.2-4.4c2.4-1,5.1-1.5,8.1-1.5c3.6,0,6.8,0.7,9.6,2.2l3.4-5l5.9,3.8
	l-3.9,5.8c1.5,1.9,2.6,4.2,3.5,7c0.8,2.7,1.2,5.9,1.2,9.4c0,3.8-0.5,7.1-1.4,10c-0.9,2.9-2.3,5.3-4,7.2c-1.7,1.9-3.8,3.4-6.2,4.4
	C256.8,326.3,254.1,326.8,251.2,326.8z M241.4,307.2c0,2,0.3,3.8,0.8,5.3l14.3-22.7c-1.4-0.9-3.2-1.3-5.2-1.3c-3.1,0-5.5,1-7.2,3
	c-1.7,2-2.6,4.9-2.6,8.6V307.2z M261,300.1c0-2-0.3-3.8-0.8-5.3l-14.3,22.7c1.4,0.9,3.2,1.3,5.2,1.3c3.1,0,5.5-1,7.2-3
	c1.7-2,2.6-4.9,2.6-8.6V300.1z"/>
<path d="M501.2,326.8c-3.6,0-6.8-0.7-9.6-2.2l-3.4,5l-5.9-3.8l3.9-5.8c-1.5-1.9-2.6-4.2-3.5-7c-0.8-2.7-1.2-5.9-1.2-9.4
	c0-3.8,0.5-7.1,1.4-10c0.9-2.9,2.3-5.3,4-7.2c1.7-2,3.8-3.4,6.2-4.4c2.4-1,5.1-1.5,8.1-1.5c3.6,0,6.8,0.7,9.6,2.2l3.4-5l5.9,3.8
	l-3.9,5.8c1.5,1.9,2.6,4.2,3.5,7c0.8,2.7,1.2,5.9,1.2,9.4c0,3.8-0.5,7.1-1.4,10c-0.9,2.9-2.3,5.3-4,7.2c-1.7,1.9-3.8,3.4-6.2,4.4
	C506.8,326.3,504.1,326.8,501.2,326.8z M491.4,307.2c0,2,0.3,3.8,0.8,5.3l14.3-22.7c-1.4-0.9-3.2-1.3-5.2-1.3c-3.1,0-5.5,1-7.2,3
	c-1.7,2-2.6,4.9-2.6,8.6V307.2z M511,300.1c0-2-0.3-3.8-0.8-5.3l-14.3,22.7c1.4,0.9,3.2,1.3,5.2,1.3c3.1,0,5.5-1,7.2-3
	c1.7-2,2.6-4.9,2.6-8.6V300.1z"/>
<path d="M251.2,384.8c-3.6,0-6.8-0.7-9.6-2.2l-3.4,5l-5.9-3.8l3.9-5.8c-1.5-1.9-2.6-4.2-3.5-7c-0.8-2.7-1.2-5.9-1.2-9.4
	c0-3.8,0.5-7.1,1.4-10c0.9-2.9,2.3-5.3,4-7.2c1.7-2,3.8-3.4,6.2-4.4c2.4-1,5.1-1.5,8.1-1.5c3.6,0,6.8,0.7,9.6,2.2l3.4-5l5.9,3.8
	l-3.9,5.8c1.5,1.9,2.6,4.2,3.5,7c0.8,2.7,1.2,5.9,1.2,9.4c0,3.8-0.5,7.1-1.4,10c-0.9,2.9-2.3,5.3-4,7.2c-1.7,1.9-3.8,3.4-6.2,4.4
	C256.8,384.3,254.1,384.8,251.2,384.8z M241.4,365.2c0,2,0.3,3.8,0.8,5.3l14.3-22.7c-1.4-0.9-3.2-1.3-5.2-1.3c-3.1,0-5.5,1-7.2,3
	c-1.7,2-2.6,4.9-2.6,8.6V365.2z M261,358.1c0-2-0.3-3.8-0.8-5.3l-14.3,22.7c1.4,0.9,3.2,1.3,5.2,1.3c3.1,0,5.5-1,7.2-3
	c1.7-2,2.6-4.9,2.6-8.6V358.1z"/>
<path d="M501.2,384.8c-3.6,0-6.8-0.7-9.6-2.2l-3.4,5l-5.9-3.8l3.9-5.8c-1.5-1.9-2.6-4.2-3.5-7c-0.8-2.7-1.2-5.9-1.2-9.4
	c0-3.8,0.5-7.1,1.4-10c0.9-2.9,2.3-5.3,4-7.2c1.7-2,3.8-3.4,6.2-4.4c2.4-1,5.1-1.5,8.1-1.5c3.6,0,6.8,0.7,9.6,2.2l3.4-5l5.9,3.8
	l-3.9,5.8c1.5,1.9,2.6,4.2,3.5,7c0.8,2.7,1.2,5.9,1.2,9.4c0,3.8-0.5,7.1-1.4,10c-0.9,2.9-2.3,5.3-4,7.2c-1.7,1.9-3.8,3.4-6.2,4.4
	C506.8,384.3,504.1,384.8,501.2,384.8z M491.4,365.2c0,2,0.3,3.8,0.8,5.3l14.3-22.7c-1.4-0.9-3.2-1.3-5.2-1.3c-3.1,0-5.5,1-7.2,3
	c-1.7,2-2.6,4.9-2.6,8.6V365.2z M511,358.1c0-2-0.3-3.8-0.8-5.3l-14.3,22.7c1.4,0.9,3.2,1.3,5.2,1.3c3.1,0,5.5-1,7.2-3
	c1.7-2,2.6-4.9,2.6-8.6V358.1z"/>
<path d="M251.2,442.8c-3.6,0-6.8-0.7-9.6-2.2l-3.4,5l-5.9-3.8l3.9-5.8c-1.5-1.9-2.6-4.2-3.5-7c-0.8-2.7-1.2-5.9-1.2-9.4
	c0-3.8,0.5-7.1,1.4-10c0.9-2.9,2.3-5.3,4-7.2c1.7-2,3.8-3.4,6.2-4.4c2.4-1,5.1-1.5,8.1-1.5c3.6,0,6.8,0.7,9.6,2.2l3.4-5l5.9,3.8
	l-3.9,5.8c1.5,1.9,2.6,4.2,3.5,7c0.8,2.7,1.2,5.9,1.2,9.4c0,3.8-0.5,7.1-1.4,10c-0.9,2.9-2.3,5.3-4,7.2c-1.7,1.9-3.8,3.4-6.2,4.4
	C256.8,442.3,254.1,442.8,251.2,442.8z M241.4,423.2c0,2,0.3,3.8,0.8,5.3l14.3-22.7c-1.4-0.9-3.2-1.3-5.2-1.3c-3.1,0-5.5,1-7.2,3
	c-1.7,2-2.6,4.9-2.6,8.6V423.2z M261,416.1c0-2-0.3-3.8-0.8-5.3l-14.3,22.7c1.4,0.9,3.2,1.3,5.2,1.3c3.1,0,5.5-1,7.2-3
	c1.7-2,2.6-4.9,2.6-8.6V416.1z"/>
<path d="M501.2,442.8c-3.6,0-6.8-0.7-9.6-2.2l-3.4,5l-5.9-3.8l3.9-5.8c-1.5-1.9-2.6-4.2-3.5-7c-0.8-2.7-1.2-5.9-1.2-9.4
	c0-3.8,0.5-7.1,1.4-10c0.9-2.9,2.3-5.3,4-7.2c1.7-2,3.8-3.4,6.2-4.4c2.4-1,5.1-1.5,8.1-1.5c3.6,0,6.8,0.7,9.6,2.2l3.4-5l5.9,3.8
	l-3.9,5.8c1.5,1.9,2.6,4.2,3.5,7c0.8,2.7,1.2,5.9,1.2,9.4c0,3.8-0.5,7.1-1.4,10c-0.9,2.9-2.3,5.3-4,7.2c-1.7,1.9-3.8,3.4-6.2,4.4
	C506.8,442.3,504.1,442.8,501.2,442.8z M491.4,423.2c0,2,0.3,3.8,0.8,5.3l14.3-22.7c-1.4-0.9-3.2-1.3-5.2-1.3c-3.1,0-5.5,1-7.2,3
	c-1.7,2-2.6,4.9-2.6,8.6V423.2z M511,416.1c0-2-0.3-3.8-0.8-5.3l-14.3,22.7c1.4,0.9,3.2,1.3,5.2,1.3c3.1,0,5.5-1,7.2-3
	c1.7-2,2.6-4.9,2.6-8.6V416.1z"/>
<path d="M251.2,500.8c-3.6,0-6.8-0.7-9.6-2.2l-3.4,5l-5.9-3.8l3.9-5.8c-1.5-1.9-2.6-4.2-3.5-7c-0.8-2.7-1.2-5.9-1.2-9.4
	c0-3.8,0.5-7.1,1.4-10c0.9-2.9,2.3-5.3,4-7.2c1.7-2,3.8-3.4,6.2-4.4c2.4-1,5.1-1.5,8.1-1.5c3.6,0,6.8,0.7,9.6,2.2l3.4-5l5.9,3.8
	l-3.9,5.8c1.5,1.9,2.6,4.2,3.5,7c0.8,2.7,1.2,5.9,1.2,9.4c0,3.8-0.5,7.1-1.4,10c-0.9,2.9-2.3,5.3-4,7.2c-1.7,1.9-3.8,3.4-6.2,4.4
	C256.8,500.3,254.1,500.8,251.2,500.8z M241.4,481.2c0,2,0.3,3.8,0.8,5.3l14.3-22.7c-1.4-0.9-3.2-1.3-5.2-1.3c-3.1,0-5.5,1-7.2,3
	c-1.7,2-2.6,4.9-2.6,8.6V481.2z M261,474.1c0-2-0.3-3.8-0.8-5.3l-14.3,22.7c1.4,0.9,3.2,1.3,5.2,1.3c3.1,0,5.5-1,7.2-3
	c1.7-2,2.6-4.9,2.6-8.6V474.1z"/>
<path d="M501.2,500.8c-3.6,0-6.8-0.7-9.6-2.2l-3.4,5l-5.9-3.8l3.9-5.8c-1.5-1.9-2.6-4.2-3.5-7c-0.8-2.7-1.2-5.9-1.2-9.4
	c0-3.8,0.5-7.1,1.4-10c0.9-2.9,2.3-5.3,4-7.2c1.7-2,3.8-3.4,6.2-4.4c2.4-1,5.1-1.5,8.1-1.5c3.6,0,6.8,0.7,9.6,2.2l3.4-5l5.9,3.8
	l-3.9,5.8c1.5,1.9,2.6,4.2,3.5,7c0.8,2.7,1.2,5.9,1.2,9.4c0,3.8-0.5,7.1-1.4,10c-0.9,2.9-2.3,5.3-4,7.2c-1.7,1.9-3.8,3.4-6.2,4.4
	C506.8,500.3,504.1,500.8,501.2,500.8z M491.4,481.2c0,2,0.3,3.8,0.8,5.3l14.3-22.7c-1.4-0.9-3.2-1.3-5.2-1.3c-3.1,0-5.5,1-7.2,3
	c-1.7,2-2.6,4.9-2.6,8.6V481.2z M511,474.1c0-2-0.3-3.8-0.8-5.3l-14.3,22.7c1.4,0.9,3.2,1.3,5.2,1.3c3.1,0,5.5-1,7.2-3
	c1.7-2,2.6-4.9,2.6-8.6V474.1z"/>
<path d="M297.2,268.8c-3.6,0-6.8-0.7-9.6-2.2l-3.4,5l-5.9-3.8l3.9-5.8c-1.5-1.9-2.6-4.2-3.5-7c-0.8-2.7-1.2-5.9-1.2-9.4
	c0-3.8,0.5-7.1,1.4-10c0.9-2.9,2.3-5.3,4-7.2c1.7-2,3.8-3.4,6.2-4.4c2.4-1,5.1-1.5,8.1-1.5c3.6,0,6.8,0.7,9.6,2.2l3.4-5l5.9,3.8
	l-3.9,5.8c1.5,1.9,2.6,4.2,3.5,7c0.8,2.7,1.2,5.9,1.2,9.4c0,3.8-0.5,7.1-1.4,10c-0.9,2.9-2.3,5.3-4,7.2c-1.7,1.9-3.8,3.4-6.2,4.4
	C302.8,268.3,300.1,268.8,297.2,268.8z M287.4,249.2c0,2,0.3,3.8,0.8,5.3l14.3-22.7c-1.4-0.9-3.2-1.3-5.2-1.3c-3.1,0-5.5,1-7.2,3
	c-1.7,2-2.6,4.9-2.6,8.6V249.2z M307,242.1c0-2-0.3-3.8-0.8-5.3l-14.3,22.7c1.4,0.9,3.2,1.3,5.2,1.3c3.1,0,5.5-1,7.2-3
	c1.7-2,2.6-4.9,2.6-8.6V242.1z"/>
<path d="M547.2,268.8c-3.6,0-6.8-0.7-9.6-2.2l-3.4,5l-5.9-3.8l3.9-5.8c-1.5-1.9-2.6-4.2-3.5-7c-0.8-2.7-1.2-5.9-1.2-9.4
	c0-3.8,0.5-7.1,1.4-10c0.9-2.9,2.3-5.3,4-7.2c1.7-2,3.8-3.4,6.2-4.4c2.4-1,5.1-1.5,8.1-1.5c3.6,0,6.8,0.7,9.6,2.2l3.4-5l5.9,3.8
	l-3.9,5.8c1.5,1.9,2.6,4.2,3.5,7c0.8,2.7,1.2,5.9,1.2,9.4c0,3.8-0.5,7.1-1.4,10c-0.9,2.9-2.3,5.3-4,7.2c-1.7,1.9-3.8,3.4-6.2,4.4
	C552.8,268.3,550.1,268.8,547.2,268.8z M537.4,249.2c0,2,0.3,3.8,0.8,5.3l14.3-22.7c-1.4-0.9-3.2-1.3-5.2-1.3c-3.1,0-5.5,1-7.2,3
	c-1.7,2-2.6,4.9-2.6,8.6V249.2z M557,242.1c0-2-0.3-3.8-0.8-5.3l-14.3,22.7c1.4,0.9,3.2,1.3,5.2,1.3c3.1,0,5.5-1,7.2-3
	c1.7-2,2.6-4.9,2.6-8.6V242.1z"/>
<path d="M297.2,326.8c-3.6,0-6.8-0.7-9.6-2.2l-3.4,5l-5.9-3.8l3.9-5.8c-1.5-1.9-2.6-4.2-3.5-7c-0.8-2.7-1.2-5.9-1.2-9.4
	c0-3.8,0.5-7.1,1.4-10c0.9-2.9,2.3-5.3,4-7.2c1.7-2,3.8-3.4,6.2-4.4c2.4-1,5.1-1.5,8.1-1.5c3.6,0,6.8,0.7,9.6,2.2l3.4-5l5.9,3.8
	l-3.9,5.8c1.5,1.9,2.6,4.2,3.5,7c0.8,2.7,1.2,5.9,1.2,9.4c0,3.8-0.5,7.1-1.4,10c-0.9,2.9-2.3,5.3-4,7.2c-1.7,1.9-3.8,3.4-6.2,4.4
	C302.8,326.3,300.1,326.8,297.2,326.8z M287.4,307.2c0,2,0.3,3.8,0.8,5.3l14.3-22.7c-1.4-0.9-3.2-1.3-5.2-1.3c-3.1,0-5.5,1-7.2,3
	c-1.7,2-2.6,4.9-2.6,8.6V307.2z M307,300.1c0-2-0.3-3.8-0.8-5.3l-14.3,22.7c1.4,0.9,3.2,1.3,5.2,1.3c3.1,0,5.5-1,7.2-3
	c1.7-2,2.6-4.9,2.6-8.6V300.1z"/>
<path d="M547.2,326.8c-3.6,0-6.8-0.7-9.6-2.2l-3.4,5l-5.9-3.8l3.9-5.8c-1.5-1.9-2.6-4.2-3.5-7c-0.8-2.7-1.2-5.9-1.2-9.4
	c0-3.8,0.5-7.1,1.4-10c0.9-2.9,2.3-5.3,4-7.2c1.7-2,3.8-3.4,6.2-4.4c2.4-1,5.1-1.5,8.1-1.5c3.6,0,6.8,0.7,9.6,2.2l3.4-5l5.9,3.8
	l-3.9,5.8c1.5,1.9,2.6,4.2,3.5,7c0.8,2.7,1.2,5.9,1.2,9.4c0,3.8-0.5,7.1-1.4,10c-0.9,2.9-2.3,5.3-4,7.2c-1.7,1.9-3.8,3.4-6.2,4.4
	C552.8,326.3,550.1,326.8,547.2,326.8z M537.4,307.2c0,2,0.3,3.8,0.8,5.3l14.3-22.7c-1.4-0.9-3.2-1.3-5.2-1.3c-3.1,0-5.5,1-7.2,3
	c-1.7,2-2.6,4.9-2.6,8.6V307.2z M557,300.1c0-2-0.3-3.8-0.8-5.3l-14.3,22.7c1.4,0.9,3.2,1.3,5.2,1.3c3.1,0,5.5-1,7.2-3
	c1.7-2,2.6-4.9,2.6-8.6V300.1z"/>
<path d="M297.2,384.8c-3.6,0-6.8-0.7-9.6-2.2l-3.4,5l-5.9-3.8l3.9-5.8c-1.5-1.9-2.6-4.2-3.5-7c-0.8-2.7-1.2-5.9-1.2-9.4
	c0-3.8,0.5-7.1,1.4-10c0.9-2.9,2.3-5.3,4-7.2c1.7-2,3.8-3.4,6.2-4.4c2.4-1,5.1-1.5,8.1-1.5c3.6,0,6.8,0.7,9.6,2.2l3.4-5l5.9,3.8
	l-3.9,5.8c1.5,1.9,2.6,4.2,3.5,7c0.8,2.7,1.2,5.9,1.2,9.4c0,3.8-0.5,7.1-1.4,10c-0.9,2.9-2.3,5.3-4,7.2c-1.7,1.9-3.8,3.4-6.2,4.4
	C302.8,384.3,300.1,384.8,297.2,384.8z M287.4,365.2c0,2,0.3,3.8,0.8,5.3l14.3-22.7c-1.4-0.9-3.2-1.3-5.2-1.3c-3.1,0-5.5,1-7.2,3
	c-1.7,2-2.6,4.9-2.6,8.6V365.2z M307,358.1c0-2-0.3-3.8-0.8-5.3l-14.3,22.7c1.4,0.9,3.2,1.3,5.2,1.3c3.1,0,5.5-1,7.2-3
	c1.7-2,2.6-4.9,2.6-8.6V358.1z"/>
<path d="M547.2,384.8c-3.6,0-6.8-0.7-9.6-2.2l-3.4,5l-5.9-3.8l3.9-5.8c-1.5-1.9-2.6-4.2-3.5-7c-0.8-2.7-1.2-5.9-1.2-9.4
	c0-3.8,0.5-7.1,1.4-10c0.9-2.9,2.3-5.3,4-7.2c1.7-2,3.8-3.4,6.2-4.4c2.4-1,5.1-1.5,8.1-1.5c3.6,0,6.8,0.7,9.6,2.2l3.4-5l5.9,3.8
	l-3.9,5.8c1.5,1.9,2.6,4.2,3.5,7c0.8,2.7,1.2,5.9,1.2,9.4c0,3.8-0.5,7.1-1.4,10c-0.9,2.9-2.3,5.3-4,7.2c-1.7,1.9-3.8,3.4-6.2,4.4
	C552.8,384.3,550.1,384.8,547.2,384.8z M537.4,365.2c0,2,0.3,3.8,0.8,5.3l14.3-22.7c-1.4-0.9-3.2-1.3-5.2-1.3c-3.1,0-5.5,1-7.2,3
	c-1.7,2-2.6,4.9-2.6,8.6V365.2z M557,358.1c0-2-0.3-3.8-0.8-5.3l-14.3,22.7c1.4,0.9,3.2,1.3,5.2,1.3c3.1,0,5.5-1,7.2-3
	c1.7-2,2.6-4.9,2.6-8.6V358.1z"/>
<path d="M297.2,442.8c-3.6,0-6.8-0.7-9.6-2.2l-3.4,5l-5.9-3.8l3.9-5.8c-1.5-1.9-2.6-4.2-3.5-7c-0.8-2.7-1.2-5.9-1.2-9.4
	c0-3.8,0.5-7.1,1.4-10c0.9-2.9,2.3-5.3,4-7.2c1.7-2,3.8-3.4,6.2-4.4c2.4-1,5.1-1.5,8.1-1.5c3.6,0,6.8,0.7,9.6,2.2l3.4-5l5.9,3.8
	l-3.9,5.8c1.5,1.9,2.6,4.2,3.5,7c0.8,2.7,1.2,5.9,1.2,9.4c0,3.8-0.5,7.1-1.4,10c-0.9,2.9-2.3,5.3-4,7.2c-1.7,1.9-3.8,3.4-6.2,4.4
	C302.8,442.3,300.1,442.8,297.2,442.8z M287.4,423.2c0,2,0.3,3.8,0.8,5.3l14.3-22.7c-1.4-0.9-3.2-1.3-5.2-1.3c-3.1,0-5.5,1-7.2,3
	c-1.7,2-2.6,4.9-2.6,8.6V423.2z M307,416.1c0-2-0.3-3.8-0.8-5.3l-14.3,22.7c1.4,0.9,3.2,1.3,5.2,1.3c3.1,0,5.5-1,7.2-3
	c1.7-2,2.6-4.9,2.6-8.6V416.1z"/>
<path d="M547.2,442.8c-3.6,0-6.8-0.7-9.6-2.2l-3.4,5l-5.9-3.8l3.9-5.8c-1.5-1.9-2.6-4.2-3.5-7c-0.8-2.7-1.2-5.9-1.2-9.4
	c0-3.8,0.5-7.1,1.4-10c0.9-2.9,2.3-5.3,4-7.2c1.7-2,3.8-3.4,6.2-4.4c2.4-1,5.1-1.5,8.1-1.5c3.6,0,6.8,0.7,9.6,2.2l3.4-5l5.9,3.8
	l-3.9,5.8c1.5,1.9,2.6,4.2,3.5,7c0.8,2.7,1.2,5.9,1.2,9.4c0,3.8-0.5,7.1-1.4,10c-0.9,2.9-2.3,5.3-4,7.2c-1.7,1.9-3.8,3.4-6.2,4.4
	C552.8,442.3,550.1,442.8,547.2,442.8z M537.4,423.2c0,2,0.3,3.8,0.8,5.3l14.3-22.7c-1.4-0.9-3.2-1.3-5.2-1.3c-3.1,0-5.5,1-7.2,3
	c-1.7,2-2.6,4.9-2.6,8.6V423.2z M557,416.1c0-2-0.3-3.8-0.8-5.3l-14.3,22.7c1.4,0.9,3.2,1.3,5.2,1.3c3.1,0,5.5-1,7.2-3
	c1.7-2,2.6-4.9,2.6-8.6V416.1z"/>
<path d="M297.2,500.8c-3.6,0-6.8-0.7-9.6-2.2l-3.4,5l-5.9-3.8l3.9-5.8c-1.5-1.9-2.6-4.2-3.5-7c-0.8-2.7-1.2-5.9-1.2-9.4
	c0-3.8,0.5-7.1,1.4-10c0.9-2.9,2.3-5.3,4-7.2c1.7-2,3.8-3.4,6.2-4.4c2.4-1,5.1-1.5,8.1-1.5c3.6,0,6.8,0.7,9.6,2.2l3.4-5l5.9,3.8
	l-3.9,5.8c1.5,1.9,2.6,4.2,3.5,7c0.8,2.7,1.2,5.9,1.2,9.4c0,3.8-0.5,7.1-1.4,10c-0.9,2.9-2.3,5.3-4,7.2c-1.7,1.9-3.8,3.4-6.2,4.4
	C302.8,500.3,300.1,500.8,297.2,500.8z M287.4,481.2c0,2,0.3,3.8,0.8,5.3l14.3-22.7c-1.4-0.9-3.2-1.3-5.2-1.3c-3.1,0-5.5,1-7.2,3
	c-1.7,2-2.6,4.9-2.6,8.6V481.2z M307,474.1c0-2-0.3-3.8-0.8-5.3l-14.3,22.7c1.4,0.9,3.2,1.3,5.2,1.3c3.1,0,5.5-1,7.2-3
	c1.7-2,2.6-4.9,2.6-8.6V474.1z"/>
<path d="M547.2,500.8c-3.6,0-6.8-0.7-9.6-2.2l-3.4,5l-5.9-3.8l3.9-5.8c-1.5-1.9-2.6-4.2-3.5-7c-0.8-2.7-1.2-5.9-1.2-9.4
	c0-3.8,0.5-7.1,1.4-10c0.9-2.9,2.3-5.3,4-7.2c1.7-2,3.8-3.4,6.2-4.4c2.4-1,5.1-1.5,8.1-1.5c3.6,0,6.8,0.7,9.6,2.2l3.4-5l5.9,3.8
	l-3.9,5.8c1.5,1.9,2.6,4.2,3.5,7c0.8,2.7,1.2,5.9,1.2,9.4c0,3.8-0.5,7.1-1.4,10c-0.9,2.9-2.3,5.3-4,7.2c-1.7,1.9-3.8,3.4-6.2,4.4
	C552.8,500.3,550.1,500.8,547.2,500.8z M537.4,481.2c0,2,0.3,3.8,0.8,5.3l14.3-22.7c-1.4-0.9-3.2-1.3-5.2-1.3c-3.1,0-5.5,1-7.2,3
	c-1.7,2-2.6,4.9-2.6,8.6V481.2z M557,474.1c0-2-0.3-3.8-0.8-5.3l-14.3,22.7c1.4,0.9,3.2,1.3,5.2,1.3c3.1,0,5.5-1,7.2-3
	c1.7-2,2.6-4.9,2.6-8.6V474.1z"/>
<path d="M343.2,268.8c-3.6,0-6.8-0.7-9.6-2.2l-3.4,5l-5.9-3.8l3.9-5.8c-1.5-1.9-2.6-4.2-3.5-7c-0.8-2.7-1.2-5.9-1.2-9.4
	c0-3.8,0.5-7.1,1.4-10c0.9-2.9,2.3-5.3,4-7.2c1.7-2,3.8-3.4,6.2-4.4s5.1-1.5,8.1-1.5c3.6,0,6.8,0.7,9.6,2.2l3.4-5l5.9,3.8l-3.9,5.8
	c1.5,1.9,2.6,4.2,3.5,7c0.8,2.7,1.2,5.9,1.2,9.4c0,3.8-0.5,7.1-1.4,10c-0.9,2.9-2.3,5.3-4,7.2c-1.7,1.9-3.8,3.4-6.2,4.4
	C348.8,268.3,346.1,268.8,343.2,268.8z M333.4,249.2c0,2,0.3,3.8,0.8,5.3l14.3-22.7c-1.4-0.9-3.2-1.3-5.2-1.3c-3.1,0-5.5,1-7.2,3
	c-1.7,2-2.6,4.9-2.6,8.6V249.2z M353,242.1c0-2-0.3-3.8-0.8-5.3l-14.3,22.7c1.4,0.9,3.2,1.3,5.2,1.3c3.1,0,5.5-1,7.2-3
	c1.7-2,2.6-4.9,2.6-8.6V242.1z"/>
<path d="M593.2,268.8c-3.6,0-6.8-0.7-9.6-2.2l-3.4,5l-5.9-3.8l3.9-5.8c-1.5-1.9-2.6-4.2-3.5-7c-0.8-2.7-1.2-5.9-1.2-9.4
	c0-3.8,0.5-7.1,1.4-10c0.9-2.9,2.3-5.3,4-7.2c1.7-2,3.8-3.4,6.2-4.4c2.4-1,5.1-1.5,8.1-1.5c3.6,0,6.8,0.7,9.6,2.2l3.4-5l5.9,3.8
	l-3.9,5.8c1.5,1.9,2.6,4.2,3.5,7c0.8,2.7,1.2,5.9,1.2,9.4c0,3.8-0.5,7.1-1.4,10c-0.9,2.9-2.3,5.3-4,7.2c-1.7,1.9-3.8,3.4-6.2,4.4
	C598.8,268.3,596.1,268.8,593.2,268.8z M583.4,249.2c0,2,0.3,3.8,0.8,5.3l14.3-22.7c-1.4-0.9-3.2-1.3-5.2-1.3c-3.1,0-5.5,1-7.2,3
	c-1.7,2-2.6,4.9-2.6,8.6V249.2z M603,242.1c0-2-0.3-3.8-0.8-5.3l-14.3,22.7c1.4,0.9,3.2,1.3,5.2,1.3c3.1,0,5.5-1,7.2-3
	c1.7-2,2.6-4.9,2.6-8.6V242.1z"/>
<path d="M343.2,326.8c-3.6,0-6.8-0.7-9.6-2.2l-3.4,5l-5.9-3.8l3.9-5.8c-1.5-1.9-2.6-4.2-3.5-7c-0.8-2.7-1.2-5.9-1.2-9.4
	c0-3.8,0.5-7.1,1.4-10c0.9-2.9,2.3-5.3,4-7.2c1.7-2,3.8-3.4,6.2-4.4c2.4-1,5.1-1.5,8.1-1.5c3.6,0,6.8,0.7,9.6,2.2l3.4-5l5.9,3.8
	l-3.9,5.8c1.5,1.9,2.6,4.2,3.5,7c0.8,2.7,1.2,5.9,1.2,9.4c0,3.8-0.5,7.1-1.4,10c-0.9,2.9-2.3,5.3-4,7.2c-1.7,1.9-3.8,3.4-6.2,4.4
	C348.8,326.3,346.1,326.8,343.2,326.8z M333.4,307.2c0,2,0.3,3.8,0.8,5.3l14.3-22.7c-1.4-0.9-3.2-1.3-5.2-1.3c-3.1,0-5.5,1-7.2,3
	c-1.7,2-2.6,4.9-2.6,8.6V307.2z M353,300.1c0-2-0.3-3.8-0.8-5.3l-14.3,22.7c1.4,0.9,3.2,1.3,5.2,1.3c3.1,0,5.5-1,7.2-3
	c1.7-2,2.6-4.9,2.6-8.6V300.1z"/>
<path d="M593.2,326.8c-3.6,0-6.8-0.7-9.6-2.2l-3.4,5l-5.9-3.8l3.9-5.8c-1.5-1.9-2.6-4.2-3.5-7c-0.8-2.7-1.2-5.9-1.2-9.4
	c0-3.8,0.5-7.1,1.4-10c0.9-2.9,2.3-5.3,4-7.2c1.7-2,3.8-3.4,6.2-4.4c2.4-1,5.1-1.5,8.1-1.5c3.6,0,6.8,0.7,9.6,2.2l3.4-5l5.9,3.8
	l-3.9,5.8c1.5,1.9,2.6,4.2,3.5,7c0.8,2.7,1.2,5.9,1.2,9.4c0,3.8-0.5,7.1-1.4,10c-0.9,2.9-2.3,5.3-4,7.2c-1.7,1.9-3.8,3.4-6.2,4.4
	C598.8,326.3,596.1,326.8,593.2,326.8z M583.4,307.2c0,2,0.3,3.8,0.8,5.3l14.3-22.7c-1.4-0.9-3.2-1.3-5.2-1.3c-3.1,0-5.5,1-7.2,3
	c-1.7,2-2.6,4.9-2.6,8.6V307.2z M603,300.1c0-2-0.3-3.8-0.8-5.3l-14.3,22.7c1.4,0.9,3.2,1.3,5.2,1.3c3.1,0,5.5-1,7.2-3
	c1.7-2,2.6-4.9,2.6-8.6V300.1z"/>
<path d="M343.2,384.8c-3.6,0-6.8-0.7-9.6-2.2l-3.4,5l-5.9-3.8l3.9-5.8c-1.5-1.9-2.6-4.2-3.5-7c-0.8-2.7-1.2-5.9-1.2-9.4
	c0-3.8,0.5-7.1,1.4-10c0.9-2.9,2.3-5.3,4-7.2c1.7-2,3.8-3.4,6.2-4.4c2.4-1,5.1-1.5,8.1-1.5c3.6,0,6.8,0.7,9.6,2.2l3.4-5l5.9,3.8
	l-3.9,5.8c1.5,1.9,2.6,4.2,3.5,7c0.8,2.7,1.2,5.9,1.2,9.4c0,3.8-0.5,7.1-1.4,10c-0.9,2.9-2.3,5.3-4,7.2c-1.7,1.9-3.8,3.4-6.2,4.4
	C348.8,384.3,346.1,384.8,343.2,384.8z M333.4,365.2c0,2,0.3,3.8,0.8,5.3l14.3-22.7c-1.4-0.9-3.2-1.3-5.2-1.3c-3.1,0-5.5,1-7.2,3
	c-1.7,2-2.6,4.9-2.6,8.6V365.2z M353,358.1c0-2-0.3-3.8-0.8-5.3l-14.3,22.7c1.4,0.9,3.2,1.3,5.2,1.3c3.1,0,5.5-1,7.2-3
	c1.7-2,2.6-4.9,2.6-8.6V358.1z"/>
<path d="M593.2,384.8c-3.6,0-6.8-0.7-9.6-2.2l-3.4,5l-5.9-3.8l3.9-5.8c-1.5-1.9-2.6-4.2-3.5-7c-0.8-2.7-1.2-5.9-1.2-9.4
	c0-3.8,0.5-7.1,1.4-10c0.9-2.9,2.3-5.3,4-7.2c1.7-2,3.8-3.4,6.2-4.4c2.4-1,5.1-1.5,8.1-1.5c3.6,0,6.8,0.7,9.6,2.2l3.4-5l5.9,3.8
	l-3.9,5.8c1.5,1.9,2.6,4.2,3.5,7c0.8,2.7,1.2,5.9,1.2,9.4c0,3.8-0.5,7.1-1.4,10c-0.9,2.9-2.3,5.3-4,7.2c-1.7,1.9-3.8,3.4-6.2,4.4
	C598.8,384.3,596.1,384.8,593.2,384.8z M583.4,365.2c0,2,0.3,3.8,0.8,5.3l14.3-22.7c-1.4-0.9-3.2-1.3-5.2-1.3c-3.1,0-5.5,1-7.2,3
	c-1.7,2-2.6,4.9-2.6,8.6V365.2z M603,358.1c0-2-0.3-3.8-0.8-5.3l-14.3,22.7c1.4,0.9,3.2,1.3,5.2,1.3c3.1,0,5.5-1,7.2-3
	c1.7-2,2.6-4.9,2.6-8.6V358.1z"/>
<path d="M343.2,442.8c-3.6,0-6.8-0.7-9.6-2.2l-3.4,5l-5.9-3.8l3.9-5.8c-1.5-1.9-2.6-4.2-3.5-7c-0.8-2.7-1.2-5.9-1.2-9.4
	c0-3.8,0.5-7.1,1.4-10c0.9-2.9,2.3-5.3,4-7.2c1.7-2,3.8-3.4,6.2-4.4c2.4-1,5.1-1.5,8.1-1.5c3.6,0,6.8,0.7,9.6,2.2l3.4-5l5.9,3.8
	l-3.9,5.8c1.5,1.9,2.6,4.2,3.5,7c0.8,2.7,1.2,5.9,1.2,9.4c0,3.8-0.5,7.1-1.4,10c-0.9,2.9-2.3,5.3-4,7.2c-1.7,1.9-3.8,3.4-6.2,4.4
	C348.8,442.3,346.1,442.8,343.2,442.8z M333.4,423.2c0,2,0.3,3.8,0.8,5.3l14.3-22.7c-1.4-0.9-3.2-1.3-5.2-1.3c-3.1,0-5.5,1-7.2,3
	c-1.7,2-2.6,4.9-2.6,8.6V423.2z M353,416.1c0-2-0.3-3.8-0.8-5.3l-14.3,22.7c1.4,0.9,3.2,1.3,5.2,1.3c3.1,0,5.5-1,7.2-3
	c1.7-2,2.6-4.9,2.6-8.6V416.1z"/>
<path d="M593.2,442.8c-3.6,0-6.8-0.7-9.6-2.2l-3.4,5l-5.9-3.8l3.9-5.8c-1.5-1.9-2.6-4.2-3.5-7c-0.8-2.7-1.2-5.9-1.2-9.4
	c0-3.8,0.5-7.1,1.4-10c0.9-2.9,2.3-5.3,4-7.2c1.7-2,3.8-3.4,6.2-4.4c2.4-1,5.1-1.5,8.1-1.5c3.6,0,6.8,0.7,9.6,2.2l3.4-5l5.9,3.8
	l-3.9,5.8c1.5,1.9,2.6,4.2,3.5,7c0.8,2.7,1.2,5.9,1.2,9.4c0,3.8-0.5,7.1-1.4,10c-0.9,2.9-2.3,5.3-4,7.2c-1.7,1.9-3.8,3.4-6.2,4.4
	C598.8,442.3,596.1,442.8,593.2,442.8z M583.4,423.2c0,2,0.3,3.8,0.8,5.3l14.3-22.7c-1.4-0.9-3.2-1.3-5.2-1.3c-3.1,0-5.5,1-7.2,3
	c-1.7,2-2.6,4.9-2.6,8.6V423.2z M603,416.1c0-2-0.3-3.8-0.8-5.3l-14.3,22.7c1.4,0.9,3.2,1.3,5.2,1.3c3.1,0,5.5-1,7.2-3
	c1.7-2,2.6-4.9,2.6-8.6V416.1z"/>
<path d="M343.2,500.8c-3.6,0-6.8-0.7-9.6-2.2l-3.4,5l-5.9-3.8l3.9-5.8c-1.5-1.9-2.6-4.2-3.5-7c-0.8-2.7-1.2-5.9-1.2-9.4
	c0-3.8,0.5-7.1,1.4-10c0.9-2.9,2.3-5.3,4-7.2c1.7-2,3.8-3.4,6.2-4.4c2.4-1,5.1-1.5,8.1-1.5c3.6,0,6.8,0.7,9.6,2.2l3.4-5l5.9,3.8
	l-3.9,5.8c1.5,1.9,2.6,4.2,3.5,7c0.8,2.7,1.2,5.9,1.2,9.4c0,3.8-0.5,7.1-1.4,10c-0.9,2.9-2.3,5.3-4,7.2c-1.7,1.9-3.8,3.4-6.2,4.4
	C348.8,500.3,346.1,500.8,343.2,500.8z M333.4,481.2c0,2,0.3,3.8,0.8,5.3l14.3-22.7c-1.4-0.9-3.2-1.3-5.2-1.3c-3.1,0-5.5,1-7.2,3
	c-1.7,2-2.6,4.9-2.6,8.6V481.2z M353,474.1c0-2-0.3-3.8-0.8-5.3l-14.3,22.7c1.4,0.9,3.2,1.3,5.2,1.3c3.1,0,5.5-1,7.2-3
	c1.7-2,2.6-4.9,2.6-8.6V474.1z"/>
<path d="M593.2,500.8c-3.6,0-6.8-0.7-9.6-2.2l-3.4,5l-5.9-3.8l3.9-5.8c-1.5-1.9-2.6-4.2-3.5-7c-0.8-2.7-1.2-5.9-1.2-9.4
	c0-3.8,0.5-7.1,1.4-10c0.9-2.9,2.3-5.3,4-7.2c1.7-2,3.8-3.4,6.2-4.4c2.4-1,5.1-1.5,8.1-1.5c3.6,0,6.8,0.7,9.6,2.2l3.4-5l5.9,3.8
	l-3.9,5.8c1.5,1.9,2.6,4.2,3.5,7c0.8,2.7,1.2,5.9,1.2,9.4c0,3.8-0.5,7.1-1.4,10c-0.9,2.9-2.3,5.3-4,7.2c-1.7,1.9-3.8,3.4-6.2,4.4
	C598.8,500.3,596.1,500.8,593.2,500.8z M583.4,481.2c0,2,0.3,3.8,0.8,5.3l14.3-22.7c-1.4-0.9-3.2-1.3-5.2-1.3c-3.1,0-5.5,1-7.2,3
	c-1.7,2-2.6,4.9-2.6,8.6V481.2z M603,474.1c0-2-0.3-3.8-0.8-5.3l-14.3,22.7c1.4,0.9,3.2,1.3,5.2,1.3c3.1,0,5.5-1,7.2-3
	c1.7-2,2.6-4.9,2.6-8.6V474.1z"/>
<path d="M389.2,268.8c-3.6,0-6.8-0.7-9.6-2.2l-3.4,5l-5.9-3.8l3.9-5.8c-1.5-1.9-2.6-4.2-3.5-7c-0.8-2.7-1.2-5.9-1.2-9.4
	c0-3.8,0.5-7.1,1.4-10c0.9-2.9,2.3-5.3,4-7.2c1.7-2,3.8-3.4,6.2-4.4s5.1-1.5,8.1-1.5c3.6,0,6.8,0.7,9.6,2.2l3.4-5l5.9,3.8l-3.9,5.8
	c1.5,1.9,2.6,4.2,3.5,7c0.8,2.7,1.2,5.9,1.2,9.4c0,3.8-0.5,7.1-1.4,10c-0.9,2.9-2.3,5.3-4,7.2c-1.7,1.9-3.8,3.4-6.2,4.4
	C394.8,268.3,392.1,268.8,389.2,268.8z M379.4,249.2c0,2,0.3,3.8,0.8,5.3l14.3-22.7c-1.4-0.9-3.2-1.3-5.2-1.3c-3.1,0-5.5,1-7.2,3
	c-1.7,2-2.6,4.9-2.6,8.6V249.2z M399,242.1c0-2-0.3-3.8-0.8-5.3l-14.3,22.7c1.4,0.9,3.2,1.3,5.2,1.3c3.1,0,5.5-1,7.2-3
	c1.7-2,2.6-4.9,2.6-8.6V242.1z"/>
<path d="M639.2,268.8c-3.6,0-6.8-0.7-9.6-2.2l-3.4,5l-5.9-3.8l3.9-5.8c-1.5-1.9-2.6-4.2-3.5-7c-0.8-2.7-1.2-5.9-1.2-9.4
	c0-3.8,0.5-7.1,1.4-10c0.9-2.9,2.3-5.3,4-7.2c1.7-2,3.8-3.4,6.2-4.4c2.4-1,5.1-1.5,8.1-1.5c3.6,0,6.8,0.7,9.6,2.2l3.4-5l5.9,3.8
	l-3.9,5.8c1.5,1.9,2.6,4.2,3.5,7c0.8,2.7,1.2,5.9,1.2,9.4c0,3.8-0.5,7.1-1.4,10c-0.9,2.9-2.3,5.3-4,7.2c-1.7,1.9-3.8,3.4-6.2,4.4
	C644.8,268.3,642.1,268.8,639.2,268.8z M629.4,249.2c0,2,0.3,3.8,0.8,5.3l14.3-22.7c-1.4-0.9-3.2-1.3-5.2-1.3c-3.1,0-5.5,1-7.2,3
	c-1.7,2-2.6,4.9-2.6,8.6V249.2z M649,242.1c0-2-0.3-3.8-0.8-5.3l-14.3,22.7c1.4,0.9,3.2,1.3,5.2,1.3c3.1,0,5.5-1,7.2-3
	c1.7-2,2.6-4.9,2.6-8.6V242.1z"/>
<path d="M389.2,326.8c-3.6,0-6.8-0.7-9.6-2.2l-3.4,5l-5.9-3.8l3.9-5.8c-1.5-1.9-2.6-4.2-3.5-7c-0.8-2.7-1.2-5.9-1.2-9.4
	c0-3.8,0.5-7.1,1.4-10c0.9-2.9,2.3-5.3,4-7.2c1.7-2,3.8-3.4,6.2-4.4c2.4-1,5.1-1.5,8.1-1.5c3.6,0,6.8,0.7,9.6,2.2l3.4-5l5.9,3.8
	l-3.9,5.8c1.5,1.9,2.6,4.2,3.5,7c0.8,2.7,1.2,5.9,1.2,9.4c0,3.8-0.5,7.1-1.4,10c-0.9,2.9-2.3,5.3-4,7.2c-1.7,1.9-3.8,3.4-6.2,4.4
	C394.8,326.3,392.1,326.8,389.2,326.8z M379.4,307.2c0,2,0.3,3.8,0.8,5.3l14.3-22.7c-1.4-0.9-3.2-1.3-5.2-1.3c-3.1,0-5.5,1-7.2,3
	c-1.7,2-2.6,4.9-2.6,8.6V307.2z M399,300.1c0-2-0.3-3.8-0.8-5.3l-14.3,22.7c1.4,0.9,3.2,1.3,5.2,1.3c3.1,0,5.5-1,7.2-3
	c1.7-2,2.6-4.9,2.6-8.6V300.1z"/>
<path d="M639.2,326.8c-3.6,0-6.8-0.7-9.6-2.2l-3.4,5l-5.9-3.8l3.9-5.8c-1.5-1.9-2.6-4.2-3.5-7c-0.8-2.7-1.2-5.9-1.2-9.4
	c0-3.8,0.5-7.1,1.4-10c0.9-2.9,2.3-5.3,4-7.2c1.7-2,3.8-3.4,6.2-4.4c2.4-1,5.1-1.5,8.1-1.5c3.6,0,6.8,0.7,9.6,2.2l3.4-5l5.9,3.8
	l-3.9,5.8c1.5,1.9,2.6,4.2,3.5,7c0.8,2.7,1.2,5.9,1.2,9.4c0,3.8-0.5,7.1-1.4,10c-0.9,2.9-2.3,5.3-4,7.2c-1.7,1.9-3.8,3.4-6.2,4.4
	C644.8,326.3,642.1,326.8,639.2,326.8z M629.4,307.2c0,2,0.3,3.8,0.8,5.3l14.3-22.7c-1.4-0.9-3.2-1.3-5.2-1.3c-3.1,0-5.5,1-7.2,3
	c-1.7,2-2.6,4.9-2.6,8.6V307.2z M649,300.1c0-2-0.3-3.8-0.8-5.3l-14.3,22.7c1.4,0.9,3.2,1.3,5.2,1.3c3.1,0,5.5-1,7.2-3
	c1.7-2,2.6-4.9,2.6-8.6V300.1z"/>
<path d="M389.2,384.8c-3.6,0-6.8-0.7-9.6-2.2l-3.4,5l-5.9-3.8l3.9-5.8c-1.5-1.9-2.6-4.2-3.5-7c-0.8-2.7-1.2-5.9-1.2-9.4
	c0-3.8,0.5-7.1,1.4-10c0.9-2.9,2.3-5.3,4-7.2c1.7-2,3.8-3.4,6.2-4.4c2.4-1,5.1-1.5,8.1-1.5c3.6,0,6.8,0.7,9.6,2.2l3.4-5l5.9,3.8
	l-3.9,5.8c1.5,1.9,2.6,4.2,3.5,7c0.8,2.7,1.2,5.9,1.2,9.4c0,3.8-0.5,7.1-1.4,10c-0.9,2.9-2.3,5.3-4,7.2c-1.7,1.9-3.8,3.4-6.2,4.4
	C394.8,384.3,392.1,384.8,389.2,384.8z M379.4,365.2c0,2,0.3,3.8,0.8,5.3l14.3-22.7c-1.4-0.9-3.2-1.3-5.2-1.3c-3.1,0-5.5,1-7.2,3
	c-1.7,2-2.6,4.9-2.6,8.6V365.2z M399,358.1c0-2-0.3-3.8-0.8-5.3l-14.3,22.7c1.4,0.9,3.2,1.3,5.2,1.3c3.1,0,5.5-1,7.2-3
	c1.7-2,2.6-4.9,2.6-8.6V358.1z"/>
<path d="M639.2,384.8c-3.6,0-6.8-0.7-9.6-2.2l-3.4,5l-5.9-3.8l3.9-5.8c-1.5-1.9-2.6-4.2-3.5-7c-0.8-2.7-1.2-5.9-1.2-9.4
	c0-3.8,0.5-7.1,1.4-10c0.9-2.9,2.3-5.3,4-7.2c1.7-2,3.8-3.4,6.2-4.4c2.4-1,5.1-1.5,8.1-1.5c3.6,0,6.8,0.7,9.6,2.2l3.4-5l5.9,3.8
	l-3.9,5.8c1.5,1.9,2.6,4.2,3.5,7c0.8,2.7,1.2,5.9,1.2,9.4c0,3.8-0.5,7.1-1.4,10c-0.9,2.9-2.3,5.3-4,7.2c-1.7,1.9-3.8,3.4-6.2,4.4
	C644.8,384.3,642.1,384.8,639.2,384.8z M629.4,365.2c0,2,0.3,3.8,0.8,5.3l14.3-22.7c-1.4-0.9-3.2-1.3-5.2-1.3c-3.1,0-5.5,1-7.2,3
	c-1.7,2-2.6,4.9-2.6,8.6V365.2z M649,358.1c0-2-0.3-3.8-0.8-5.3l-14.3,22.7c1.4,0.9,3.2,1.3,5.2,1.3c3.1,0,5.5-1,7.2-3
	c1.7-2,2.6-4.9,2.6-8.6V358.1z"/>
<path d="M389.2,442.8c-3.6,0-6.8-0.7-9.6-2.2l-3.4,5l-5.9-3.8l3.9-5.8c-1.5-1.9-2.6-4.2-3.5-7c-0.8-2.7-1.2-5.9-1.2-9.4
	c0-3.8,0.5-7.1,1.4-10c0.9-2.9,2.3-5.3,4-7.2c1.7-2,3.8-3.4,6.2-4.4c2.4-1,5.1-1.5,8.1-1.5c3.6,0,6.8,0.7,9.6,2.2l3.4-5l5.9,3.8
	l-3.9,5.8c1.5,1.9,2.6,4.2,3.5,7c0.8,2.7,1.2,5.9,1.2,9.4c0,3.8-0.5,7.1-1.4,10c-0.9,2.9-2.3,5.3-4,7.2c-1.7,1.9-3.8,3.4-6.2,4.4
	C394.8,442.3,392.1,442.8,389.2,442.8z M379.4,423.2c0,2,0.3,3.8,0.8,5.3l14.3-22.7c-1.4-0.9-3.2-1.3-5.2-1.3c-3.1,0-5.5,1-7.2,3
	c-1.7,2-2.6,4.9-2.6,8.6V423.2z M399,416.1c0-2-0.3-3.8-0.8-5.3l-14.3,22.7c1.4,0.9,3.2,1.3,5.2,1.3c3.1,0,5.5-1,7.2-3
	c1.7-2,2.6-4.9,2.6-8.6V416.1z"/>
<path d="M639.2,442.8c-3.6,0-6.8-0.7-9.6-2.2l-3.4,5l-5.9-3.8l3.9-5.8c-1.5-1.9-2.6-4.2-3.5-7c-0.8-2.7-1.2-5.9-1.2-9.4
	c0-3.8,0.5-7.1,1.4-10c0.9-2.9,2.3-5.3,4-7.2c1.7-2,3.8-3.4,6.2-4.4c2.4-1,5.1-1.5,8.1-1.5c3.6,0,6.8,0.7,9.6,2.2l3.4-5l5.9,3.8
	l-3.9,5.8c1.5,1.9,2.6,4.2,3.5,7c0.8,2.7,1.2,5.9,1.2,9.4c0,3.8-0.5,7.1-1.4,10c-0.9,2.9-2.3,5.3-4,7.2c-1.7,1.9-3.8,3.4-6.2,4.4
	C644.8,442.3,642.1,442.8,639.2,442.8z M629.4,423.2c0,2,0.3,3.8,0.8,5.3l14.3-22.7c-1.4-0.9-3.2-1.3-5.2-1.3c-3.1,0-5.5,1-7.2,3
	c-1.7,2-2.6,4.9-2.6,8.6V423.2z M649,416.1c0-2-0.3-3.8-0.8-5.3l-14.3,22.7c1.4,0.9,3.2,1.3,5.2,1.3c3.1,0,5.5-1,7.2-3
	c1.7-2,2.6-4.9,2.6-8.6V416.1z"/>
<path d="M389.2,500.8c-3.6,0-6.8-0.7-9.6-2.2l-3.4,5l-5.9-3.8l3.9-5.8c-1.5-1.9-2.6-4.2-3.5-7c-0.8-2.7-1.2-5.9-1.2-9.4
	c0-3.8,0.5-7.1,1.4-10c0.9-2.9,2.3-5.3,4-7.2c1.7-2,3.8-3.4,6.2-4.4c2.4-1,5.1-1.5,8.1-1.5c3.6,0,6.8,0.7,9.6,2.2l3.4-5l5.9,3.8
	l-3.9,5.8c1.5,1.9,2.6,4.2,3.5,7c0.8,2.7,1.2,5.9,1.2,9.4c0,3.8-0.5,7.1-1.4,10c-0.9,2.9-2.3,5.3-4,7.2c-1.7,1.9-3.8,3.4-6.2,4.4
	C394.8,500.3,392.1,500.8,389.2,500.8z M379.4,481.2c0,2,0.3,3.8,0.8,5.3l14.3-22.7c-1.4-0.9-3.2-1.3-5.2-1.3c-3.1,0-5.5,1-7.2,3
	c-1.7,2-2.6,4.9-2.6,8.6V481.2z M399,474.1c0-2-0.3-3.8-0.8-5.3l-14.3,22.7c1.4,0.9,3.2,1.3,5.2,1.3c3.1,0,5.5-1,7.2-3
	c1.7-2,2.6-4.9,2.6-8.6V474.1z"/>
<path d="M639.2,500.8c-3.6,0-6.8-0.7-9.6-2.2l-3.4,5l-5.9-3.8l3.9-5.8c-1.5-1.9-2.6-4.2-3.5-7c-0.8-2.7-1.2-5.9-1.2-9.4
	c0-3.8,0.5-7.1,1.4-10c0.9-2.9,2.3-5.3,4-7.2c1.7-2,3.8-3.4,6.2-4.4c2.4-1,5.1-1.5,8.1-1.5c3.6,0,6.8,0.7,9.6,2.2l3.4-5l5.9,3.8
	l-3.9,5.8c1.5,1.9,2.6,4.2,3.5,7c0.8,2.7,1.2,5.9,1.2,9.4c0,3.8-0.5,7.1-1.4,10c-0.9,2.9-2.3,5.3-4,7.2c-1.7,1.9-3.8,3.4-6.2,4.4
	C644.8,500.3,642.1,500.8,639.2,500.8z M629.4,481.2c0,2,0.3,3.8,0.8,5.3l14.3-22.7c-1.4-0.9-3.2-1.3-5.2-1.3c-3.1,0-5.5,1-7.2,3
	c-1.7,2-2.6,4.9-2.6,8.6V481.2z M649,474.1c0-2-0.3-3.8-0.8-5.3l-14.3,22.7c1.4,0.9,3.2,1.3,5.2,1.3c3.1,0,5.5-1,7.2-3
	c1.7-2,2.6-4.9,2.6-8.6V474.1z"/>
<path d="M435.2,268.8c-3.6,0-6.8-0.7-9.6-2.2l-3.4,5l-5.9-3.8l3.9-5.8c-1.5-1.9-2.6-4.2-3.5-7c-0.8-2.7-1.2-5.9-1.2-9.4
	c0-3.8,0.5-7.1,1.4-10c0.9-2.9,2.3-5.3,4-7.2c1.7-2,3.8-3.4,6.2-4.4c2.4-1,5.1-1.5,8.1-1.5c3.6,0,6.8,0.7,9.6,2.2l3.4-5l5.9,3.8
	l-3.9,5.8c1.5,1.9,2.6,4.2,3.5,7c0.8,2.7,1.2,5.9,1.2,9.4c0,3.8-0.5,7.1-1.4,10c-0.9,2.9-2.3,5.3-4,7.2c-1.7,1.9-3.8,3.4-6.2,4.4
	C440.8,268.3,438.1,268.8,435.2,268.8z M425.4,249.2c0,2,0.3,3.8,0.8,5.3l14.3-22.7c-1.4-0.9-3.2-1.3-5.2-1.3c-3.1,0-5.5,1-7.2,3
	c-1.7,2-2.6,4.9-2.6,8.6V249.2z M445,242.1c0-2-0.3-3.8-0.8-5.3l-14.3,22.7c1.4,0.9,3.2,1.3,5.2,1.3c3.1,0,5.5-1,7.2-3
	c1.7-2,2.6-4.9,2.6-8.6V242.1z"/>
<path d="M685.2,268.8c-3.6,0-6.8-0.7-9.6-2.2l-3.4,5l-5.9-3.8l3.9-5.8c-1.5-1.9-2.6-4.2-3.5-7c-0.8-2.7-1.2-5.9-1.2-9.4
	c0-3.8,0.5-7.1,1.4-10c0.9-2.9,2.3-5.3,4-7.2c1.7-2,3.8-3.4,6.2-4.4c2.4-1,5.1-1.5,8.1-1.5c3.6,0,6.8,0.7,9.6,2.2l3.4-5l5.9,3.8
	l-3.9,5.8c1.5,1.9,2.6,4.2,3.5,7c0.8,2.7,1.2,5.9,1.2,9.4c0,3.8-0.5,7.1-1.4,10c-0.9,2.9-2.3,5.3-4,7.2c-1.7,1.9-3.8,3.4-6.2,4.4
	C690.8,268.3,688.1,268.8,685.2,268.8z M675.4,249.2c0,2,0.3,3.8,0.8,5.3l14.3-22.7c-1.4-0.9-3.2-1.3-5.2-1.3c-3.1,0-5.5,1-7.2,3
	c-1.7,2-2.6,4.9-2.6,8.6V249.2z M695,242.1c0-2-0.3-3.8-0.8-5.3l-14.3,22.7c1.4,0.9,3.2,1.3,5.2,1.3c3.1,0,5.5-1,7.2-3
	c1.7-2,2.6-4.9,2.6-8.6V242.1z"/>
<path d="M744.4,219.4v57.5h-13.2v-6.7h4.5V226h-4.5v-6.7H744.4z M761.7,219.4v57.5h-13.2v-6.7h4.5V226h-4.5v-6.7H761.7z
	 M778.9,219.4v57.5h-13.2v-6.7h4.5V226h-4.5v-6.7H778.9z M796.1,219.4v57.5h-13.2v-6.7h4.5V226h-4.5v-6.7H796.1z M813.3,219.4v57.5
	h-13.2v-6.7h4.5V226h-4.5v-6.7H813.3z M830.5,219.4v57.5h-13.2v-6.7h4.5V226h-4.5v-6.7H830.5z M847.7,219.4v57.5h-13.2v-6.7h4.5V226
	h-4.5v-6.7H847.7z M865,219.4v57.5h-13.2v-6.7h4.5V226h-4.5v-6.7H865z M882.2,219.4v57.5h-13.2v-6.7h4.5V226h-4.5v-6.7H882.2z"/>
<path d="M918.4,219.4v57.5h-13.2v-6.7h4.5V226h-4.5v-6.7H918.4z M935.7,219.4v57.5h-13.2v-6.7h4.5V226h-4.5v-6.7H935.7z
	 M952.9,219.4v57.5h-13.2v-6.7h4.5V226h-4.5v-6.7H952.9z M970.1,219.4v57.5h-13.2v-6.7h4.5V226h-4.5v-6.7H970.1z M987.3,219.4v57.5
	h-13.2v-6.7h4.5V226h-4.5v-6.7H987.3z M1004.5,219.4v57.5h-13.2v-6.7h4.5V226h-4.5v-6.7H1004.5z M1021.7,219.4v57.5h-13.2v-6.7h4.5
	V226h-4.5v-6.7H1021.7z M1039,219.4v57.5h-13.2v-6.7h4.5V226h-4.5v-6.7H1039z M1056.2,219.4v57.5h-13.2v-6.7h4.5V226h-4.5v-6.7
	H1056.2z"/>
<path d="M744.4,274.4v57.5h-13.2v-6.7h4.5V281h-4.5v-6.7H744.4z M761.7,274.4v57.5h-13.2v-6.7h4.5V281h-4.5v-6.7H761.7z
	 M778.9,274.4v57.5h-13.2v-6.7h4.5V281h-4.5v-6.7H778.9z M796.1,274.4v57.5h-13.2v-6.7h4.5V281h-4.5v-6.7H796.1z M813.3,274.4v57.5
	h-13.2v-6.7h4.5V281h-4.5v-6.7H813.3z M830.5,274.4v57.5h-13.2v-6.7h4.5V281h-4.5v-6.7H830.5z M847.7,274.4v57.5h-13.2v-6.7h4.5V281
	h-4.5v-6.7H847.7z M865,274.4v57.5h-13.2v-6.7h4.5V281h-4.5v-6.7H865z M882.2,274.4v57.5h-13.2v-6.7h4.5V281h-4.5v-6.7H882.2z"/>
<path d="M918.4,274.4v57.5h-13.2v-6.7h4.5V281h-4.5v-6.7H918.4z M935.7,274.4v57.5h-13.2v-6.7h4.5V281h-4.5v-6.7H935.7z
	 M952.9,274.4v57.5h-13.2v-6.7h4.5V281h-4.5v-6.7H952.9z M970.1,274.4v57.5h-13.2v-6.7h4.5V281h-4.5v-6.7H970.1z M987.3,274.4v57.5
	h-13.2v-6.7h4.5V281h-4.5v-6.7H987.3z M1004.5,274.4v57.5h-13.2v-6.7h4.5V281h-4.5v-6.7H1004.5z M1021.7,274.4v57.5h-13.2v-6.7h4.5
	V281h-4.5v-6.7H1021.7z M1039,274.4v57.5h-13.2v-6.7h4.5V281h-4.5v-6.7H1039z M1056.2,274.4v57.5h-13.2v-6.7h4.5V281h-4.5v-6.7
	H1056.2z"/>
<path d="M744.4,330.4v57.5h-13.2v-6.7h4.5V337h-4.5v-6.7H744.4z M761.7,330.4v57.5h-13.2v-6.7h4.5V337h-4.5v-6.7H761.7z
	 M778.9,330.4v57.5h-13.2v-6.7h4.5V337h-4.5v-6.7H778.9z M796.1,330.4v57.5h-13.2v-6.7h4.5V337h-4.5v-6.7H796.1z M813.3,330.4v57.5
	h-13.2v-6.7h4.5V337h-4.5v-6.7H813.3z M830.5,330.4v57.5h-13.2v-6.7h4.5V337h-4.5v-6.7H830.5z M847.7,330.4v57.5h-13.2v-6.7h4.5V337
	h-4.5v-6.7H847.7z M865,330.4v57.5h-13.2v-6.7h4.5V337h-4.5v-6.7H865z M882.2,330.4v57.5h-13.2v-6.7h4.5V337h-4.5v-6.7H882.2z"/>
<path d="M918.4,330.4v57.5h-13.2v-6.7h4.5V337h-4.5v-6.7H918.4z M935.7,330.4v57.5h-13.2v-6.7h4.5V337h-4.5v-6.7H935.7z
	 M952.9,330.4v57.5h-13.2v-6.7h4.5V337h-4.5v-6.7H952.9z M970.1,330.4v57.5h-13.2v-6.7h4.5V337h-4.5v-6.7H970.1z M987.3,330.4v57.5
	h-13.2v-6.7h4.5V337h-4.5v-6.7H987.3z M1004.5,330.4v57.5h-13.2v-6.7h4.5V337h-4.5v-6.7H1004.5z M1021.7,330.4v57.5h-13.2v-6.7h4.5
	V337h-4.5v-6.7H1021.7z M1039,330.4v57.5h-13.2v-6.7h4.5V337h-4.5v-6.7H1039z M1056.2,330.4v57.5h-13.2v-6.7h4.5V337h-4.5v-6.7
	H1056.2z"/>
<path d="M744.4,386.4v57.5h-13.2v-6.7h4.5V393h-4.5v-6.7H744.4z M761.7,386.4v57.5h-13.2v-6.7h4.5V393h-4.5v-6.7H761.7z
	 M778.9,386.4v57.5h-13.2v-6.7h4.5V393h-4.5v-6.7H778.9z M796.1,386.4v57.5h-13.2v-6.7h4.5V393h-4.5v-6.7H796.1z M813.3,386.4v57.5
	h-13.2v-6.7h4.5V393h-4.5v-6.7H813.3z M830.5,386.4v57.5h-13.2v-6.7h4.5V393h-4.5v-6.7H830.5z M847.7,386.4v57.5h-13.2v-6.7h4.5V393
	h-4.5v-6.7H847.7z M865,386.4v57.5h-13.2v-6.7h4.5V393h-4.5v-6.7H865z M882.2,386.4v57.5h-13.2v-6.7h4.5V393h-4.5v-6.7H882.2z"/>
<path d="M918.4,386.4v57.5h-13.2v-6.7h4.5V393h-4.5v-6.7H918.4z M935.7,386.4v57.5h-13.2v-6.7h4.5V393h-4.5v-6.7H935.7z
	 M952.9,386.4v57.5h-13.2v-6.7h4.5V393h-4.5v-6.7H952.9z M970.1,386.4v57.5h-13.2v-6.7h4.5V393h-4.5v-6.7H970.1z M987.3,386.4v57.5
	h-13.2v-6.7h4.5V393h-4.5v-6.7H987.3z M1004.5,386.4v57.5h-13.2v-6.7h4.5V393h-4.5v-6.7H1004.5z M1021.7,386.4v57.5h-13.2v-6.7h4.5
	V393h-4.5v-6.7H1021.7z M1039,386.4v57.5h-13.2v-6.7h4.5V393h-4.5v-6.7H1039z M1056.2,386.4v57.5h-13.2v-6.7h4.5V393h-4.5v-6.7
	H1056.2z"/>
<path d="M744.4,442.4v57.5h-13.2v-6.7h4.5V449h-4.5v-6.7H744.4z M761.7,442.4v57.5h-13.2v-6.7h4.5V449h-4.5v-6.7H761.7z
	 M778.9,442.4v57.5h-13.2v-6.7h4.5V449h-4.5v-6.7H778.9z M796.1,442.4v57.5h-13.2v-6.7h4.5V449h-4.5v-6.7H796.1z M813.3,442.4v57.5
	h-13.2v-6.7h4.5V449h-4.5v-6.7H813.3z M830.5,442.4v57.5h-13.2v-6.7h4.5V449h-4.5v-6.7H830.5z M847.7,442.4v57.5h-13.2v-6.7h4.5V449
	h-4.5v-6.7H847.7z M865,442.4v57.5h-13.2v-6.7h4.5V449h-4.5v-6.7H865z M882.2,442.4v57.5h-13.2v-6.7h4.5V449h-4.5v-6.7H882.2z"/>
<path d="M918.4,442.4v57.5h-13.2v-6.7h4.5V449h-4.5v-6.7H918.4z M935.7,442.4v57.5h-13.2v-6.7h4.5V449h-4.5v-6.7H935.7z
	 M952.9,442.4v57.5h-13.2v-6.7h4.5V449h-4.5v-6.7H952.9z M970.1,442.4v57.5h-13.2v-6.7h4.5V449h-4.5v-6.7H970.1z M987.3,442.4v57.5
	h-13.2v-6.7h4.5V449h-4.5v-6.7H987.3z M1004.5,442.4v57.5h-13.2v-6.7h4.5V449h-4.5v-6.7H1004.5z M1021.7,442.4v57.5h-13.2v-6.7h4.5
	V449h-4.5v-6.7H1021.7z M1039,442.4v57.5h-13.2v-6.7h4.5V449h-4.5v-6.7H1039z M1056.2,442.4v57.5h-13.2v-6.7h4.5V449h-4.5v-6.7
	H1056.2z"/>
<path d="M435.2,326.8c-3.6,0-6.8-0.7-9.6-2.2l-3.4,5l-5.9-3.8l3.9-5.8c-1.5-1.9-2.6-4.2-3.5-7c-0.8-2.7-1.2-5.9-1.2-9.4
	c0-3.8,0.5-7.1,1.4-10c0.9-2.9,2.3-5.3,4-7.2c1.7-2,3.8-3.4,6.2-4.4c2.4-1,5.1-1.5,8.1-1.5c3.6,0,6.8,0.7,9.6,2.2l3.4-5l5.9,3.8
	l-3.9,5.8c1.5,1.9,2.6,4.2,3.5,7c0.8,2.7,1.2,5.9,1.2,9.4c0,3.8-0.5,7.1-1.4,10c-0.9,2.9-2.3,5.3-4,7.2c-1.7,1.9-3.8,3.4-6.2,4.4
	C440.8,326.3,438.1,326.8,435.2,326.8z M425.4,307.2c0,2,0.3,3.8,0.8,5.3l14.3-22.7c-1.4-0.9-3.2-1.3-5.2-1.3c-3.1,0-5.5,1-7.2,3
	c-1.7,2-2.6,4.9-2.6,8.6V307.2z M445,300.1c0-2-0.3-3.8-0.8-5.3l-14.3,22.7c1.4,0.9,3.2,1.3,5.2,1.3c3.1,0,5.5-1,7.2-3
	c1.7-2,2.6-4.9,2.6-8.6V300.1z"/>
<path d="M685.2,326.8c-3.6,0-6.8-0.7-9.6-2.2l-3.4,5l-5.9-3.8l3.9-5.8c-1.5-1.9-2.6-4.2-3.5-7c-0.8-2.7-1.2-5.9-1.2-9.4
	c0-3.8,0.5-7.1,1.4-10c0.9-2.9,2.3-5.3,4-7.2c1.7-2,3.8-3.4,6.2-4.4c2.4-1,5.1-1.5,8.1-1.5c3.6,0,6.8,0.7,9.6,2.2l3.4-5l5.9,3.8
	l-3.9,5.8c1.5,1.9,2.6,4.2,3.5,7c0.8,2.7,1.2,5.9,1.2,9.4c0,3.8-0.5,7.1-1.4,10c-0.9,2.9-2.3,5.3-4,7.2c-1.7,1.9-3.8,3.4-6.2,4.4
	C690.8,326.3,688.1,326.8,685.2,326.8z M675.4,307.2c0,2,0.3,3.8,0.8,5.3l14.3-22.7c-1.4-0.9-3.2-1.3-5.2-1.3c-3.1,0-5.5,1-7.2,3
	c-1.7,2-2.6,4.9-2.6,8.6V307.2z M695,300.1c0-2-0.3-3.8-0.8-5.3l-14.3,22.7c1.4,0.9,3.2,1.3,5.2,1.3c3.1,0,5.5-1,7.2-3
	c1.7-2,2.6-4.9,2.6-8.6V300.1z"/>
<path d="M435.2,384.8c-3.6,0-6.8-0.7-9.6-2.2l-3.4,5l-5.9-3.8l3.9-5.8c-1.5-1.9-2.6-4.2-3.5-7c-0.8-2.7-1.2-5.9-1.2-9.4
	c0-3.8,0.5-7.1,1.4-10c0.9-2.9,2.3-5.3,4-7.2c1.7-2,3.8-3.4,6.2-4.4c2.4-1,5.1-1.5,8.1-1.5c3.6,0,6.8,0.7,9.6,2.2l3.4-5l5.9,3.8
	l-3.9,5.8c1.5,1.9,2.6,4.2,3.5,7c0.8,2.7,1.2,5.9,1.2,9.4c0,3.8-0.5,7.1-1.4,10c-0.9,2.9-2.3,5.3-4,7.2c-1.7,1.9-3.8,3.4-6.2,4.4
	C440.8,384.3,438.1,384.8,435.2,384.8z M425.4,365.2c0,2,0.3,3.8,0.8,5.3l14.3-22.7c-1.4-0.9-3.2-1.3-5.2-1.3c-3.1,0-5.5,1-7.2,3
	c-1.7,2-2.6,4.9-2.6,8.6V365.2z M445,358.1c0-2-0.3-3.8-0.8-5.3l-14.3,22.7c1.4,0.9,3.2,1.3,5.2,1.3c3.1,0,5.5-1,7.2-3
	c1.7-2,2.6-4.9,2.6-8.6V358.1z"/>
<path d="M685.2,384.8c-3.6,0-6.8-0.7-9.6-2.2l-3.4,5l-5.9-3.8l3.9-5.8c-1.5-1.9-2.6-4.2-3.5-7c-0.8-2.7-1.2-5.9-1.2-9.4
	c0-3.8,0.5-7.1,1.4-10c0.9-2.9,2.3-5.3,4-7.2c1.7-2,3.8-3.4,6.2-4.4c2.4-1,5.1-1.5,8.1-1.5c3.6,0,6.8,0.7,9.6,2.2l3.4-5l5.9,3.8
	l-3.9,5.8c1.5,1.9,2.6,4.2,3.5,7c0.8,2.7,1.2,5.9,1.2,9.4c0,3.8-0.5,7.1-1.4,10c-0.9,2.9-2.3,5.3-4,7.2c-1.7,1.9-3.8,3.4-6.2,4.4
	C690.8,384.3,688.1,384.8,685.2,384.8z M675.4,365.2c0,2,0.3,3.8,0.8,5.3l14.3-22.7c-1.4-0.9-3.2-1.3-5.2-1.3c-3.1,0-5.5,1-7.2,3
	c-1.7,2-2.6,4.9-2.6,8.6V365.2z M695,358.1c0-2-0.3-3.8-0.8-5.3l-14.3,22.7c1.4,0.9,3.2,1.3,5.2,1.3c3.1,0,5.5-1,7.2-3
	c1.7-2,2.6-4.9,2.6-8.6V358.1z"/>
<path d="M435.2,442.8c-3.6,0-6.8-0.7-9.6-2.2l-3.4,5l-5.9-3.8l3.9-5.8c-1.5-1.9-2.6-4.2-3.5-7c-0.8-2.7-1.2-5.9-1.2-9.4
	c0-3.8,0.5-7.1,1.4-10c0.9-2.9,2.3-5.3,4-7.2c1.7-2,3.8-3.4,6.2-4.4c2.4-1,5.1-1.5,8.1-1.5c3.6,0,6.8,0.7,9.6,2.2l3.4-5l5.9,3.8
	l-3.9,5.8c1.5,1.9,2.6,4.2,3.5,7c0.8,2.7,1.2,5.9,1.2,9.4c0,3.8-0.5,7.1-1.4,10c-0.9,2.9-2.3,5.3-4,7.2c-1.7,1.9-3.8,3.4-6.2,4.4
	C440.8,442.3,438.1,442.8,435.2,442.8z M425.4,423.2c0,2,0.3,3.8,0.8,5.3l14.3-22.7c-1.4-0.9-3.2-1.3-5.2-1.3c-3.1,0-5.5,1-7.2,3
	c-1.7,2-2.6,4.9-2.6,8.6V423.2z M445,416.1c0-2-0.3-3.8-0.8-5.3l-14.3,22.7c1.4,0.9,3.2,1.3,5.2,1.3c3.1,0,5.5-1,7.2-3
	c1.7-2,2.6-4.9,2.6-8.6V416.1z"/>
<path d="M685.2,442.8c-3.6,0-6.8-0.7-9.6-2.2l-3.4,5l-5.9-3.8l3.9-5.8c-1.5-1.9-2.6-4.2-3.5-7c-0.8-2.7-1.2-5.9-1.2-9.4
	c0-3.8,0.5-7.1,1.4-10c0.9-2.9,2.3-5.3,4-7.2c1.7-2,3.8-3.4,6.2-4.4c2.4-1,5.1-1.5,8.1-1.5c3.6,0,6.8,0.7,9.6,2.2l3.4-5l5.9,3.8
	l-3.9,5.8c1.5,1.9,2.6,4.2,3.5,7c0.8,2.7,1.2,5.9,1.2,9.4c0,3.8-0.5,7.1-1.4,10c-0.9,2.9-2.3,5.3-4,7.2c-1.7,1.9-3.8,3.4-6.2,4.4
	C690.8,442.3,688.1,442.8,685.2,442.8z M675.4,423.2c0,2,0.3,3.8,0.8,5.3l14.3-22.7c-1.4-0.9-3.2-1.3-5.2-1.3c-3.1,0-5.5,1-7.2,3
	c-1.7,2-2.6,4.9-2.6,8.6V423.2z M695,416.1c0-2-0.3-3.8-0.8-5.3l-14.3,22.7c1.4,0.9,3.2,1.3,5.2,1.3c3.1,0,5.5-1,7.2-3
	c1.7-2,2.6-4.9,2.6-8.6V416.1z"/>
<path d="M435.2,500.8c-3.6,0-6.8-0.7-9.6-2.2l-3.4,5l-5.9-3.8l3.9-5.8c-1.5-1.9-2.6-4.2-3.5-7c-0.8-2.7-1.2-5.9-1.2-9.4
	c0-3.8,0.5-7.1,1.4-10c0.9-2.9,2.3-5.3,4-7.2c1.7-2,3.8-3.4,6.2-4.4c2.4-1,5.1-1.5,8.1-1.5c3.6,0,6.8,0.7,9.6,2.2l3.4-5l5.9,3.8
	l-3.9,5.8c1.5,1.9,2.6,4.2,3.5,7c0.8,2.7,1.2,5.9,1.2,9.4c0,3.8-0.5,7.1-1.4,10c-0.9,2.9-2.3,5.3-4,7.2c-1.7,1.9-3.8,3.4-6.2,4.4
	C440.8,500.3,438.1,500.8,435.2,500.8z M425.4,481.2c0,2,0.3,3.8,0.8,5.3l14.3-22.7c-1.4-0.9-3.2-1.3-5.2-1.3c-3.1,0-5.5,1-7.2,3
	c-1.7,2-2.6,4.9-2.6,8.6V481.2z M445,474.1c0-2-0.3-3.8-0.8-5.3l-14.3,22.7c1.4,0.9,3.2,1.3,5.2,1.3c3.1,0,5.5-1,7.2-3
	c1.7-2,2.6-4.9,2.6-8.6V474.1z"/>
<path d="M685.2,500.8c-3.6,0-6.8-0.7-9.6-2.2l-3.4,5l-5.9-3.8l3.9-5.8c-1.5-1.9-2.6-4.2-3.5-7c-0.8-2.7-1.2-5.9-1.2-9.4
	c0-3.8,0.5-7.1,1.4-10c0.9-2.9,2.3-5.3,4-7.2c1.7-2,3.8-3.4,6.2-4.4c2.4-1,5.1-1.5,8.1-1.5c3.6,0,6.8,0.7,9.6,2.2l3.4-5l5.9,3.8
	l-3.9,5.8c1.5,1.9,2.6,4.2,3.5,7c0.8,2.7,1.2,5.9,1.2,9.4c0,3.8-0.5,7.1-1.4,10c-0.9,2.9-2.3,5.3-4,7.2c-1.7,1.9-3.8,3.4-6.2,4.4
	C690.8,500.3,688.1,500.8,685.2,500.8z M675.4,481.2c0,2,0.3,3.8,0.8,5.3l14.3-22.7c-1.4-0.9-3.2-1.3-5.2-1.3c-3.1,0-5.5,1-7.2,3
	c-1.7,2-2.6,4.9-2.6,8.6V481.2z M695,474.1c0-2-0.3-3.8-0.8-5.3l-14.3,22.7c1.4,0.9,3.2,1.3,5.2,1.3c3.1,0,5.5-1,7.2-3
	c1.7-2,2.6-4.9,2.6-8.6V474.1z"/>
<path d="M182.2,543.6V538h22.4v5.7H182.2z M182.2,554.8v-5.7h22.4v5.7H182.2z M207.9,543.6V538h22.4v5.7H207.9z M207.9,554.8v-5.7
	h22.4v5.7H207.9z M233.5,543.6V538h22.4v5.7H233.5z M233.5,554.8v-5.7h22.4v5.7H233.5z M259.2,543.6V538h22.4v5.7H259.2z
	 M259.2,554.8v-5.7h22.4v5.7H259.2z M284.9,543.6V538h22.4v5.7H284.9z M284.9,554.8v-5.7h22.4v5.7H284.9z M310.5,543.6V538h22.4v5.7
	H310.5z M310.5,554.8v-5.7h22.4v5.7H310.5z M336.2,543.6V538h22.4v5.7H336.2z M336.2,554.8v-5.7h22.4v5.7H336.2z M361.8,543.6V538
	h22.4v5.7H361.8z M361.8,554.8v-5.7h22.4v5.7H361.8z M387.5,543.6V538h22.4v5.7H387.5z M387.5,554.8v-5.7h22.4v5.7H387.5z
	 M413.2,543.6V538h22.4v5.7H413.2z M413.2,554.8v-5.7h22.4v5.7H413.2z M438.8,543.6V538h22.4v5.7H438.8z M438.8,554.8v-5.7h22.4v5.7
	H438.8z M464.5,543.6V538h22.4v5.7H464.5z M464.5,554.8v-5.7h22.4v5.7H464.5z M490.2,543.6V538h22.4v5.7H490.2z M490.2,554.8v-5.7
	h22.4v5.7H490.2z M515.8,543.6V538h22.4v5.7H515.8z M515.8,554.8v-5.7h22.4v5.7H515.8z M541.5,543.6V538h22.4v5.7H541.5z
	 M541.5,554.8v-5.7h22.4v5.7H541.5z M567.1,543.6V538h22.4v5.7H567.1z M567.1,554.8v-5.7h22.4v5.7H567.1z M592.8,543.6V538h22.4v5.7
	H592.8z M592.8,554.8v-5.7h22.4v5.7H592.8z M618.5,543.6V538h22.4v5.7H618.5z M618.5,554.8v-5.7h22.4v5.7H618.5z M644.1,543.6V538
	h22.4v5.7H644.1z M644.1,554.8v-5.7h22.4v5.7H644.1z M669.8,543.6V538h22.4v5.7H669.8z M669.8,554.8v-5.7h22.4v5.7H669.8z
	 M695.4,543.6V538h22.4v5.7H695.4z M695.4,554.8v-5.7h22.4v5.7H695.4z M721.1,543.6V538h22.4v5.7H721.1z M721.1,554.8v-5.7h22.4v5.7
	H721.1z M746.8,543.6V538h22.4v5.7H746.8z M746.8,554.8v-5.7h22.4v5.7H746.8z M772.4,543.6V538h22.4v5.7H772.4z M772.4,554.8v-5.7
	h22.4v5.7H772.4z M798.1,543.6V538h22.4v5.7H798.1z M798.1,554.8v-5.7h22.4v5.7H798.1z M823.7,543.6V538h22.4v5.7H823.7z
	 M823.7,554.8v-5.7h22.4v5.7H823.7z M849.4,543.6V538h22.4v5.7H849.4z M849.4,554.8v-5.7h22.4v5.7H849.4z M875.1,543.6V538h22.4v5.7
	H875.1z M875.1,554.8v-5.7h22.4v5.7H875.1z M900.7,543.6V538h22.4v5.7H900.7z M900.7,554.8v-5.7h22.4v5.7H900.7z M926.4,543.6V538
	h22.4v5.7H926.4z M926.4,554.8v-5.7h22.4v5.7H926.4z M952.1,543.6V538h22.4v5.7H952.1z M952.1,554.8v-5.7h22.4v5.7H952.1z
	 M977.7,543.6V538h22.4v5.7H977.7z M977.7,554.8v-5.7h22.4v5.7H977.7z M1003.4,543.6V538h22.4v5.7H1003.4z M1003.4,554.8v-5.7h22.4
	v5.7H1003.4z M1029,543.6V538h22.4v5.7H1029z M1029,554.8v-5.7h22.4v5.7H1029z M1054.7,543.6V538h22.4v5.7H1054.7z M1054.7,554.8
	v-5.7h22.4v5.7H1054.7z M1080.4,543.6V538h22.4v5.7H1080.4z M1080.4,554.8v-5.7h22.4v5.7H1080.4z M1106,543.6V538h22.4v5.7H1106z
	 M1106,554.8v-5.7h22.4v5.7H1106z M1131.7,543.6V538h22.4v5.7H1131.7z M1131.7,554.8v-5.7h22.4v5.7H1131.7z M1157.3,543.6V538h22.4
	v5.7H1157.3z M1157.3,554.8v-5.7h22.4v5.7H1157.3z M1183,543.6V538h22.4v5.7H1183z M1183,554.8v-5.7h22.4v5.7H1183z M1208.7,543.6
	V538h22.4v5.7H1208.7z M1208.7,554.8v-5.7h22.4v5.7H1208.7z M1234.3,543.6V538h22.4v5.7H1234.3z M1234.3,554.8v-5.7h22.4v5.7H1234.3
	z"/>
<path d="M183.2,149.6V144h22.4v5.7H183.2z M183.2,160.8v-5.7h22.4v5.7H183.2z M208.9,149.6V144h22.4v5.7H208.9z M208.9,160.8v-5.7
	h22.4v5.7H208.9z M234.5,149.6V144h22.4v5.7H234.5z M234.5,160.8v-5.7h22.4v5.7H234.5z M260.2,149.6V144h22.4v5.7H260.2z
	 M260.2,160.8v-5.7h22.4v5.7H260.2z M285.9,149.6V144h22.4v5.7H285.9z M285.9,160.8v-5.7h22.4v5.7H285.9z M311.5,149.6V144h22.4v5.7
	H311.5z M311.5,160.8v-5.7h22.4v5.7H311.5z M337.2,149.6V144h22.4v5.7H337.2z M337.2,160.8v-5.7h22.4v5.7H337.2z M362.8,149.6V144
	h22.4v5.7H362.8z M362.8,160.8v-5.7h22.4v5.7H362.8z M388.5,149.6V144h22.4v5.7H388.5z M388.5,160.8v-5.7h22.4v5.7H388.5z
	 M414.2,149.6V144h22.4v5.7H414.2z M414.2,160.8v-5.7h22.4v5.7H414.2z M439.8,149.6V144h22.4v5.7H439.8z M439.8,160.8v-5.7h22.4v5.7
	H439.8z M465.5,149.6V144h22.4v5.7H465.5z M465.5,160.8v-5.7h22.4v5.7H465.5z M491.2,149.6V144h22.4v5.7H491.2z M491.2,160.8v-5.7
	h22.4v5.7H491.2z M516.8,149.6V144h22.4v5.7H516.8z M516.8,160.8v-5.7h22.4v5.7H516.8z M542.5,149.6V144h22.4v5.7H542.5z
	 M542.5,160.8v-5.7h22.4v5.7H542.5z M568.1,149.6V144h22.4v5.7H568.1z M568.1,160.8v-5.7h22.4v5.7H568.1z M593.8,149.6V144h22.4v5.7
	H593.8z M593.8,160.8v-5.7h22.4v5.7H593.8z M619.5,149.6V144h22.4v5.7H619.5z M619.5,160.8v-5.7h22.4v5.7H619.5z M645.1,149.6V144
	h22.4v5.7H645.1z M645.1,160.8v-5.7h22.4v5.7H645.1z M670.8,149.6V144h22.4v5.7H670.8z M670.8,160.8v-5.7h22.4v5.7H670.8z
	 M696.4,149.6V144h22.4v5.7H696.4z M696.4,160.8v-5.7h22.4v5.7H696.4z M722.1,149.6V144h22.4v5.7H722.1z M722.1,160.8v-5.7h22.4v5.7
	H722.1z M747.8,149.6V144h22.4v5.7H747.8z M747.8,160.8v-5.7h22.4v5.7H747.8z M773.4,149.6V144h22.4v5.7H773.4z M773.4,160.8v-5.7
	h22.4v5.7H773.4z M799.1,149.6V144h22.4v5.7H799.1z M799.1,160.8v-5.7h22.4v5.7H799.1z M824.7,149.6V144h22.4v5.7H824.7z
	 M824.7,160.8v-5.7h22.4v5.7H824.7z M850.4,149.6V144h22.4v5.7H850.4z M850.4,160.8v-5.7h22.4v5.7H850.4z M876.1,149.6V144h22.4v5.7
	H876.1z M876.1,160.8v-5.7h22.4v5.7H876.1z M901.7,149.6V144h22.4v5.7H901.7z M901.7,160.8v-5.7h22.4v5.7H901.7z M927.4,149.6V144
	h22.4v5.7H927.4z M927.4,160.8v-5.7h22.4v5.7H927.4z M953.1,149.6V144h22.4v5.7H953.1z M953.1,160.8v-5.7h22.4v5.7H953.1z
	 M978.7,149.6V144h22.4v5.7H978.7z M978.7,160.8v-5.7h22.4v5.7H978.7z M1004.4,149.6V144h22.4v5.7H1004.4z M1004.4,160.8v-5.7h22.4
	v5.7H1004.4z M1030,149.6V144h22.4v5.7H1030z M1030,160.8v-5.7h22.4v5.7H1030z M1055.7,149.6V144h22.4v5.7H1055.7z M1055.7,160.8
	v-5.7h22.4v5.7H1055.7z M1081.4,149.6V144h22.4v5.7H1081.4z M1081.4,160.8v-5.7h22.4v5.7H1081.4z M1107,149.6V144h22.4v5.7H1107z
	 M1107,160.8v-5.7h22.4v5.7H1107z M1132.7,149.6V144h22.4v5.7H1132.7z M1132.7,160.8v-5.7h22.4v5.7H1132.7z M1158.3,149.6V144h22.4
	v5.7H1158.3z M1158.3,160.8v-5.7h22.4v5.7H1158.3z M1184,149.6V144h22.4v5.7H1184z M1184,160.8v-5.7h22.4v5.7H1184z M1209.7,149.6
	V144h22.4v5.7H1209.7z M1209.7,160.8v-5.7h22.4v5.7H1209.7z M1235.3,149.6V144h22.4v5.7H1235.3z M1235.3,160.8v-5.7h22.4v5.7H1235.3
	z"/>
<path d="M173.2,198.6c-1.3,0-2.4-0.4-3.3-1.2s-1.3-2-1.3-3.6V184c0-1.4-0.4-2.5-1.3-3.2c-0.9-0.7-2-1.1-3.3-1.1v-5.4
	c1.3,0,2.4-0.4,3.3-1.1c0.9-0.7,1.3-1.8,1.3-3.2v-9.7c0-1.6,0.4-2.8,1.3-3.6s2-1.2,3.3-1.2h5.2v5h-3.3v10.3c0,0.8-0.1,1.5-0.4,2.2
	c-0.3,0.7-0.6,1.3-1.1,1.8c-0.4,0.5-1,1-1.6,1.4c-0.6,0.4-1.2,0.6-1.9,0.7v0.2c0.7,0.1,1.3,0.4,1.9,0.8c0.6,0.4,1.1,0.8,1.6,1.3
	s0.8,1.2,1.1,1.9c0.3,0.7,0.4,1.4,0.4,2.2v10.3h3.3v5H173.2z M173.2,241.6c-1.3,0-2.4-0.4-3.3-1.2s-1.3-2-1.3-3.6V227
	c0-1.4-0.4-2.5-1.3-3.2c-0.9-0.7-2-1.1-3.3-1.1v-5.4c1.3,0,2.4-0.4,3.3-1.1c0.9-0.7,1.3-1.8,1.3-3.2v-9.7c0-1.6,0.4-2.8,1.3-3.6
	s2-1.2,3.3-1.2h5.2v5h-3.3v10.3c0,0.8-0.1,1.5-0.4,2.2c-0.3,0.7-0.6,1.3-1.1,1.8s-1,1-1.6,1.4c-0.6,0.4-1.2,0.6-1.9,0.7v0.2
	c0.7,0.1,1.3,0.4,1.9,0.8c0.6,0.4,1.1,0.8,1.6,1.3s0.8,1.2,1.1,1.9c0.3,0.7,0.4,1.4,0.4,2.2v10.3h3.3v5H173.2z M173.2,284.6
	c-1.3,0-2.4-0.4-3.3-1.2s-1.3-2-1.3-3.6V270c0-1.4-0.4-2.5-1.3-3.2c-0.9-0.7-2-1.1-3.3-1.1v-5.4c1.3,0,2.4-0.4,3.3-1.1
	c0.9-0.7,1.3-1.8,1.3-3.2v-9.7c0-1.6,0.4-2.8,1.3-3.6s2-1.2,3.3-1.2h5.2v5h-3.3v10.3c0,0.8-0.1,1.5-0.4,2.2
	c-0.3,0.7-0.6,1.3-1.1,1.8s-1,1-1.6,1.4c-0.6,0.4-1.2,0.6-1.9,0.7v0.2c0.7,0.1,1.3,0.4,1.9,0.8c0.6,0.4,1.1,0.8,1.6,1.3
	s0.8,1.2,1.1,1.9c0.3,0.7,0.4,1.4,0.4,2.2v10.3h3.3v5H173.2z M173.2,327.6c-1.3,0-2.4-0.4-3.3-1.2s-1.3-2-1.3-3.6V313
	c0-1.4-0.4-2.5-1.3-3.2c-0.9-0.7-2-1.1-3.3-1.1v-5.4c1.3,0,2.4-0.4,3.3-1.1c0.9-0.7,1.3-1.8,1.3-3.2v-9.7c0-1.6,0.4-2.8,1.3-3.6
	s2-1.2,3.3-1.2h5.2v5h-3.3v10.3c0,0.8-0.1,1.5-0.4,2.2c-0.3,0.7-0.6,1.3-1.1,1.8s-1,1-1.6,1.4c-0.6,0.4-1.2,0.6-1.9,0.7v0.2
	c0.7,0.1,1.3,0.4,1.9,0.8c0.6,0.4,1.1,0.8,1.6,1.3s0.8,1.2,1.1,1.9c0.3,0.7,0.4,1.4,0.4,2.2v10.3h3.3v5H173.2z M173.2,370.6
	c-1.3,0-2.4-0.4-3.3-1.2s-1.3-2-1.3-3.6V356c0-1.4-0.4-2.5-1.3-3.2c-0.9-0.7-2-1.1-3.3-1.1v-5.4c1.3,0,2.4-0.4,3.3-1.1
	c0.9-0.7,1.3-1.8,1.3-3.2v-9.7c0-1.6,0.4-2.8,1.3-3.6s2-1.2,3.3-1.2h5.2v5h-3.3v10.3c0,0.8-0.1,1.5-0.4,2.2
	c-0.3,0.7-0.6,1.3-1.1,1.8s-1,1-1.6,1.4c-0.6,0.4-1.2,0.6-1.9,0.7v0.2c0.7,0.1,1.3,0.4,1.9,0.8c0.6,0.4,1.1,0.8,1.6,1.3
	s0.8,1.2,1.1,1.9c0.3,0.7,0.4,1.4,0.4,2.2v10.3h3.3v5H173.2z M173.2,413.6c-1.3,0-2.4-0.4-3.3-1.2s-1.3-2-1.3-3.6V399
	c0-1.4-0.4-2.5-1.3-3.2c-0.9-0.7-2-1.1-3.3-1.1v-5.4c1.3,0,2.4-0.4,3.3-1.1c0.9-0.7,1.3-1.8,1.3-3.2v-9.7c0-1.6,0.4-2.8,1.3-3.6
	s2-1.2,3.3-1.2h5.2v5h-3.3v10.3c0,0.8-0.1,1.5-0.4,2.2c-0.3,0.7-0.6,1.3-1.1,1.8c-0.4,0.5-1,1-1.6,1.4c-0.6,0.4-1.2,0.6-1.9,0.7v0.2
	c0.7,0.1,1.3,0.4,1.9,0.8c0.6,0.4,1.1,0.8,1.6,1.3s0.8,1.2,1.1,1.9c0.3,0.7,0.4,1.4,0.4,2.2v10.3h3.3v5H173.2z M173.2,456.6
	c-1.3,0-2.4-0.4-3.3-1.2s-1.3-2-1.3-3.6V442c0-1.4-0.4-2.5-1.3-3.2c-0.9-0.7-2-1.1-3.3-1.1v-5.4c1.3,0,2.4-0.4,3.3-1.1
	c0.9-0.7,1.3-1.8,1.3-3.2v-9.7c0-1.6,0.4-2.8,1.3-3.6s2-1.2,3.3-1.2h5.2v5h-3.3v10.3c0,0.8-0.1,1.5-0.4,2.2
	c-0.3,0.7-0.6,1.3-1.1,1.8c-0.4,0.5-1,1-1.6,1.4c-0.6,0.4-1.2,0.6-1.9,0.7v0.2c0.7,0.1,1.3,0.4,1.9,0.8c0.6,0.4,1.1,0.8,1.6,1.3
	s0.8,1.2,1.1,1.9c0.3,0.7,0.4,1.4,0.4,2.2v10.3h3.3v5H173.2z M173.2,499.6c-1.3,0-2.4-0.4-3.3-1.2s-1.3-2-1.3-3.6V485
	c0-1.4-0.4-2.5-1.3-3.2c-0.9-0.7-2-1.1-3.3-1.1v-5.4c1.3,0,2.4-0.4,3.3-1.1c0.9-0.7,1.3-1.8,1.3-3.2v-9.7c0-1.6,0.4-2.8,1.3-3.6
	s2-1.2,3.3-1.2h5.2v5h-3.3v10.3c0,0.8-0.1,1.5-0.4,2.2c-0.3,0.7-0.6,1.3-1.1,1.8c-0.4,0.5-1,1-1.6,1.4c-0.6,0.4-1.2,0.6-1.9,0.7v0.2
	c0.7,0.1,1.3,0.4,1.9,0.8c0.6,0.4,1.1,0.8,1.6,1.3s0.8,1.2,1.1,1.9c0.3,0.7,0.4,1.4,0.4,2.2v10.3h3.3v5H173.2z M173.2,542.6
	c-1.3,0-2.4-0.4-3.3-1.2c-0.9-0.8-1.3-2-1.3-3.6V528c0-1.4-0.4-2.5-1.3-3.2c-0.9-0.7-2-1.1-3.3-1.1v-5.4c1.3,0,2.4-0.4,3.3-1.1
	c0.9-0.7,1.3-1.8,1.3-3.2v-9.7c0-1.6,0.4-2.8,1.3-3.6s2-1.2,3.3-1.2h5.2v5h-3.3v10.3c0,0.8-0.1,1.5-0.4,2.2
	c-0.3,0.7-0.6,1.3-1.1,1.8c-0.4,0.5-1,1-1.6,1.4c-0.6,0.4-1.2,0.6-1.9,0.7v0.2c0.7,0.1,1.3,0.4,1.9,0.8c0.6,0.4,1.1,0.8,1.6,1.3
	c0.4,0.5,0.8,1.2,1.1,1.9c0.3,0.7,0.4,1.4,0.4,2.2v10.3h3.3v5H173.2z"/>
<path class="st0" d="M190.2,206.6l-5-3.4l6.1-7.3l-8.8-2.6l1.9-5.5l8.4,3.5l-0.4-9.1h6.2l-0.4,9.1l8.4-3.5l1.9,5.5l-8.8,2.6l6,7.3
	l-5,3.3l-5.2-7.8L190.2,206.6z M190.2,249.6l-5-3.4l6.1-7.3l-8.8-2.6l1.9-5.5l8.4,3.5l-0.4-9.1h6.2l-0.4,9.1l8.4-3.5l1.9,5.5
	l-8.8,2.6l6,7.3l-5,3.3l-5.2-7.8L190.2,249.6z M190.2,292.6l-5-3.4l6.1-7.3l-8.8-2.6l1.9-5.5l8.4,3.5l-0.4-9.1h6.2l-0.4,9.1l8.4-3.5
	l1.9,5.5l-8.8,2.6l6,7.3l-5,3.3l-5.2-7.8L190.2,292.6z M190.2,335.6l-5-3.4l6.1-7.3l-8.8-2.6l1.9-5.5l8.4,3.5l-0.4-9.1h6.2l-0.4,9.1
	l8.4-3.5l1.9,5.5l-8.8,2.6l6,7.3l-5,3.3l-5.2-7.8L190.2,335.6z M190.2,378.6l-5-3.4l6.1-7.3l-8.8-2.6l1.9-5.5l8.4,3.5l-0.4-9.1h6.2
	l-0.4,9.1l8.4-3.5l1.9,5.5l-8.8,2.6l6,7.3l-5,3.3l-5.2-7.8L190.2,378.6z M190.2,421.6l-5-3.4l6.1-7.3l-8.8-2.6l1.9-5.5l8.4,3.5
	l-0.4-9.1h6.2l-0.4,9.1l8.4-3.5l1.9,5.5l-8.8,2.6l6,7.3l-5,3.3l-5.2-7.8L190.2,421.6z M190.2,464.6l-5-3.4l6.1-7.3l-8.8-2.6l1.9-5.5
	l8.4,3.5l-0.4-9.1h6.2l-0.4,9.1l8.4-3.5l1.9,5.5l-8.8,2.6l6,7.3l-5,3.3l-5.2-7.8L190.2,464.6z M190.2,507.6l-5-3.4l6.1-7.3l-8.8-2.6
	l1.9-5.5l8.4,3.5l-0.4-9.1h6.2l-0.4,9.1l8.4-3.5l1.9,5.5l-8.8,2.6l6,7.3l-5,3.3l-5.2-7.8L190.2,507.6z"/>
<path class="st0" d="M1240.2,206.6l-5-3.4l6.1-7.3l-8.8-2.6l1.9-5.5l8.3,3.5l-0.4-9.1h6.2l-0.4,9.1l8.3-3.5l1.9,5.5l-8.8,2.6l6,7.3
	l-5,3.3l-5.2-7.8L1240.2,206.6z M1240.2,249.6l-5-3.4l6.1-7.3l-8.8-2.6l1.9-5.5l8.3,3.5l-0.4-9.1h6.2l-0.4,9.1l8.3-3.5l1.9,5.5
	l-8.8,2.6l6,7.3l-5,3.3l-5.2-7.8L1240.2,249.6z M1240.2,292.6l-5-3.4l6.1-7.3l-8.8-2.6l1.9-5.5l8.3,3.5l-0.4-9.1h6.2l-0.4,9.1
	l8.3-3.5l1.9,5.5l-8.8,2.6l6,7.3l-5,3.3l-5.2-7.8L1240.2,292.6z M1240.2,335.6l-5-3.4l6.1-7.3l-8.8-2.6l1.9-5.5l8.3,3.5l-0.4-9.1
	h6.2l-0.4,9.1l8.3-3.5l1.9,5.5l-8.8,2.6l6,7.3l-5,3.3l-5.2-7.8L1240.2,335.6z M1240.2,378.6l-5-3.4l6.1-7.3l-8.8-2.6l1.9-5.5
	l8.3,3.5l-0.4-9.1h6.2l-0.4,9.1l8.3-3.5l1.9,5.5l-8.8,2.6l6,7.3l-5,3.3l-5.2-7.8L1240.2,378.6z M1240.2,421.6l-5-3.4l6.1-7.3
	l-8.8-2.6l1.9-5.5l8.3,3.5l-0.4-9.1h6.2l-0.4,9.1l8.3-3.5l1.9,5.5l-8.8,2.6l6,7.3l-5,3.3l-5.2-7.8L1240.2,421.6z M1240.2,464.6
	l-5-3.4l6.1-7.3l-8.8-2.6l1.9-5.5l8.3,3.5l-0.4-9.1h6.2l-0.4,9.1l8.3-3.5l1.9,5.5l-8.8,2.6l6,7.3l-5,3.3l-5.2-7.8L1240.2,464.6z
	 M1240.2,507.6l-5-3.4l6.1-7.3l-8.8-2.6l1.9-5.5l8.3,3.5l-0.4-9.1h6.2l-0.4,9.1l8.3-3.5l1.9,5.5l-8.8,2.6l6,7.3l-5,3.3l-5.2-7.8
	L1240.2,507.6z"/>
<path d="M1267.8,198.6c1.3,0,2.4-0.4,3.3-1.2c0.9-0.8,1.3-2,1.3-3.6V184c0-1.4,0.4-2.5,1.3-3.2c0.9-0.7,2-1.1,3.3-1.1v-5.4
	c-1.3,0-2.4-0.4-3.3-1.1c-0.9-0.7-1.3-1.8-1.3-3.2v-9.7c0-1.6-0.5-2.8-1.3-3.6c-0.9-0.8-2-1.2-3.3-1.2h-5.2v5h3.3v10.3
	c0,0.8,0.1,1.5,0.4,2.2c0.2,0.7,0.6,1.3,1,1.8c0.5,0.5,1,1,1.6,1.4c0.6,0.4,1.2,0.6,1.9,0.7v0.2c-0.7,0.1-1.3,0.4-1.9,0.8
	c-0.6,0.4-1.1,0.8-1.6,1.3c-0.4,0.5-0.8,1.2-1,1.9c-0.3,0.7-0.4,1.4-0.4,2.2v10.3h-3.3v5H1267.8z M1267.8,241.6
	c1.3,0,2.4-0.4,3.3-1.2c0.9-0.8,1.3-2,1.3-3.6V227c0-1.4,0.4-2.5,1.3-3.2c0.9-0.7,2-1.1,3.3-1.1v-5.4c-1.3,0-2.4-0.4-3.3-1.1
	c-0.9-0.7-1.3-1.8-1.3-3.2v-9.7c0-1.6-0.5-2.8-1.3-3.6c-0.9-0.8-2-1.2-3.3-1.2h-5.2v5h3.3v10.3c0,0.8,0.1,1.5,0.4,2.2
	c0.2,0.7,0.6,1.3,1,1.8c0.5,0.5,1,1,1.6,1.4c0.6,0.4,1.2,0.6,1.9,0.7v0.2c-0.7,0.1-1.3,0.4-1.9,0.8c-0.6,0.4-1.1,0.8-1.6,1.3
	c-0.4,0.5-0.8,1.2-1,1.9c-0.3,0.7-0.4,1.4-0.4,2.2v10.3h-3.3v5H1267.8z M1267.8,284.6c1.3,0,2.4-0.4,3.3-1.2c0.9-0.8,1.3-2,1.3-3.6
	V270c0-1.4,0.4-2.5,1.3-3.2c0.9-0.7,2-1.1,3.3-1.1v-5.4c-1.3,0-2.4-0.4-3.3-1.1c-0.9-0.7-1.3-1.8-1.3-3.2v-9.7
	c0-1.6-0.5-2.8-1.3-3.6c-0.9-0.8-2-1.2-3.3-1.2h-5.2v5h3.3v10.3c0,0.8,0.1,1.5,0.4,2.2c0.2,0.7,0.6,1.3,1,1.8c0.5,0.5,1,1,1.6,1.4
	c0.6,0.4,1.2,0.6,1.9,0.7v0.2c-0.7,0.1-1.3,0.4-1.9,0.8c-0.6,0.4-1.1,0.8-1.6,1.3c-0.4,0.5-0.8,1.2-1,1.9c-0.3,0.7-0.4,1.4-0.4,2.2
	v10.3h-3.3v5H1267.8z M1267.8,327.6c1.3,0,2.4-0.4,3.3-1.2c0.9-0.8,1.3-2,1.3-3.6V313c0-1.4,0.4-2.5,1.3-3.2c0.9-0.7,2-1.1,3.3-1.1
	v-5.4c-1.3,0-2.4-0.4-3.3-1.1c-0.9-0.7-1.3-1.8-1.3-3.2v-9.7c0-1.6-0.5-2.8-1.3-3.6c-0.9-0.8-2-1.2-3.3-1.2h-5.2v5h3.3v10.3
	c0,0.8,0.1,1.5,0.4,2.2c0.2,0.7,0.6,1.3,1,1.8c0.5,0.5,1,1,1.6,1.4c0.6,0.4,1.2,0.6,1.9,0.7v0.2c-0.7,0.1-1.3,0.4-1.9,0.8
	c-0.6,0.4-1.1,0.8-1.6,1.3c-0.4,0.5-0.8,1.2-1,1.9c-0.3,0.7-0.4,1.4-0.4,2.2v10.3h-3.3v5H1267.8z M1267.8,370.6
	c1.3,0,2.4-0.4,3.3-1.2c0.9-0.8,1.3-2,1.3-3.6V356c0-1.4,0.4-2.5,1.3-3.2c0.9-0.7,2-1.1,3.3-1.1v-5.4c-1.3,0-2.4-0.4-3.3-1.1
	c-0.9-0.7-1.3-1.8-1.3-3.2v-9.7c0-1.6-0.5-2.8-1.3-3.6c-0.9-0.8-2-1.2-3.3-1.2h-5.2v5h3.3v10.3c0,0.8,0.1,1.5,0.4,2.2
	c0.2,0.7,0.6,1.3,1,1.8c0.5,0.5,1,1,1.6,1.4c0.6,0.4,1.2,0.6,1.9,0.7v0.2c-0.7,0.1-1.3,0.4-1.9,0.8c-0.6,0.4-1.1,0.8-1.6,1.3
	c-0.4,0.5-0.8,1.2-1,1.9c-0.3,0.7-0.4,1.4-0.4,2.2v10.3h-3.3v5H1267.8z M1267.8,413.6c1.3,0,2.4-0.4,3.3-1.2c0.9-0.8,1.3-2,1.3-3.6
	V399c0-1.4,0.4-2.5,1.3-3.2c0.9-0.7,2-1.1,3.3-1.1v-5.4c-1.3,0-2.4-0.4-3.3-1.1c-0.9-0.7-1.3-1.8-1.3-3.2v-9.7
	c0-1.6-0.5-2.8-1.3-3.6c-0.9-0.8-2-1.2-3.3-1.2h-5.2v5h3.3v10.3c0,0.8,0.1,1.5,0.4,2.2c0.2,0.7,0.6,1.3,1,1.8c0.5,0.5,1,1,1.6,1.4
	c0.6,0.4,1.2,0.6,1.9,0.7v0.2c-0.7,0.1-1.3,0.4-1.9,0.8c-0.6,0.4-1.1,0.8-1.6,1.3c-0.4,0.5-0.8,1.2-1,1.9c-0.3,0.7-0.4,1.4-0.4,2.2
	v10.3h-3.3v5H1267.8z M1267.8,456.6c1.3,0,2.4-0.4,3.3-1.2c0.9-0.8,1.3-2,1.3-3.6V442c0-1.4,0.4-2.5,1.3-3.2c0.9-0.7,2-1.1,3.3-1.1
	v-5.4c-1.3,0-2.4-0.4-3.3-1.1c-0.9-0.7-1.3-1.8-1.3-3.2v-9.7c0-1.6-0.5-2.8-1.3-3.6c-0.9-0.8-2-1.2-3.3-1.2h-5.2v5h3.3v10.3
	c0,0.8,0.1,1.5,0.4,2.2c0.2,0.7,0.6,1.3,1,1.8c0.5,0.5,1,1,1.6,1.4c0.6,0.4,1.2,0.6,1.9,0.7v0.2c-0.7,0.1-1.3,0.4-1.9,0.8
	c-0.6,0.4-1.1,0.8-1.6,1.3c-0.4,0.5-0.8,1.2-1,1.9c-0.3,0.7-0.4,1.4-0.4,2.2v10.3h-3.3v5H1267.8z M1267.8,499.6
	c1.3,0,2.4-0.4,3.3-1.2c0.9-0.8,1.3-2,1.3-3.6V485c0-1.4,0.4-2.5,1.3-3.2c0.9-0.7,2-1.1,3.3-1.1v-5.4c-1.3,0-2.4-0.4-3.3-1.1
	c-0.9-0.7-1.3-1.8-1.3-3.2v-9.7c0-1.6-0.5-2.8-1.3-3.6c-0.9-0.8-2-1.2-3.3-1.2h-5.2v5h3.3v10.3c0,0.8,0.1,1.5,0.4,2.2
	c0.2,0.7,0.6,1.3,1,1.8c0.5,0.5,1,1,1.6,1.4c0.6,0.4,1.2,0.6,1.9,0.7v0.2c-0.7,0.1-1.3,0.4-1.9,0.8c-0.6,0.4-1.1,0.8-1.6,1.3
	c-0.4,0.5-0.8,1.2-1,1.9c-0.3,0.7-0.4,1.4-0.4,2.2v10.3h-3.3v5H1267.8z M1267.8,542.6c1.3,0,2.4-0.4,3.3-1.2c0.9-0.8,1.3-2,1.3-3.6
	V528c0-1.4,0.4-2.5,1.3-3.2c0.9-0.7,2-1.1,3.3-1.1v-5.4c-1.3,0-2.4-0.4-3.3-1.1c-0.9-0.7-1.3-1.8-1.3-3.2v-9.7
	c0-1.6-0.5-2.8-1.3-3.6c-0.9-0.8-2-1.2-3.3-1.2h-5.2v5h3.3v10.3c0,0.8,0.1,1.5,0.4,2.2c0.2,0.7,0.6,1.3,1,1.8c0.5,0.5,1,1,1.6,1.4
	c0.6,0.4,1.2,0.6,1.9,0.7v0.2c-0.7,0.1-1.3,0.4-1.9,0.8c-0.6,0.4-1.1,0.8-1.6,1.3c-0.4,0.5-0.8,1.2-1,1.9c-0.3,0.7-0.4,1.4-0.4,2.2
	v10.3h-3.3v5H1267.8z"/>
<path d="M1084.4,234.2v-8.1h-7.4v-5.2h7.4v-8.1h5.6v8.1h7.4v5.2h-7.4v8.1H1084.4z M1106.4,234.2v-8.1h-7.4v-5.2h7.4v-8.1h5.6v8.1
	h7.4v5.2h-7.4v8.1H1106.4z M1128.3,234.2v-8.1h-7.4v-5.2h7.4v-8.1h5.6v8.1h7.4v5.2h-7.4v8.1H1128.3z M1150.3,234.2v-8.1h-7.4v-5.2
	h7.4v-8.1h5.6v8.1h7.4v5.2h-7.4v8.1H1150.3z M1172.3,234.2v-8.1h-7.4v-5.2h7.4v-8.1h5.6v8.1h7.4v5.2h-7.4v8.1H1172.3z M1194.3,234.2
	v-8.1h-7.4v-5.2h7.4v-8.1h5.6v8.1h7.4v5.2h-7.4v8.1H1194.3z M1080.1,283.1v-39.5h5.5v39.5H1080.1z M1101.3,277.5
	c-1.7,0-3.2-0.3-4.6-0.8c-1.3-0.6-2.4-1.4-3.4-2.4c-0.9-1.1-1.6-2.3-2.1-3.8s-0.7-3.2-0.7-5c0-1.8,0.2-3.5,0.7-5
	c0.5-1.5,1.2-2.8,2.1-3.8c0.9-1.1,2.1-1.9,3.4-2.4c1.3-0.6,2.9-0.8,4.6-0.8c1.7,0,3.2,0.3,4.5,0.8c1.3,0.6,2.5,1.4,3.4,2.4
	c0.9,1,1.7,2.3,2.2,3.8c0.5,1.5,0.7,3.2,0.7,5c0,1.8-0.2,3.5-0.7,5c-0.5,1.5-1.2,2.8-2.2,3.8c-0.9,1.1-2,1.9-3.4,2.4
	C1104.5,277.2,1103,277.5,1101.3,277.5z M1101.3,272.4c1.3,0,2.3-0.4,3-1.2c0.7-0.8,1.1-1.9,1.1-3.4v-4.7c0-1.5-0.4-2.6-1.1-3.4
	c-0.7-0.8-1.7-1.2-3-1.2s-2.3,0.4-3,1.2c-0.7,0.8-1.1,1.9-1.1,3.4v4.7c0,1.5,0.4,2.6,1.1,3.4C1099,272,1100,272.4,1101.3,272.4z
	 M1117,277.5c-1.3,0-2.3-0.3-2.9-1c-0.6-0.7-0.9-1.5-0.9-2.6v-0.9c0-1,0.3-1.9,0.9-2.5c0.6-0.7,1.6-1,2.9-1s2.3,0.3,2.9,1
	c0.6,0.6,1,1.5,1,2.5v0.9c0,1-0.3,1.9-1,2.6C1119.3,277.2,1118.3,277.5,1117,277.5z M1127.8,277.5c-1.3,0-2.3-0.3-2.9-1
	c-0.6-0.7-0.9-1.5-0.9-2.6v-0.9c0-1,0.3-1.9,0.9-2.5c0.6-0.7,1.6-1,2.9-1s2.3,0.3,2.9,1c0.6,0.6,1,1.5,1,2.5v0.9c0,1-0.3,1.9-1,2.6
	C1130,277.2,1129.1,277.5,1127.8,277.5z M1138.5,277.5c-1.3,0-2.3-0.3-2.9-1c-0.6-0.7-0.9-1.5-0.9-2.6v-0.9c0-1,0.3-1.9,0.9-2.5
	c0.6-0.7,1.6-1,2.9-1c1.3,0,2.3,0.3,2.9,1c0.6,0.6,1,1.5,1,2.5v0.9c0,1-0.3,1.9-1,2.6C1140.8,277.2,1139.8,277.5,1138.5,277.5z
	 M1149.3,277.5c-1.3,0-2.3-0.3-2.9-1c-0.6-0.7-0.9-1.5-0.9-2.6v-0.9c0-1,0.3-1.9,0.9-2.5c0.6-0.7,1.6-1,2.9-1c1.3,0,2.3,0.3,2.9,1
	c0.6,0.6,1,1.5,1,2.5v0.9c0,1-0.3,1.9-1,2.6C1151.6,277.2,1150.6,277.5,1149.3,277.5z M1160,277.5c-1.3,0-2.3-0.3-2.9-1
	c-0.6-0.7-0.9-1.5-0.9-2.6v-0.9c0-1,0.3-1.9,0.9-2.5c0.6-0.7,1.6-1,2.9-1c1.3,0,2.3,0.3,2.9,1c0.6,0.6,1,1.5,1,2.5v0.9
	c0,1-0.3,1.9-1,2.6C1162.3,277.2,1161.4,277.5,1160,277.5z M1170.8,277.5c-1.3,0-2.3-0.3-3-1c-0.6-0.7-0.9-1.5-0.9-2.6v-0.9
	c0-1,0.3-1.9,0.9-2.5c0.7-0.7,1.6-1,3-1c1.3,0,2.3,0.3,2.9,1c0.7,0.6,1,1.5,1,2.5v0.9c0,1-0.3,1.9-1,2.6
	C1173.1,277.2,1172.1,277.5,1170.8,277.5z M1186.5,277.5c-1.7,0-3.2-0.3-4.6-0.8c-1.3-0.6-2.4-1.4-3.4-2.4c-0.9-1.1-1.6-2.3-2.1-3.8
	s-0.8-3.2-0.8-5c0-1.8,0.2-3.5,0.8-5c0.5-1.5,1.2-2.8,2.1-3.8c0.9-1.1,2.1-1.9,3.4-2.4c1.4-0.6,2.9-0.8,4.6-0.8
	c1.7,0,3.2,0.3,4.5,0.8c1.3,0.6,2.5,1.4,3.4,2.4c0.9,1,1.7,2.3,2.2,3.8c0.5,1.5,0.8,3.2,0.8,5c0,1.8-0.2,3.5-0.8,5s-1.2,2.8-2.2,3.8
	c-0.9,1.1-2,1.9-3.4,2.4C1189.7,277.2,1188.2,277.5,1186.5,277.5z M1186.5,272.4c1.3,0,2.3-0.4,3-1.2c0.7-0.8,1.1-1.9,1.1-3.4v-4.7
	c0-1.5-0.4-2.6-1.1-3.4c-0.7-0.8-1.7-1.2-3-1.2c-1.3,0-2.3,0.4-3,1.2c-0.7,0.8-1.1,1.9-1.1,3.4v4.7c0,1.5,0.4,2.6,1.1,3.4
	C1184.2,272,1185.2,272.4,1186.5,272.4z M1202.1,283.1v-39.5h5.5v39.5H1202.1z M1080.1,323.1v-39.5h5.5v39.5H1080.1z M1101.3,317.5
	c-1.7,0-3.2-0.3-4.6-0.8c-1.3-0.6-2.4-1.4-3.4-2.4c-0.9-1.1-1.6-2.3-2.1-3.8s-0.7-3.2-0.7-5c0-1.8,0.2-3.5,0.7-5
	c0.5-1.5,1.2-2.8,2.1-3.8c0.9-1.1,2.1-1.9,3.4-2.4c1.3-0.6,2.9-0.8,4.6-0.8c1.7,0,3.2,0.3,4.5,0.8c1.3,0.6,2.5,1.4,3.4,2.4
	c0.9,1,1.7,2.3,2.2,3.8c0.5,1.5,0.7,3.2,0.7,5c0,1.8-0.2,3.5-0.7,5c-0.5,1.5-1.2,2.8-2.2,3.8c-0.9,1.1-2,1.9-3.4,2.4
	C1104.5,317.2,1103,317.5,1101.3,317.5z M1101.3,312.4c1.3,0,2.3-0.4,3-1.2c0.7-0.8,1.1-1.9,1.1-3.4v-4.7c0-1.5-0.4-2.6-1.1-3.4
	c-0.7-0.8-1.7-1.2-3-1.2s-2.3,0.4-3,1.2c-0.7,0.8-1.1,1.9-1.1,3.4v4.7c0,1.5,0.4,2.6,1.1,3.4C1099,312,1100,312.4,1101.3,312.4z
	 M1117,317.5c-1.3,0-2.3-0.3-2.9-1c-0.6-0.7-0.9-1.5-0.9-2.6v-0.9c0-1,0.3-1.9,0.9-2.5c0.6-0.7,1.6-1,2.9-1s2.3,0.3,2.9,1
	c0.6,0.6,1,1.5,1,2.5v0.9c0,1-0.3,1.9-1,2.6C1119.3,317.2,1118.3,317.5,1117,317.5z M1127.8,317.5c-1.3,0-2.3-0.3-2.9-1
	c-0.6-0.7-0.9-1.5-0.9-2.6v-0.9c0-1,0.3-1.9,0.9-2.5c0.6-0.7,1.6-1,2.9-1s2.3,0.3,2.9,1c0.6,0.6,1,1.5,1,2.5v0.9c0,1-0.3,1.9-1,2.6
	C1130,317.2,1129.1,317.5,1127.8,317.5z M1138.5,317.5c-1.3,0-2.3-0.3-2.9-1c-0.6-0.7-0.9-1.5-0.9-2.6v-0.9c0-1,0.3-1.9,0.9-2.5
	c0.6-0.7,1.6-1,2.9-1c1.3,0,2.3,0.3,2.9,1c0.6,0.6,1,1.5,1,2.5v0.9c0,1-0.3,1.9-1,2.6C1140.8,317.2,1139.8,317.5,1138.5,317.5z
	 M1149.3,317.5c-1.3,0-2.3-0.3-2.9-1c-0.6-0.7-0.9-1.5-0.9-2.6v-0.9c0-1,0.3-1.9,0.9-2.5c0.6-0.7,1.6-1,2.9-1c1.3,0,2.3,0.3,2.9,1
	c0.6,0.6,1,1.5,1,2.5v0.9c0,1-0.3,1.9-1,2.6C1151.6,317.2,1150.6,317.5,1149.3,317.5z M1160,317.5c-1.3,0-2.3-0.3-2.9-1
	c-0.6-0.7-0.9-1.5-0.9-2.6v-0.9c0-1,0.3-1.9,0.9-2.5c0.6-0.7,1.6-1,2.9-1c1.3,0,2.3,0.3,2.9,1c0.6,0.6,1,1.5,1,2.5v0.9
	c0,1-0.3,1.9-1,2.6C1162.3,317.2,1161.4,317.5,1160,317.5z M1170.8,317.5c-1.3,0-2.3-0.3-3-1c-0.6-0.7-0.9-1.5-0.9-2.6v-0.9
	c0-1,0.3-1.9,0.9-2.5c0.7-0.7,1.6-1,3-1c1.3,0,2.3,0.3,2.9,1c0.7,0.6,1,1.5,1,2.5v0.9c0,1-0.3,1.9-1,2.6
	C1173.1,317.2,1172.1,317.5,1170.8,317.5z M1186.5,317.5c-1.7,0-3.2-0.3-4.6-0.8c-1.3-0.6-2.4-1.4-3.4-2.4c-0.9-1.1-1.6-2.3-2.1-3.8
	s-0.8-3.2-0.8-5c0-1.8,0.2-3.5,0.8-5c0.5-1.5,1.2-2.8,2.1-3.8c0.9-1.1,2.1-1.9,3.4-2.4c1.4-0.6,2.9-0.8,4.6-0.8
	c1.7,0,3.2,0.3,4.5,0.8c1.3,0.6,2.5,1.4,3.4,2.4c0.9,1,1.7,2.3,2.2,3.8c0.5,1.5,0.8,3.2,0.8,5c0,1.8-0.2,3.5-0.8,5s-1.2,2.8-2.2,3.8
	c-0.9,1.1-2,1.9-3.4,2.4C1189.7,317.2,1188.2,317.5,1186.5,317.5z M1186.5,312.4c1.3,0,2.3-0.4,3-1.2c0.7-0.8,1.1-1.9,1.1-3.4v-4.7
	c0-1.5-0.4-2.6-1.1-3.4c-0.7-0.8-1.7-1.2-3-1.2c-1.3,0-2.3,0.4-3,1.2c-0.7,0.8-1.1,1.9-1.1,3.4v4.7c0,1.5,0.4,2.6,1.1,3.4
	C1184.2,312,1185.2,312.4,1186.5,312.4z M1202.1,323.1v-39.5h5.5v39.5H1202.1z M1080.1,363.1v-39.5h5.5v39.5H1080.1z M1101.3,357.5
	c-1.7,0-3.2-0.3-4.6-0.8c-1.3-0.6-2.4-1.4-3.4-2.4c-0.9-1.1-1.6-2.3-2.1-3.8s-0.7-3.2-0.7-5c0-1.8,0.2-3.5,0.7-5
	c0.5-1.5,1.2-2.8,2.1-3.8c0.9-1.1,2.1-1.9,3.4-2.4c1.3-0.6,2.9-0.8,4.6-0.8c1.7,0,3.2,0.3,4.5,0.8c1.3,0.6,2.5,1.4,3.4,2.4
	c0.9,1,1.7,2.3,2.2,3.8c0.5,1.5,0.7,3.2,0.7,5c0,1.8-0.2,3.5-0.7,5c-0.5,1.5-1.2,2.8-2.2,3.8c-0.9,1.1-2,1.9-3.4,2.4
	C1104.5,357.2,1103,357.5,1101.3,357.5z M1101.3,352.4c1.3,0,2.3-0.4,3-1.2c0.7-0.8,1.1-1.9,1.1-3.4v-4.7c0-1.5-0.4-2.6-1.1-3.4
	c-0.7-0.8-1.7-1.2-3-1.2s-2.3,0.4-3,1.2c-0.7,0.8-1.1,1.9-1.1,3.4v4.7c0,1.5,0.4,2.6,1.1,3.4C1099,352,1100,352.4,1101.3,352.4z
	 M1117,357.5c-1.3,0-2.3-0.3-2.9-1c-0.6-0.7-0.9-1.5-0.9-2.6v-0.9c0-1,0.3-1.9,0.9-2.5c0.6-0.7,1.6-1,2.9-1s2.3,0.3,2.9,1
	c0.6,0.6,1,1.5,1,2.5v0.9c0,1-0.3,1.9-1,2.6C1119.3,357.2,1118.3,357.5,1117,357.5z M1127.8,357.5c-1.3,0-2.3-0.3-2.9-1
	c-0.6-0.7-0.9-1.5-0.9-2.6v-0.9c0-1,0.3-1.9,0.9-2.5c0.6-0.7,1.6-1,2.9-1s2.3,0.3,2.9,1c0.6,0.6,1,1.5,1,2.5v0.9c0,1-0.3,1.9-1,2.6
	C1130,357.2,1129.1,357.5,1127.8,357.5z M1138.5,357.5c-1.3,0-2.3-0.3-2.9-1c-0.6-0.7-0.9-1.5-0.9-2.6v-0.9c0-1,0.3-1.9,0.9-2.5
	c0.6-0.7,1.6-1,2.9-1c1.3,0,2.3,0.3,2.9,1c0.6,0.6,1,1.5,1,2.5v0.9c0,1-0.3,1.9-1,2.6C1140.8,357.2,1139.8,357.5,1138.5,357.5z
	 M1149.3,357.5c-1.3,0-2.3-0.3-2.9-1c-0.6-0.7-0.9-1.5-0.9-2.6v-0.9c0-1,0.3-1.9,0.9-2.5c0.6-0.7,1.6-1,2.9-1c1.3,0,2.3,0.3,2.9,1
	c0.6,0.6,1,1.5,1,2.5v0.9c0,1-0.3,1.9-1,2.6C1151.6,357.2,1150.6,357.5,1149.3,357.5z M1160,357.5c-1.3,0-2.3-0.3-2.9-1
	c-0.6-0.7-0.9-1.5-0.9-2.6v-0.9c0-1,0.3-1.9,0.9-2.5c0.6-0.7,1.6-1,2.9-1c1.3,0,2.3,0.3,2.9,1c0.6,0.6,1,1.5,1,2.5v0.9
	c0,1-0.3,1.9-1,2.6C1162.3,357.2,1161.4,357.5,1160,357.5z M1170.8,357.5c-1.3,0-2.3-0.3-3-1c-0.6-0.7-0.9-1.5-0.9-2.6v-0.9
	c0-1,0.3-1.9,0.9-2.5c0.7-0.7,1.6-1,3-1c1.3,0,2.3,0.3,2.9,1c0.7,0.6,1,1.5,1,2.5v0.9c0,1-0.3,1.9-1,2.6
	C1173.1,357.2,1172.1,357.5,1170.8,357.5z M1186.5,357.5c-1.7,0-3.2-0.3-4.6-0.8c-1.3-0.6-2.4-1.4-3.4-2.4c-0.9-1.1-1.6-2.3-2.1-3.8
	s-0.8-3.2-0.8-5c0-1.8,0.2-3.5,0.8-5c0.5-1.5,1.2-2.8,2.1-3.8c0.9-1.1,2.1-1.9,3.4-2.4c1.4-0.6,2.9-0.8,4.6-0.8
	c1.7,0,3.2,0.3,4.5,0.8c1.3,0.6,2.5,1.4,3.4,2.4c0.9,1,1.7,2.3,2.2,3.8c0.5,1.5,0.8,3.2,0.8,5c0,1.8-0.2,3.5-0.8,5s-1.2,2.8-2.2,3.8
	c-0.9,1.1-2,1.9-3.4,2.4C1189.7,357.2,1188.2,357.5,1186.5,357.5z M1186.5,352.4c1.3,0,2.3-0.4,3-1.2c0.7-0.8,1.1-1.9,1.1-3.4v-4.7
	c0-1.5-0.4-2.6-1.1-3.4c-0.7-0.8-1.7-1.2-3-1.2c-1.3,0-2.3,0.4-3,1.2c-0.7,0.8-1.1,1.9-1.1,3.4v4.7c0,1.5,0.4,2.6,1.1,3.4
	C1184.2,352,1185.2,352.4,1186.5,352.4z M1202.1,363.1v-39.5h5.5v39.5H1202.1z M1080.1,403.1v-39.5h5.5v39.5H1080.1z M1101.3,397.5
	c-1.7,0-3.2-0.3-4.6-0.8c-1.3-0.6-2.4-1.4-3.4-2.4c-0.9-1.1-1.6-2.3-2.1-3.8s-0.7-3.2-0.7-5c0-1.8,0.2-3.5,0.7-5
	c0.5-1.5,1.2-2.8,2.1-3.8c0.9-1.1,2.1-1.9,3.4-2.4c1.3-0.6,2.9-0.8,4.6-0.8c1.7,0,3.2,0.3,4.5,0.8c1.3,0.6,2.5,1.4,3.4,2.4
	c0.9,1,1.7,2.3,2.2,3.8c0.5,1.5,0.7,3.2,0.7,5c0,1.8-0.2,3.5-0.7,5c-0.5,1.5-1.2,2.8-2.2,3.8c-0.9,1.1-2,1.9-3.4,2.4
	C1104.5,397.2,1103,397.5,1101.3,397.5z M1101.3,392.4c1.3,0,2.3-0.4,3-1.2c0.7-0.8,1.1-1.9,1.1-3.4v-4.7c0-1.5-0.4-2.6-1.1-3.4
	c-0.7-0.8-1.7-1.2-3-1.2s-2.3,0.4-3,1.2c-0.7,0.8-1.1,1.9-1.1,3.4v4.7c0,1.5,0.4,2.6,1.1,3.4C1099,392,1100,392.4,1101.3,392.4z
	 M1117,397.5c-1.3,0-2.3-0.3-2.9-1c-0.6-0.7-0.9-1.5-0.9-2.6v-0.9c0-1,0.3-1.9,0.9-2.5c0.6-0.7,1.6-1,2.9-1s2.3,0.3,2.9,1
	c0.6,0.6,1,1.5,1,2.5v0.9c0,1-0.3,1.9-1,2.6C1119.3,397.2,1118.3,397.5,1117,397.5z M1127.8,397.5c-1.3,0-2.3-0.3-2.9-1
	c-0.6-0.7-0.9-1.5-0.9-2.6v-0.9c0-1,0.3-1.9,0.9-2.5c0.6-0.7,1.6-1,2.9-1s2.3,0.3,2.9,1c0.6,0.6,1,1.5,1,2.5v0.9c0,1-0.3,1.9-1,2.6
	C1130,397.2,1129.1,397.5,1127.8,397.5z M1138.5,397.5c-1.3,0-2.3-0.3-2.9-1c-0.6-0.7-0.9-1.5-0.9-2.6v-0.9c0-1,0.3-1.9,0.9-2.5
	c0.6-0.7,1.6-1,2.9-1c1.3,0,2.3,0.3,2.9,1c0.6,0.6,1,1.5,1,2.5v0.9c0,1-0.3,1.9-1,2.6C1140.8,397.2,1139.8,397.5,1138.5,397.5z
	 M1149.3,397.5c-1.3,0-2.3-0.3-2.9-1c-0.6-0.7-0.9-1.5-0.9-2.6v-0.9c0-1,0.3-1.9,0.9-2.5c0.6-0.7,1.6-1,2.9-1c1.3,0,2.3,0.3,2.9,1
	c0.6,0.6,1,1.5,1,2.5v0.9c0,1-0.3,1.9-1,2.6C1151.6,397.2,1150.6,397.5,1149.3,397.5z M1160,397.5c-1.3,0-2.3-0.3-2.9-1
	c-0.6-0.7-0.9-1.5-0.9-2.6v-0.9c0-1,0.3-1.9,0.9-2.5c0.6-0.7,1.6-1,2.9-1c1.3,0,2.3,0.3,2.9,1c0.6,0.6,1,1.5,1,2.5v0.9
	c0,1-0.3,1.9-1,2.6C1162.3,397.2,1161.4,397.5,1160,397.5z M1170.8,397.5c-1.3,0-2.3-0.3-3-1c-0.6-0.7-0.9-1.5-0.9-2.6v-0.9
	c0-1,0.3-1.9,0.9-2.5c0.7-0.7,1.6-1,3-1c1.3,0,2.3,0.3,2.9,1c0.7,0.6,1,1.5,1,2.5v0.9c0,1-0.3,1.9-1,2.6
	C1173.1,397.2,1172.1,397.5,1170.8,397.5z M1186.5,397.5c-1.7,0-3.2-0.3-4.6-0.8c-1.3-0.6-2.4-1.4-3.4-2.4c-0.9-1.1-1.6-2.3-2.1-3.8
	s-0.8-3.2-0.8-5c0-1.8,0.2-3.5,0.8-5c0.5-1.5,1.2-2.8,2.1-3.8c0.9-1.1,2.1-1.9,3.4-2.4c1.4-0.6,2.9-0.8,4.6-0.8
	c1.7,0,3.2,0.3,4.5,0.8c1.3,0.6,2.5,1.4,3.4,2.4c0.9,1,1.7,2.3,2.2,3.8c0.5,1.5,0.8,3.2,0.8,5c0,1.8-0.2,3.5-0.8,5s-1.2,2.8-2.2,3.8
	c-0.9,1.1-2,1.9-3.4,2.4C1189.7,397.2,1188.2,397.5,1186.5,397.5z M1186.5,392.4c1.3,0,2.3-0.4,3-1.2c0.7-0.8,1.1-1.9,1.1-3.4v-4.7
	c0-1.5-0.4-2.6-1.1-3.4c-0.7-0.8-1.7-1.2-3-1.2c-1.3,0-2.3,0.4-3,1.2c-0.7,0.8-1.1,1.9-1.1,3.4v4.7c0,1.5,0.4,2.6,1.1,3.4
	C1184.2,392,1185.2,392.4,1186.5,392.4z M1202.1,403.1v-39.5h5.5v39.5H1202.1z M1080.1,443.1v-39.5h5.5v39.5H1080.1z M1101.3,437.5
	c-1.7,0-3.2-0.3-4.6-0.8c-1.3-0.6-2.4-1.4-3.4-2.4c-0.9-1.1-1.6-2.3-2.1-3.8s-0.7-3.2-0.7-5c0-1.8,0.2-3.5,0.7-5s1.2-2.8,2.1-3.8
	c0.9-1.1,2.1-1.9,3.4-2.4c1.3-0.6,2.9-0.8,4.6-0.8c1.7,0,3.2,0.3,4.5,0.8c1.3,0.6,2.5,1.4,3.4,2.4c0.9,1,1.7,2.3,2.2,3.8
	c0.5,1.5,0.7,3.2,0.7,5c0,1.8-0.2,3.5-0.7,5c-0.5,1.5-1.2,2.8-2.2,3.8c-0.9,1.1-2,1.9-3.4,2.4C1104.5,437.2,1103,437.5,1101.3,437.5
	z M1101.3,432.4c1.3,0,2.3-0.4,3-1.2c0.7-0.8,1.1-1.9,1.1-3.4v-4.7c0-1.5-0.4-2.6-1.1-3.4c-0.7-0.8-1.7-1.2-3-1.2s-2.3,0.4-3,1.2
	c-0.7,0.8-1.1,1.9-1.1,3.4v4.7c0,1.5,0.4,2.6,1.1,3.4C1099,432,1100,432.4,1101.3,432.4z M1117,437.5c-1.3,0-2.3-0.3-2.9-1
	c-0.6-0.7-0.9-1.5-0.9-2.6v-0.9c0-1,0.3-1.9,0.9-2.5c0.6-0.7,1.6-1,2.9-1s2.3,0.3,2.9,1c0.6,0.6,1,1.5,1,2.5v0.9c0,1-0.3,1.9-1,2.6
	C1119.3,437.2,1118.3,437.5,1117,437.5z M1127.8,437.5c-1.3,0-2.3-0.3-2.9-1c-0.6-0.7-0.9-1.5-0.9-2.6v-0.9c0-1,0.3-1.9,0.9-2.5
	c0.6-0.7,1.6-1,2.9-1s2.3,0.3,2.9,1c0.6,0.6,1,1.5,1,2.5v0.9c0,1-0.3,1.9-1,2.6C1130,437.2,1129.1,437.5,1127.8,437.5z
	 M1138.5,437.5c-1.3,0-2.3-0.3-2.9-1c-0.6-0.7-0.9-1.5-0.9-2.6v-0.9c0-1,0.3-1.9,0.9-2.5c0.6-0.7,1.6-1,2.9-1c1.3,0,2.3,0.3,2.9,1
	c0.6,0.6,1,1.5,1,2.5v0.9c0,1-0.3,1.9-1,2.6C1140.8,437.2,1139.8,437.5,1138.5,437.5z M1149.3,437.5c-1.3,0-2.3-0.3-2.9-1
	c-0.6-0.7-0.9-1.5-0.9-2.6v-0.9c0-1,0.3-1.9,0.9-2.5c0.6-0.7,1.6-1,2.9-1c1.3,0,2.3,0.3,2.9,1c0.6,0.6,1,1.5,1,2.5v0.9
	c0,1-0.3,1.9-1,2.6C1151.6,437.2,1150.6,437.5,1149.3,437.5z M1160,437.5c-1.3,0-2.3-0.3-2.9-1c-0.6-0.7-0.9-1.5-0.9-2.6v-0.9
	c0-1,0.3-1.9,0.9-2.5c0.6-0.7,1.6-1,2.9-1c1.3,0,2.3,0.3,2.9,1c0.6,0.6,1,1.5,1,2.5v0.9c0,1-0.3,1.9-1,2.6
	C1162.3,437.2,1161.4,437.5,1160,437.5z M1170.8,437.5c-1.3,0-2.3-0.3-3-1c-0.6-0.7-0.9-1.5-0.9-2.6v-0.9c0-1,0.3-1.9,0.9-2.5
	c0.7-0.7,1.6-1,3-1c1.3,0,2.3,0.3,2.9,1c0.7,0.6,1,1.5,1,2.5v0.9c0,1-0.3,1.9-1,2.6C1173.1,437.2,1172.1,437.5,1170.8,437.5z
	 M1186.5,437.5c-1.7,0-3.2-0.3-4.6-0.8c-1.3-0.6-2.4-1.4-3.4-2.4c-0.9-1.1-1.6-2.3-2.1-3.8s-0.8-3.2-0.8-5c0-1.8,0.2-3.5,0.8-5
	s1.2-2.8,2.1-3.8c0.9-1.1,2.1-1.9,3.4-2.4c1.4-0.6,2.9-0.8,4.6-0.8c1.7,0,3.2,0.3,4.5,0.8c1.3,0.6,2.5,1.4,3.4,2.4
	c0.9,1,1.7,2.3,2.2,3.8s0.8,3.2,0.8,5c0,1.8-0.2,3.5-0.8,5s-1.2,2.8-2.2,3.8c-0.9,1.1-2,1.9-3.4,2.4
	C1189.7,437.2,1188.2,437.5,1186.5,437.5z M1186.5,432.4c1.3,0,2.3-0.4,3-1.2c0.7-0.8,1.1-1.9,1.1-3.4v-4.7c0-1.5-0.4-2.6-1.1-3.4
	c-0.7-0.8-1.7-1.2-3-1.2c-1.3,0-2.3,0.4-3,1.2c-0.7,0.8-1.1,1.9-1.1,3.4v4.7c0,1.5,0.4,2.6,1.1,3.4
	C1184.2,432,1185.2,432.4,1186.5,432.4z M1202.1,443.1v-39.5h5.5v39.5H1202.1z M1080.1,483.1v-39.5h5.5v39.5H1080.1z M1101.3,477.5
	c-1.7,0-3.2-0.3-4.6-0.8c-1.3-0.6-2.4-1.4-3.4-2.4c-0.9-1.1-1.6-2.3-2.1-3.8s-0.7-3.2-0.7-5c0-1.8,0.2-3.5,0.7-5s1.2-2.8,2.1-3.8
	c0.9-1.1,2.1-1.9,3.4-2.4c1.3-0.6,2.9-0.8,4.6-0.8c1.7,0,3.2,0.3,4.5,0.8c1.3,0.6,2.5,1.4,3.4,2.4c0.9,1,1.7,2.3,2.2,3.8
	c0.5,1.5,0.7,3.2,0.7,5c0,1.8-0.2,3.5-0.7,5c-0.5,1.5-1.2,2.8-2.2,3.8c-0.9,1.1-2,1.9-3.4,2.4C1104.5,477.2,1103,477.5,1101.3,477.5
	z M1101.3,472.4c1.3,0,2.3-0.4,3-1.2c0.7-0.8,1.1-1.9,1.1-3.4v-4.7c0-1.5-0.4-2.6-1.1-3.4c-0.7-0.8-1.7-1.2-3-1.2s-2.3,0.4-3,1.2
	c-0.7,0.8-1.1,1.9-1.1,3.4v4.7c0,1.5,0.4,2.6,1.1,3.4C1099,472,1100,472.4,1101.3,472.4z M1117,477.5c-1.3,0-2.3-0.3-2.9-1
	c-0.6-0.7-0.9-1.5-0.9-2.6v-0.9c0-1,0.3-1.9,0.9-2.5c0.6-0.7,1.6-1,2.9-1s2.3,0.3,2.9,1c0.6,0.6,1,1.5,1,2.5v0.9c0,1-0.3,1.9-1,2.6
	C1119.3,477.2,1118.3,477.5,1117,477.5z M1127.8,477.5c-1.3,0-2.3-0.3-2.9-1c-0.6-0.7-0.9-1.5-0.9-2.6v-0.9c0-1,0.3-1.9,0.9-2.5
	c0.6-0.7,1.6-1,2.9-1s2.3,0.3,2.9,1c0.6,0.6,1,1.5,1,2.5v0.9c0,1-0.3,1.9-1,2.6C1130,477.2,1129.1,477.5,1127.8,477.5z
	 M1138.5,477.5c-1.3,0-2.3-0.3-2.9-1c-0.6-0.7-0.9-1.5-0.9-2.6v-0.9c0-1,0.3-1.9,0.9-2.5c0.6-0.7,1.6-1,2.9-1c1.3,0,2.3,0.3,2.9,1
	c0.6,0.6,1,1.5,1,2.5v0.9c0,1-0.3,1.9-1,2.6C1140.8,477.2,1139.8,477.5,1138.5,477.5z M1149.3,477.5c-1.3,0-2.3-0.3-2.9-1
	c-0.6-0.7-0.9-1.5-0.9-2.6v-0.9c0-1,0.3-1.9,0.9-2.5c0.6-0.7,1.6-1,2.9-1c1.3,0,2.3,0.3,2.9,1c0.6,0.6,1,1.5,1,2.5v0.9
	c0,1-0.3,1.9-1,2.6C1151.6,477.2,1150.6,477.5,1149.3,477.5z M1160,477.5c-1.3,0-2.3-0.3-2.9-1c-0.6-0.7-0.9-1.5-0.9-2.6v-0.9
	c0-1,0.3-1.9,0.9-2.5c0.6-0.7,1.6-1,2.9-1c1.3,0,2.3,0.3,2.9,1c0.6,0.6,1,1.5,1,2.5v0.9c0,1-0.3,1.9-1,2.6
	C1162.3,477.2,1161.4,477.5,1160,477.5z M1170.8,477.5c-1.3,0-2.3-0.3-3-1c-0.6-0.7-0.9-1.5-0.9-2.6v-0.9c0-1,0.3-1.9,0.9-2.5
	c0.7-0.7,1.6-1,3-1c1.3,0,2.3,0.3,2.9,1c0.7,0.6,1,1.5,1,2.5v0.9c0,1-0.3,1.9-1,2.6C1173.1,477.2,1172.1,477.5,1170.8,477.5z
	 M1186.5,477.5c-1.7,0-3.2-0.3-4.6-0.8c-1.3-0.6-2.4-1.4-3.4-2.4c-0.9-1.1-1.6-2.3-2.1-3.8s-0.8-3.2-0.8-5c0-1.8,0.2-3.5,0.8-5
	s1.2-2.8,2.1-3.8c0.9-1.1,2.1-1.9,3.4-2.4c1.4-0.6,2.9-0.8,4.6-0.8c1.7,0,3.2,0.3,4.5,0.8c1.3,0.6,2.5,1.4,3.4,2.4
	c0.9,1,1.7,2.3,2.2,3.8s0.8,3.2,0.8,5c0,1.8-0.2,3.5-0.8,5s-1.2,2.8-2.2,3.8c-0.9,1.1-2,1.9-3.4,2.4
	C1189.7,477.2,1188.2,477.5,1186.5,477.5z M1186.5,472.4c1.3,0,2.3-0.4,3-1.2c0.7-0.8,1.1-1.9,1.1-3.4v-4.7c0-1.5-0.4-2.6-1.1-3.4
	c-0.7-0.8-1.7-1.2-3-1.2c-1.3,0-2.3,0.4-3,1.2c-0.7,0.8-1.1,1.9-1.1,3.4v4.7c0,1.5,0.4,2.6,1.1,3.4
	C1184.2,472,1185.2,472.4,1186.5,472.4z M1202.1,483.1v-39.5h5.5v39.5H1202.1z M1090.4,510.2v-8.1h-7.4v-5.2h7.4v-8.1h5.6v8.1h7.4
	v5.2h-7.4v8.1H1090.4z M1112.4,510.2v-8.1h-7.4v-5.2h7.4v-8.1h5.6v8.1h7.4v5.2h-7.4v8.1H1112.4z M1134.3,510.2v-8.1h-7.4v-5.2h7.4
	v-8.1h5.6v8.1h7.4v5.2h-7.4v8.1H1134.3z M1156.3,510.2v-8.1h-7.4v-5.2h7.4v-8.1h5.6v8.1h7.4v5.2h-7.4v8.1H1156.3z M1178.3,510.2
	v-8.1h-7.4v-5.2h7.4v-8.1h5.6v8.1h7.4v5.2h-7.4v8.1H1178.3z M1200.3,510.2v-8.1h-7.4v-5.2h7.4v-8.1h5.6v8.1h7.4v5.2h-7.4v8.1H1200.3
	z"/>
<path class="st0" d="M324.3,198v-2.5h2.2v-11.7h-2.2v-2.5h7.6v2.5h-2.2v11.7h2.2v2.5H324.3z M339.6,181.2h7.8c0.7,0,1.3,0.1,1.8,0.3
	c0.6,0.2,1,0.5,1.4,0.9c0.4,0.4,0.7,0.8,0.9,1.4c0.2,0.5,0.3,1.1,0.3,1.8c0,0.6-0.1,1.2-0.3,1.6c-0.2,0.4-0.4,0.8-0.7,1.1
	c-0.3,0.3-0.6,0.5-1,0.6c-0.4,0.1-0.7,0.2-1.1,0.2v0.1c0.4,0,0.8,0.1,1.2,0.2c0.4,0.1,0.8,0.4,1.2,0.7c0.4,0.3,0.7,0.7,0.9,1.2
	c0.2,0.5,0.4,1.1,0.4,1.8c0,0.7-0.1,1.3-0.3,1.9c-0.2,0.6-0.5,1.1-0.9,1.5c-0.4,0.4-0.8,0.8-1.4,1c-0.5,0.2-1.1,0.4-1.7,0.4h-8.5
	V181.2z M342.7,195.3h4.4c0.6,0,1.1-0.2,1.4-0.5c0.3-0.3,0.5-0.8,0.5-1.4v-0.8c0-0.6-0.2-1-0.5-1.4s-0.8-0.5-1.4-0.5h-4.4V195.3z
	 M342.7,188.2h3.9c0.6,0,1-0.2,1.3-0.5c0.3-0.3,0.5-0.8,0.5-1.3v-0.7c0-0.6-0.2-1-0.5-1.3c-0.3-0.3-0.8-0.5-1.3-0.5h-3.9V188.2z
	 M372.6,186L372.6,186l-1.4,2.7l-3.4,6.3l-3.4-6.3L363,186h-0.1v12h-3v-16.8h3.6l4.3,8.2h0.1l4.2-8.2h3.4V198h-3V186z M404.4,198
	l-1.3-4.3h-6l-1.3,4.3h-3.2l5.6-16.8h3.9l5.6,16.8H404.4z M400.2,184.1H400l-2.1,6.9h4.4L400.2,184.1z M417.1,181.2v10.3
	c0,1.3,0.2,2.3,0.7,3c0.5,0.7,1.4,1,2.6,1c1.2,0,2-0.3,2.5-1c0.5-0.7,0.8-1.6,0.8-3v-10.3h3.1v9.9c0,1.2-0.1,2.3-0.4,3.2
	c-0.2,0.9-0.6,1.6-1.1,2.2c-0.5,0.6-1.2,1-2,1.3c-0.8,0.3-1.8,0.4-3,0.4c-1.2,0-2.2-0.1-3-0.4c-0.8-0.3-1.5-0.7-2-1.3
	c-0.5-0.6-0.9-1.3-1.1-2.2s-0.3-2-0.3-3.2v-9.9H417.1z M441.7,184.1V198h-3.2v-13.9h-4.8v-2.8h12.7v2.8H441.7z M459.5,198.3
	c-1.1,0-2.1-0.2-3-0.6c-0.9-0.4-1.7-0.9-2.3-1.7c-0.6-0.7-1.1-1.6-1.5-2.7c-0.4-1.1-0.5-2.3-0.5-3.7c0-1.4,0.2-2.6,0.5-3.7
	c0.4-1.1,0.8-2,1.5-2.7c0.6-0.7,1.4-1.3,2.3-1.7c0.9-0.4,1.9-0.6,3-0.6c1.1,0,2.1,0.2,3,0.6c0.9,0.4,1.7,0.9,2.3,1.7
	c0.6,0.7,1.1,1.6,1.5,2.7c0.4,1.1,0.5,2.3,0.5,3.7c0,1.4-0.2,2.7-0.5,3.7c-0.3,1.1-0.8,2-1.5,2.7c-0.6,0.7-1.4,1.3-2.3,1.7
	C461.6,198.1,460.6,198.3,459.5,198.3z M459.5,195.5c1.2,0,2.2-0.4,2.9-1.2c0.7-0.8,1.1-1.9,1.1-3.4v-2.6c0-1.4-0.4-2.6-1.1-3.4
	c-0.7-0.8-1.7-1.2-2.9-1.2c-1.2,0-2.2,0.4-2.9,1.2c-0.7,0.8-1.1,1.9-1.1,3.4v2.6c0,1.4,0.4,2.6,1.1,3.4
	C457.3,195.1,458.3,195.5,459.5,195.5z M487.1,186L487.1,186l-1.4,2.7l-3.4,6.3l-3.4-6.3l-1.3-2.7h-0.1v12h-3v-16.8h3.6l4.3,8.2h0.1
	l4.2-8.2h3.4V198h-3V186z M508.8,198l-1.3-4.3h-6l-1.3,4.3H497l5.6-16.8h3.9l5.6,16.8H508.8z M504.5,184.1h-0.1l-2.1,6.9h4.4
	L504.5,184.1z M524,184.1V198h-3.2v-13.9h-4.8v-2.8h12.7v2.8H524z M535,198v-2.5h2.2v-11.7H535v-2.5h7.6v2.5h-2.2v11.7h2.2v2.5H535z
	 M556.8,198.3c-1.1,0-2.1-0.2-3-0.5c-0.9-0.4-1.6-0.9-2.3-1.6c-0.6-0.7-1.1-1.6-1.4-2.7c-0.3-1.1-0.5-2.3-0.5-3.7s0.2-2.7,0.5-3.7
	c0.3-1.1,0.8-2,1.4-2.8c0.6-0.8,1.4-1.3,2.3-1.7c0.9-0.4,1.9-0.6,3-0.6c1.5,0,2.8,0.3,3.7,1c1,0.6,1.8,1.6,2.4,2.9l-2.7,1.4
	c-0.2-0.8-0.6-1.4-1.2-1.8c-0.5-0.5-1.3-0.7-2.2-0.7c-1.2,0-2.1,0.4-2.8,1.2c-0.7,0.8-1,1.9-1,3.4v2.6c0,1.5,0.3,2.6,1,3.4
	c0.7,0.8,1.6,1.2,2.8,1.2c0.9,0,1.7-0.3,2.3-0.8c0.6-0.5,1-1.1,1.3-1.9l2.6,1.5c-0.6,1.2-1.4,2.2-2.4,2.9
	C559.5,197.9,558.3,198.3,556.8,198.3z M585.4,198.3c-1.4,0-2.7-0.3-3.7-0.8c-1-0.5-1.8-1.2-2.6-2l2.1-2.1c0.6,0.7,1.2,1.2,1.9,1.5
	c0.7,0.4,1.5,0.5,2.4,0.5c1,0,1.7-0.2,2.2-0.6c0.5-0.4,0.7-1,0.7-1.7c0-0.6-0.2-1-0.5-1.4c-0.3-0.4-0.9-0.6-1.8-0.8l-1.6-0.2
	c-3.3-0.5-5-2.2-5-4.9c0-0.8,0.1-1.4,0.4-2c0.3-0.6,0.7-1.1,1.2-1.6c0.5-0.4,1.2-0.8,1.9-1c0.8-0.2,1.6-0.4,2.5-0.4
	c1.3,0,2.4,0.2,3.3,0.6s1.8,1,2.4,1.8l-2.2,2c-0.4-0.5-0.9-0.9-1.5-1.2c-0.6-0.3-1.3-0.5-2.2-0.5c-0.9,0-1.6,0.2-2.1,0.5
	c-0.4,0.3-0.7,0.8-0.7,1.4c0,0.6,0.2,1.1,0.6,1.4c0.4,0.3,1,0.5,1.8,0.7l1.6,0.3c1.7,0.3,2.9,0.8,3.7,1.6c0.8,0.8,1.2,1.8,1.2,3.2
	c0,0.8-0.1,1.5-0.4,2.2c-0.3,0.6-0.7,1.2-1.2,1.7c-0.5,0.5-1.2,0.8-2,1.1C587.3,198.2,586.4,198.3,585.4,198.3z M599.3,198v-16.8h11
	v2.8h-7.9v4.1h7v2.8h-7v4.3h7.9v2.8H599.3z M629,202.3h-2.3c-1.1,0-1.9-0.3-2.4-0.8c-0.5-0.5-0.8-1.3-0.8-2.3v-1
	c-1.8-0.3-3.3-1.1-4.4-2.6c-1.1-1.5-1.6-3.4-1.6-6c0-1.4,0.2-2.6,0.5-3.7c0.4-1.1,0.8-2,1.5-2.7c0.6-0.7,1.4-1.3,2.3-1.7
	c0.9-0.4,1.9-0.6,3-0.6c1.1,0,2.1,0.2,3,0.6c0.9,0.4,1.7,0.9,2.3,1.7s1.1,1.6,1.5,2.7c0.4,1.1,0.5,2.3,0.5,3.7
	c0,2.5-0.5,4.4-1.5,5.9c-1,1.4-2.4,2.3-4.1,2.6v1.6h2.6V202.3z M624.7,195.5c1.2,0,2.2-0.4,2.9-1.2c0.7-0.8,1.1-1.9,1.1-3.4v-2.6
	c0-1.4-0.4-2.6-1.1-3.4c-0.7-0.8-1.7-1.2-2.9-1.2s-2.2,0.4-2.9,1.2c-0.7,0.8-1.1,1.9-1.1,3.4v2.6c0,1.4,0.4,2.6,1.1,3.4
	C622.6,195.1,623.5,195.5,624.7,195.5z M642.7,181.2v10.3c0,1.3,0.2,2.3,0.7,3c0.5,0.7,1.4,1,2.6,1c1.2,0,2-0.3,2.5-1
	c0.5-0.7,0.8-1.6,0.8-3v-10.3h3.1v9.9c0,1.2-0.1,2.3-0.4,3.2c-0.2,0.9-0.6,1.6-1.1,2.2c-0.5,0.6-1.2,1-2,1.3c-0.8,0.3-1.8,0.4-3,0.4
	c-1.2,0-2.2-0.1-3-0.4c-0.8-0.3-1.5-0.7-2-1.3c-0.5-0.6-0.9-1.3-1.1-2.2s-0.3-2-0.3-3.2v-9.9H642.7z M660.7,198v-16.8h11v2.8h-7.9
	v4.1h7v2.8h-7v4.3h7.9v2.8H660.7z M684.3,189.4l-1.7-3.5h-0.1V198h-3v-16.8h3.5l5,8.6l1.7,3.5h0.1v-12.1h3V198h-3.5L684.3,189.4z
	 M707.7,198.3c-1.1,0-2.1-0.2-3-0.5c-0.9-0.4-1.6-0.9-2.3-1.6c-0.6-0.7-1.1-1.6-1.4-2.7c-0.3-1.1-0.5-2.3-0.5-3.7s0.2-2.7,0.5-3.7
	c0.3-1.1,0.8-2,1.4-2.8c0.6-0.8,1.4-1.3,2.3-1.7c0.9-0.4,1.9-0.6,3-0.6c1.5,0,2.8,0.3,3.7,1s1.8,1.6,2.4,2.9l-2.7,1.4
	c-0.2-0.8-0.6-1.4-1.2-1.8c-0.5-0.5-1.3-0.7-2.2-0.7c-1.2,0-2.1,0.4-2.8,1.2c-0.7,0.8-1,1.9-1,3.4v2.6c0,1.5,0.3,2.6,1,3.4
	c0.7,0.8,1.6,1.2,2.8,1.2c0.9,0,1.7-0.3,2.3-0.8c0.6-0.5,1-1.1,1.3-1.9l2.6,1.5c-0.6,1.2-1.4,2.2-2.4,2.9
	C710.5,197.9,709.2,198.3,707.7,198.3z M721.1,198v-16.8h11v2.8h-7.9v4.1h7v2.8h-7v4.3h7.9v2.8H721.1z M756.5,198.3
	c-1.1,0-2.1-0.2-3-0.5c-0.9-0.4-1.6-0.9-2.3-1.6c-0.6-0.7-1.1-1.6-1.4-2.7c-0.3-1.1-0.5-2.3-0.5-3.7s0.2-2.7,0.5-3.7
	c0.3-1.1,0.8-2,1.4-2.8c0.6-0.8,1.4-1.3,2.3-1.7c0.9-0.4,1.9-0.6,3-0.6c1.5,0,2.8,0.3,3.7,1s1.8,1.6,2.4,2.9l-2.7,1.4
	c-0.2-0.8-0.6-1.4-1.2-1.8c-0.5-0.5-1.3-0.7-2.2-0.7c-1.2,0-2.1,0.4-2.8,1.2c-0.7,0.8-1,1.9-1,3.4v2.6c0,1.5,0.3,2.6,1,3.4
	c0.7,0.8,1.6,1.2,2.8,1.2c0.9,0,1.7-0.3,2.3-0.8c0.6-0.5,1-1.1,1.3-1.9l2.6,1.5c-0.6,1.2-1.4,2.2-2.4,2.9
	C759.3,197.9,758,198.3,756.5,198.3z M776.1,198.3c-1.1,0-2.1-0.2-3-0.6c-0.9-0.4-1.7-0.9-2.3-1.7c-0.6-0.7-1.1-1.6-1.5-2.7
	s-0.5-2.3-0.5-3.7c0-1.4,0.2-2.6,0.5-3.7c0.4-1.1,0.8-2,1.5-2.7c0.6-0.7,1.4-1.3,2.3-1.7c0.9-0.4,1.9-0.6,3-0.6s2.1,0.2,3,0.6
	c0.9,0.4,1.7,0.9,2.3,1.7s1.1,1.6,1.5,2.7c0.4,1.1,0.5,2.3,0.5,3.7c0,1.4-0.2,2.7-0.5,3.7c-0.3,1.1-0.8,2-1.5,2.7s-1.4,1.3-2.3,1.7
	C778.2,198.1,777.2,198.3,776.1,198.3z M776.1,195.5c1.2,0,2.2-0.4,2.9-1.2c0.7-0.8,1.1-1.9,1.1-3.4v-2.6c0-1.4-0.4-2.6-1.1-3.4
	c-0.7-0.8-1.7-1.2-2.9-1.2s-2.2,0.4-2.9,1.2c-0.7,0.8-1.1,1.9-1.1,3.4v2.6c0,1.4,0.4,2.6,1.1,3.4C774,195.1,774.9,195.5,776.1,195.5
	z M795.9,189.4l-1.7-3.5h-0.1V198h-3v-16.8h3.5l5,8.6l1.7,3.5h0.1v-12.1h3V198h-3.5L795.9,189.4z M819.3,184.1V198h-3.2v-13.9h-4.8
	v-2.8h12.7v2.8H819.3z M834.3,198h-3.2v-16.8h7.6c0.8,0,1.5,0.1,2.1,0.4c0.6,0.2,1.1,0.6,1.5,1.1c0.4,0.4,0.8,1,1,1.6
	c0.2,0.6,0.4,1.4,0.4,2.1c0,1.2-0.3,2.1-0.8,3c-0.5,0.8-1.3,1.4-2.3,1.8l3.4,6.8h-3.5l-3.1-6.5h-3V198z M838.4,188.9
	c0.6,0,1.1-0.2,1.4-0.5c0.4-0.3,0.5-0.8,0.5-1.4v-1.1c0-0.6-0.2-1.1-0.5-1.4c-0.4-0.3-0.8-0.5-1.4-0.5h-4.1v4.9H838.4z M857.8,198.3
	c-1.1,0-2.1-0.2-3-0.6c-0.9-0.4-1.7-0.9-2.3-1.7c-0.6-0.7-1.1-1.6-1.5-2.7s-0.5-2.3-0.5-3.7c0-1.4,0.2-2.6,0.5-3.7
	c0.4-1.1,0.8-2,1.5-2.7c0.6-0.7,1.4-1.3,2.3-1.7c0.9-0.4,1.9-0.6,3-0.6s2.1,0.2,3,0.6c0.9,0.4,1.7,0.9,2.3,1.7
	c0.6,0.7,1.1,1.6,1.5,2.7c0.4,1.1,0.5,2.3,0.5,3.7c0,1.4-0.2,2.7-0.5,3.7c-0.3,1.1-0.8,2-1.5,2.7c-0.6,0.7-1.4,1.3-2.3,1.7
	C859.9,198.1,858.9,198.3,857.8,198.3z M857.8,195.5c1.2,0,2.2-0.4,2.9-1.2c0.7-0.8,1.1-1.9,1.1-3.4v-2.6c0-1.4-0.4-2.6-1.1-3.4
	c-0.7-0.8-1.7-1.2-2.9-1.2s-2.2,0.4-2.9,1.2c-0.7,0.8-1.1,1.9-1.1,3.4v2.6c0,1.4,0.4,2.6,1.1,3.4
	C855.7,195.1,856.6,195.5,857.8,195.5z M872.8,198v-16.8h3.2v13.9h6.6v2.8H872.8z M889.7,198v-16.8h3.2v13.9h6.6v2.8H889.7z
	 M906.7,198v-16.8h11v2.8h-7.9v4.1h7v2.8h-7v4.3h7.9v2.8H906.7z M925.5,181.2h6.1c1.1,0,2.1,0.2,3,0.5c0.9,0.4,1.7,0.9,2.3,1.6
	c0.6,0.7,1.1,1.6,1.5,2.6c0.4,1,0.5,2.3,0.5,3.6s-0.2,2.6-0.5,3.7c-0.3,1-0.8,1.9-1.5,2.6c-0.6,0.7-1.4,1.2-2.3,1.6
	c-0.9,0.4-1.9,0.5-3,0.5h-6.1V181.2z M931.6,195.2c1.2,0,2.1-0.3,2.8-1c0.7-0.7,1.1-1.8,1.1-3.2v-2.6c0-1.4-0.4-2.5-1.1-3.2
	c-0.7-0.7-1.6-1.1-2.8-1.1h-2.9v11.1H931.6z M963.1,198.3c-1.1,0-2.1-0.2-3-0.5c-0.9-0.4-1.6-0.9-2.3-1.6c-0.6-0.7-1.1-1.6-1.4-2.7
	c-0.3-1.1-0.5-2.3-0.5-3.7s0.2-2.7,0.5-3.7c0.3-1.1,0.8-2,1.4-2.8c0.6-0.8,1.4-1.3,2.3-1.7c0.9-0.4,1.9-0.6,3-0.6
	c1.5,0,2.8,0.3,3.7,1c1,0.6,1.8,1.6,2.4,2.9l-2.7,1.4c-0.2-0.8-0.6-1.4-1.2-1.8c-0.5-0.5-1.3-0.7-2.2-0.7c-1.2,0-2.1,0.4-2.8,1.2
	c-0.7,0.8-1,1.9-1,3.4v2.6c0,1.5,0.3,2.6,1,3.4c0.7,0.8,1.6,1.2,2.8,1.2c0.9,0,1.7-0.3,2.3-0.8c0.6-0.5,1-1.1,1.3-1.9l2.6,1.5
	c-0.6,1.2-1.4,2.2-2.4,2.9C965.9,197.9,964.6,198.3,963.1,198.3z M986.7,198l-1.3-4.3h-6l-1.3,4.3h-3.2l5.6-16.8h3.9L990,198H986.7z
	 M982.4,184.1h-0.1l-2.1,6.9h4.4L982.4,184.1z M996.9,198v-16.8h3.2v13.9h6.6v2.8H996.9z M1019.5,198.3c-1.1,0-2.1-0.2-3-0.5
	c-0.9-0.4-1.6-0.9-2.3-1.6c-0.6-0.7-1.1-1.6-1.4-2.7c-0.3-1.1-0.5-2.3-0.5-3.7s0.2-2.7,0.5-3.7c0.3-1.1,0.8-2,1.4-2.8
	c0.6-0.8,1.4-1.3,2.3-1.7c0.9-0.4,1.9-0.6,3-0.6c1.5,0,2.8,0.3,3.7,1c1,0.6,1.8,1.6,2.4,2.9l-2.7,1.4c-0.2-0.8-0.6-1.4-1.2-1.8
	c-0.5-0.5-1.3-0.7-2.2-0.7c-1.2,0-2.1,0.4-2.8,1.2c-0.7,0.8-1,1.9-1,3.4v2.6c0,1.5,0.3,2.6,1,3.4c0.7,0.8,1.6,1.2,2.8,1.2
	c0.9,0,1.7-0.3,2.3-0.8c0.6-0.5,1-1.1,1.3-1.9l2.6,1.5c-0.6,1.2-1.4,2.2-2.4,2.9C1022.2,197.9,1021,198.3,1019.5,198.3z
	 M1035.8,181.2v10.3c0,1.3,0.2,2.3,0.7,3c0.5,0.7,1.4,1,2.6,1s2-0.3,2.5-1c0.5-0.7,0.8-1.6,0.8-3v-10.3h3.1v9.9
	c0,1.2-0.1,2.3-0.4,3.2c-0.2,0.9-0.6,1.6-1.1,2.2c-0.5,0.6-1.2,1-2,1.3c-0.8,0.3-1.8,0.4-3,0.4c-1.2,0-2.2-0.1-3-0.4
	c-0.8-0.3-1.5-0.7-2-1.3c-0.5-0.6-0.9-1.3-1.1-2.2c-0.2-0.9-0.3-2-0.3-3.2v-9.9H1035.8z M1053.8,198v-16.8h3.2v13.9h6.6v2.8H1053.8z
	 M1081.6,198l-1.3-4.3h-6l-1.3,4.3h-3.2l5.6-16.8h3.9l5.6,16.8H1081.6z M1077.3,184.1h-0.1l-2.1,6.9h4.4L1077.3,184.1z
	 M1096.8,184.1V198h-3.2v-13.9h-4.8v-2.8h12.7v2.8H1096.8z M1114.5,198.3c-1.1,0-2.1-0.2-3-0.6c-0.9-0.4-1.7-0.9-2.3-1.7
	c-0.6-0.7-1.1-1.6-1.5-2.7c-0.4-1.1-0.5-2.3-0.5-3.7c0-1.4,0.2-2.6,0.5-3.7c0.4-1.1,0.8-2,1.5-2.7c0.6-0.7,1.4-1.3,2.3-1.7
	c0.9-0.4,1.9-0.6,3-0.6s2.1,0.2,3,0.6c0.9,0.4,1.7,0.9,2.3,1.7c0.6,0.7,1.1,1.6,1.5,2.7c0.4,1.1,0.5,2.3,0.5,3.7
	c0,1.4-0.2,2.7-0.5,3.7c-0.3,1.1-0.8,2-1.5,2.7c-0.6,0.7-1.4,1.3-2.3,1.7C1116.6,198.1,1115.6,198.3,1114.5,198.3z M1114.5,195.5
	c1.2,0,2.2-0.4,2.9-1.2c0.7-0.8,1.1-1.9,1.1-3.4v-2.6c0-1.4-0.4-2.6-1.1-3.4c-0.7-0.8-1.7-1.2-2.9-1.2s-2.2,0.4-2.9,1.2
	c-0.7,0.8-1.1,1.9-1.1,3.4v2.6c0,1.4,0.4,2.6,1.1,3.4C1112.4,195.1,1113.3,195.5,1114.5,195.5z M1132.7,198h-3.2v-16.8h7.6
	c0.8,0,1.5,0.1,2.1,0.4c0.6,0.2,1.1,0.6,1.5,1.1c0.4,0.4,0.8,1,1,1.6c0.2,0.6,0.4,1.4,0.4,2.1c0,1.2-0.3,2.1-0.8,3
	c-0.5,0.8-1.3,1.4-2.3,1.8l3.4,6.8h-3.5l-3.1-6.5h-3V198z M1136.7,188.9c0.6,0,1.1-0.2,1.4-0.5c0.4-0.3,0.5-0.8,0.5-1.4v-1.1
	c0-0.6-0.2-1.1-0.5-1.4c-0.4-0.3-0.8-0.5-1.4-0.5h-4.1v4.9H1136.7z"/>
</svg>
