<?xml version="1.0" encoding="utf-8"?>
<!-- Generator: Adobe Illustrator 23.0.3, SVG Export Plug-In . SVG Version: 6.00 Build 0)  -->
<svg version="1.1" id="Слой_1" xmlns="http://www.w3.org/2000/svg" xmlns:xlink="http://www.w3.org/1999/xlink" x="0px" y="0px"
	 viewBox="0 0 800 797" style="enable-background:new 0 0 800 797;" xml:space="preserve">
<style type="text/css">
	.st0{fill:#4589FF;}
</style>
<path class="st0" d="M156.9,28.3l10.6-6.7v-0.3l-10.6-6.7V8l17.5,11.5v3.9L156.9,35V28.3z M180.7,28.3l10.6-6.7v-0.3l-10.6-6.7V8
	l17.5,11.5v3.9L180.7,35V28.3z M221.5,32.4c-1,0.8-2.2,1.5-3.6,2.1c-1.4,0.6-3.2,0.9-5.3,0.9c-1.7,0-3.2-0.2-4.5-0.6
	c-1.3-0.4-2.4-1.1-3.3-1.8c-0.9-0.8-1.6-1.7-2-2.8c-0.4-1.1-0.7-2.2-0.7-3.5c0-1.1,0.1-2,0.4-2.8c0.3-0.8,0.8-1.6,1.3-2.3
	c0.6-0.7,1.2-1.3,2-1.9c0.8-0.6,1.6-1.1,2.5-1.6c-0.4-0.5-0.9-1-1.3-1.6s-0.8-1.2-1.1-1.8s-0.6-1.3-0.8-2c-0.2-0.7-0.3-1.4-0.3-2.1
	c0-1,0.2-2,0.6-2.8c0.4-0.9,1.1-1.7,1.9-2.4c0.8-0.7,1.8-1.2,2.9-1.6c1.2-0.4,2.4-0.6,3.9-0.6c1.3,0,2.4,0.2,3.5,0.5
	c1.1,0.3,2,0.8,2.8,1.4c0.8,0.6,1.4,1.3,1.9,2.2c0.5,0.9,0.7,1.9,0.7,3c0,1-0.2,1.9-0.5,2.7c-0.3,0.8-0.8,1.5-1.3,2.2
	c-0.6,0.7-1.2,1.3-2,1.8c-0.7,0.6-1.5,1.1-2.4,1.6l4.8,5.2c0.4-0.9,0.7-2,0.9-3c0.2-1.1,0.3-2.1,0.4-3.2h7.4v5.5h-2.8
	c-0.5,1.9-1.2,3.5-2,4.9l6.2,6.7h-8L221.5,32.4z M214,8.3c-0.8,0-1.5,0.2-2,0.7c-0.5,0.4-0.8,1.1-0.8,1.9v0.2c0,0.6,0.2,1.2,0.6,1.8
	c0.4,0.6,1,1.4,2,2.4c1-0.6,1.8-1.2,2.4-1.9c0.5-0.7,0.8-1.4,0.8-2.3v-0.2c0-0.8-0.3-1.4-0.8-1.9C215.4,8.6,214.8,8.3,214,8.3z
	 M213.6,30c1.7,0,3.2-0.4,4.5-1.2l-6.5-7.1c-1,0.6-1.7,1.2-2.1,1.8c-0.4,0.6-0.6,1.3-0.6,2.1V26c0,1.1,0.4,2.1,1.2,2.8
	C210.8,29.6,212,30,213.6,30z M238,43.3v-5.5H260v5.5H238z M259.8,43.3v-5.5h22.1v5.5H259.8z M281.6,43.3v-5.5h22.1v5.5H281.6z
	 M303.4,43.3v-5.5h22.1v5.5H303.4z M325.2,43.3v-5.5h22.1v5.5H325.2z M347.1,43.3v-5.5h22.1v5.5H347.1z M368.9,43.3v-5.5h22.1v5.5
	H368.9z M390.7,43.3v-5.5h22.1v5.5H390.7z M410.9,87l-13.2-39.6h5.4L416.4,87H410.9z M422.6,88.7v-5.5h22.1v5.5H422.6z M444.4,88.7
	v-5.5h22.1v5.5H444.4z M466.2,88.7v-5.5h22.1v5.5H466.2z M433.5,126.2c-1.3,0-2.3-0.3-3-1c-0.6-0.7-0.9-1.5-0.9-2.6v-0.9
	c0-1,0.3-1.9,0.9-2.5c0.7-0.7,1.6-1,3-1c1.3,0,2.3,0.3,2.9,1c0.7,0.7,1,1.5,1,2.5v0.9c0,1-0.3,1.9-1,2.6
	C435.8,125.8,434.8,126.2,433.5,126.2z M444.3,126.2c-1.3,0-2.3-0.3-3-1c-0.6-0.7-0.9-1.5-0.9-2.6v-0.9c0-1,0.3-1.9,0.9-2.5
	c0.7-0.7,1.6-1,3-1s2.3,0.3,2.9,1c0.7,0.7,1,1.5,1,2.5v0.9c0,1-0.3,1.9-1,2.6C446.6,125.8,445.7,126.2,444.3,126.2z M455.2,126.2
	c-1.3,0-2.3-0.3-3-1c-0.6-0.7-0.9-1.5-0.9-2.6v-0.9c0-1,0.3-1.9,0.9-2.5c0.7-0.7,1.6-1,3-1c1.3,0,2.3,0.3,2.9,1c0.7,0.7,1,1.5,1,2.5
	v0.9c0,1-0.3,1.9-1,2.6C457.5,125.8,456.5,126.2,455.2,126.2z M466.1,126.2c-1.3,0-2.3-0.3-3-1c-0.6-0.7-0.9-1.5-0.9-2.6v-0.9
	c0-1,0.3-1.9,0.9-2.5c0.7-0.7,1.6-1,3-1s2.3,0.3,2.9,1c0.7,0.7,1,1.5,1,2.5v0.9c0,1-0.3,1.9-1,2.6
	C468.4,125.8,467.4,126.2,466.1,126.2z M477,126.2c-1.3,0-2.3-0.3-3-1c-0.6-0.7-0.9-1.5-0.9-2.6v-0.9c0-1,0.3-1.9,0.9-2.5
	c0.7-0.7,1.6-1,3-1c1.3,0,2.3,0.3,2.9,1c0.7,0.7,1,1.5,1,2.5v0.9c0,1-0.3,1.9-1,2.6C479.3,125.8,478.3,126.2,477,126.2z
	 M487.8,126.2c-1.3,0-2.3-0.3-3-1c-0.6-0.7-0.9-1.5-0.9-2.6v-0.9c0-1,0.3-1.9,0.9-2.5c0.7-0.7,1.6-1,3-1c1.3,0,2.3,0.3,2.9,1
	c0.7,0.7,1,1.5,1,2.5v0.9c0,1-0.3,1.9-1,2.6C490.1,125.8,489.2,126.2,487.8,126.2z M506.7,132.4l-13.2-39.6h5.4l13.2,39.6H506.7z
	 M486.8,171.5c-1.3,0-2.3-0.3-3-1c-0.6-0.7-0.9-1.5-0.9-2.6v-0.9c0-1,0.3-1.9,0.9-2.5c0.7-0.7,1.6-1,3-1c1.3,0,2.3,0.3,2.9,1
	c0.7,0.7,1,1.5,1,2.5v0.9c0,1-0.3,1.9-1,2.6C489.1,171.2,488.1,171.5,486.8,171.5z M494.2,160.7v-6.8c2.3-0.1,4.1-0.5,5.2-1.2
	c1.2-0.7,1.8-1.9,1.8-3.6v-0.6c0-1.1-0.3-2-1-2.6c-0.7-0.6-1.5-0.9-2.6-0.9c-1.2,0-2.1,0.4-2.9,1.1c-0.7,0.7-1.2,1.6-1.5,2.7
	l-5.4-2.3c0.3-0.9,0.7-1.7,1.2-2.6c0.5-0.9,1.2-1.6,2-2.3c0.8-0.7,1.8-1.2,2.9-1.6c1.2-0.4,2.5-0.6,4-0.6c1.5,0,2.9,0.2,4.2,0.7
	s2.4,1.1,3.3,1.9c0.9,0.8,1.6,1.8,2.1,2.9c0.5,1.1,0.8,2.4,0.8,3.7c0,1.2-0.2,2.4-0.6,3.4c-0.4,1-1,1.9-1.7,2.7
	c-0.7,0.7-1.5,1.3-2.5,1.8c-0.9,0.5-1.9,0.8-3,1v3.2H494.2z M497.4,171.6c-1.4,0-2.4-0.3-3.1-1c-0.6-0.7-0.9-1.5-0.9-2.4v-1.1
	c0-0.9,0.3-1.7,0.9-2.4c0.6-0.7,1.6-1,3.1-1s2.4,0.3,3,1c0.6,0.7,0.9,1.5,0.9,2.4v1.1c0,0.9-0.3,1.7-0.9,2.4
	C499.9,171.3,498.9,171.6,497.4,171.6z M513.7,137.7c1.3,0,2.3,0.3,2.9,0.9c0.6,0.6,0.9,1.3,0.9,2.3v0.9c0,0.9-0.1,1.7-0.4,2.6
	c-0.2,0.9-0.6,1.7-1,2.5c-0.4,0.8-0.9,1.6-1.5,2.3c-0.6,0.7-1.2,1.3-1.9,1.8h-4.1c1-0.9,1.8-1.8,2.5-2.7c0.7-0.9,1.2-1.9,1.6-3.1
	c-0.9-0.2-1.6-0.6-2.1-1.2c-0.4-0.6-0.7-1.3-0.7-2.1v-1.1c0-0.9,0.3-1.7,0.9-2.3C511.4,138,512.4,137.7,513.7,137.7z M520.8,171.5
	c-1.3,0-2.3-0.3-3-1c-0.6-0.7-0.9-1.5-0.9-2.6v-0.9c0-1,0.3-1.9,0.9-2.5c0.7-0.7,1.6-1,3-1s2.3,0.3,2.9,1c0.7,0.7,1,1.5,1,2.5v0.9
	c0,1-0.3,1.9-1,2.6C523.1,171.2,522.1,171.5,520.8,171.5z M539.6,177.8l-13.2-39.6h5.4l13.2,39.6H539.6z M486.3,213.9
	c-1,0.8-2.2,1.5-3.6,2.1c-1.4,0.6-3.2,0.9-5.3,0.9c-1.7,0-3.2-0.2-4.5-0.6c-1.3-0.4-2.4-1.1-3.3-1.8c-0.9-0.8-1.6-1.7-2-2.8
	c-0.4-1.1-0.7-2.2-0.7-3.5c0-1.1,0.1-2,0.4-2.8c0.3-0.8,0.8-1.6,1.3-2.3c0.6-0.7,1.2-1.3,2-1.9s1.6-1.1,2.5-1.6
	c-0.4-0.5-0.9-1-1.3-1.6c-0.4-0.6-0.8-1.2-1.1-1.8c-0.3-0.6-0.6-1.3-0.8-2c-0.2-0.7-0.3-1.4-0.3-2.1c0-1,0.2-2,0.6-2.8
	c0.4-0.9,1.1-1.7,1.9-2.4c0.8-0.7,1.8-1.2,2.9-1.6c1.2-0.4,2.4-0.6,3.9-0.6c1.3,0,2.4,0.2,3.5,0.5c1.1,0.3,2,0.8,2.8,1.4
	c0.8,0.6,1.4,1.3,1.9,2.2c0.5,0.9,0.7,1.9,0.7,3c0,1-0.2,1.9-0.5,2.7c-0.3,0.8-0.8,1.5-1.3,2.2c-0.6,0.7-1.2,1.3-2,1.8
	c-0.7,0.6-1.5,1.1-2.4,1.6l4.8,5.2c0.4-0.9,0.7-2,0.9-3c0.2-1.1,0.3-2.1,0.4-3.2h7.4v5.5h-2.8c-0.5,1.9-1.2,3.5-2,4.9l6.2,6.7h-8
	L486.3,213.9z M478.8,189.9c-0.8,0-1.5,0.2-2,0.7c-0.5,0.4-0.8,1.1-0.8,1.9v0.2c0,0.6,0.2,1.2,0.6,1.8c0.4,0.6,1,1.4,2,2.4
	c1-0.6,1.8-1.2,2.4-1.9c0.5-0.7,0.8-1.4,0.8-2.3v-0.2c0-0.8-0.3-1.4-0.8-1.9C480.2,190.1,479.6,189.9,478.8,189.9z M478.4,211.5
	c1.7,0,3.2-0.4,4.5-1.2l-6.5-7.1c-1,0.6-1.7,1.2-2.1,1.8s-0.6,1.3-0.6,2.1v0.4c0,1.1,0.4,2.1,1.2,2.8
	C475.6,211.1,476.8,211.5,478.4,211.5z M515.5,213.9c-1,0.8-2.2,1.5-3.6,2.1c-1.4,0.6-3.2,0.9-5.3,0.9c-1.7,0-3.2-0.2-4.5-0.6
	c-1.3-0.4-2.4-1.1-3.3-1.8c-0.9-0.8-1.6-1.7-2-2.8c-0.4-1.1-0.7-2.2-0.7-3.5c0-1.1,0.1-2,0.4-2.8c0.3-0.8,0.8-1.6,1.3-2.3
	c0.6-0.7,1.2-1.3,2-1.9s1.6-1.1,2.5-1.6c-0.4-0.5-0.9-1-1.3-1.6c-0.4-0.6-0.8-1.2-1.1-1.8c-0.3-0.6-0.6-1.3-0.8-2
	c-0.2-0.7-0.3-1.4-0.3-2.1c0-1,0.2-2,0.6-2.8c0.4-0.9,1.1-1.7,1.9-2.4c0.8-0.7,1.8-1.2,2.9-1.6c1.2-0.4,2.4-0.6,3.9-0.6
	c1.3,0,2.4,0.2,3.5,0.5c1.1,0.3,2,0.8,2.8,1.4c0.8,0.6,1.4,1.3,1.9,2.2c0.5,0.9,0.7,1.9,0.7,3c0,1-0.2,1.9-0.5,2.7s-0.8,1.5-1.3,2.2
	c-0.6,0.7-1.2,1.3-2,1.8c-0.7,0.6-1.5,1.1-2.4,1.6l4.8,5.2c0.4-0.9,0.7-2,0.9-3s0.3-2.1,0.4-3.2h7.4v5.5h-2.8
	c-0.5,1.9-1.2,3.5-2,4.9l6.2,6.7h-8L515.5,213.9z M507.9,189.9c-0.8,0-1.5,0.2-2,0.7c-0.5,0.4-0.8,1.1-0.8,1.9v0.2
	c0,0.6,0.2,1.2,0.6,1.8c0.4,0.6,1,1.4,2,2.4c1-0.6,1.8-1.2,2.4-1.9c0.5-0.7,0.8-1.4,0.8-2.3v-0.2c0-0.8-0.3-1.4-0.8-1.9
	C509.4,190.1,508.7,189.9,507.9,189.9z M507.5,211.5c1.7,0,3.2-0.4,4.5-1.2l-6.5-7.1c-1,0.6-1.7,1.2-2.1,1.8
	c-0.4,0.6-0.6,1.3-0.6,2.1v0.4c0,1.1,0.4,2.1,1.2,2.8C504.7,211.1,505.9,211.5,507.5,211.5z M529.1,222.6v-39.9h5.6v39.9H529.1z
	 M458.1,254.1H451l-1.3,7.7h-4.2l1.3-7.7h-4.5v-4h5.2l1.3-7.6h-4.5v-4h5.2l1.3-7.7h4.1l-1.3,7.7h7.1l1.3-7.7h4.2l-1.3,7.7h4.5v4
	h-5.2l-1.3,7.6h4.5v4h-5.2l-1.3,7.7h-4.1L458.1,254.1z M458.7,250.1l1.3-7.6H453l-1.3,7.6H458.7z M472.8,252l-2.1-12.6v-8.6h6.9v8.6
	l-2,12.6H472.8z M474.1,262.4c-1.4,0-2.4-0.3-3.1-1c-0.6-0.7-0.9-1.5-0.9-2.4v-1.1c0-0.9,0.3-1.7,0.9-2.4c0.6-0.7,1.6-1,3.1-1
	s2.4,0.3,3,1c0.6,0.7,0.9,1.5,0.9,2.4v1.1c0,0.9-0.3,1.7-0.9,2.4C476.6,262,475.5,262.4,474.1,262.4z M485.3,262.3
	c-1.3,0-2.3-0.3-3-1c-0.6-0.7-0.9-1.5-0.9-2.6v-0.9c0-1,0.3-1.9,0.9-2.5c0.7-0.7,1.6-1,3-1c1.3,0,2.3,0.3,2.9,1c0.7,0.7,1,1.5,1,2.5
	v0.9c0,1-0.3,1.9-1,2.6C487.6,262,486.6,262.3,485.3,262.3z M496.1,262.3c-1.3,0-2.3-0.3-3-1c-0.6-0.7-0.9-1.5-0.9-2.6v-0.9
	c0-1,0.3-1.9,0.9-2.5c0.7-0.7,1.6-1,3-1s2.3,0.3,2.9,1c0.7,0.7,1,1.5,1,2.5v0.9c0,1-0.3,1.9-1,2.6
	C498.4,262,497.5,262.3,496.1,262.3z M507,262.3c-1.3,0-2.3-0.3-3-1c-0.6-0.7-0.9-1.5-0.9-2.6v-0.9c0-1,0.3-1.9,0.9-2.5
	c0.7-0.7,1.6-1,3-1s2.3,0.3,2.9,1c0.7,0.7,1,1.5,1,2.5v0.9c0,1-0.3,1.9-1,2.6C509.3,262,508.3,262.3,507,262.3z M517.9,262.3
	c-1.3,0-2.3-0.3-3-1c-0.6-0.7-0.9-1.5-0.9-2.6v-0.9c0-1,0.3-1.9,0.9-2.5c0.7-0.7,1.6-1,3-1s2.3,0.3,2.9,1c0.7,0.7,1,1.5,1,2.5v0.9
	c0,1-0.3,1.9-1,2.6C520.2,262,519.2,262.3,517.9,262.3z M528,268V228h5.6V268H528z M406.1,296.9v-6.4h13.2v6.4H406.1z M421.1,296.9
	v-6.4h13.2v6.4H421.1z M436.2,296.9v-6.4h13.2v6.4H436.2z M451.2,296.9v-6.4h13.2v6.4H451.2z M466.2,296.9v-6.4h13.2v6.4H466.2z
	 M481.3,296.9v-6.4h13.2v6.4H481.3z M496.3,296.9v-6.4h13.2v6.4H496.3z M511.4,296.9v-6.4h13.2v6.4H511.4z M530.2,313.3v-39.9h5.6
	v39.9H530.2z M398.5,342.2v-6.4h13.2v6.4H398.5z M413.5,342.2v-6.4h13.2v6.4H413.5z M428.5,342.2v-6.4h13.2v6.4H428.5z M443.6,342.2
	v-6.4h13.2v6.4H443.6z M458.6,342.2v-6.4h13.2v6.4H458.6z M473.7,342.2v-6.4h13.2v6.4H473.7z M488.7,342.2v-6.4h13.2v6.4H488.7z
	 M503.8,342.2v-6.4H517v6.4H503.8z M518.8,342.2v-6.4H532v6.4H518.8z M533.8,342.2v-6.4H547v6.4H533.8z M561.4,359.3l-13.2-39.6h5.4
	l13.2,39.6H561.4z M565.4,361v-5.5h22.1v5.5H565.4z M587.2,361v-5.5h22.1v5.5H587.2z M609,361v-5.5h22.1v5.5H609z M547.7,398.5
	c-1.3,0-2.3-0.3-3-1c-0.6-0.7-0.9-1.5-0.9-2.6V394c0-1,0.3-1.9,0.9-2.5c0.7-0.7,1.6-1,3-1c1.3,0,2.3,0.3,2.9,1c0.7,0.7,1,1.5,1,2.5
	v0.9c0,1-0.3,1.9-1,2.6C550,398.2,549.1,398.5,547.7,398.5z M558.6,398.5c-1.3,0-2.3-0.3-3-1c-0.6-0.7-0.9-1.5-0.9-2.6V394
	c0-1,0.3-1.9,0.9-2.5c0.7-0.7,1.6-1,3-1c1.3,0,2.3,0.3,2.9,1c0.7,0.7,1,1.5,1,2.5v0.9c0,1-0.3,1.9-1,2.6
	C560.9,398.2,559.9,398.5,558.6,398.5z M569.5,398.5c-1.3,0-2.3-0.3-3-1c-0.6-0.7-0.9-1.5-0.9-2.6V394c0-1,0.3-1.9,0.9-2.5
	c0.7-0.7,1.6-1,3-1c1.3,0,2.3,0.3,2.9,1c0.7,0.7,1,1.5,1,2.5v0.9c0,1-0.3,1.9-1,2.6C571.8,398.2,570.8,398.5,569.5,398.5z
	 M580.3,398.5c-1.3,0-2.3-0.3-3-1c-0.6-0.7-0.9-1.5-0.9-2.6V394c0-1,0.3-1.9,0.9-2.5c0.7-0.7,1.6-1,3-1s2.3,0.3,2.9,1
	c0.7,0.7,1,1.5,1,2.5v0.9c0,1-0.3,1.9-1,2.6C582.7,398.2,581.7,398.5,580.3,398.5z M591.2,398.5c-1.3,0-2.3-0.3-3-1
	c-0.6-0.7-0.9-1.5-0.9-2.6V394c0-1,0.3-1.9,0.9-2.5c0.7-0.7,1.6-1,3-1s2.3,0.3,2.9,1c0.7,0.7,1,1.5,1,2.5v0.9c0,1-0.3,1.9-1,2.6
	C593.5,398.2,592.6,398.5,591.2,398.5z M602.1,398.5c-1.3,0-2.3-0.3-3-1c-0.6-0.7-0.9-1.5-0.9-2.6V394c0-1,0.3-1.9,0.9-2.5
	c0.7-0.7,1.6-1,3-1s2.3,0.3,2.9,1c0.7,0.7,1,1.5,1,2.5v0.9c0,1-0.3,1.9-1,2.6C604.4,398.2,603.4,398.5,602.1,398.5z M613,398.5
	c-1.3,0-2.3-0.3-3-1c-0.6-0.7-0.9-1.5-0.9-2.6V394c0-1,0.3-1.9,0.9-2.5c0.7-0.7,1.6-1,3-1s2.3,0.3,2.9,1c0.7,0.7,1,1.5,1,2.5v0.9
	c0,1-0.3,1.9-1,2.6C615.3,398.2,614.3,398.5,613,398.5z M623.8,398.5c-1.3,0-2.3-0.3-3-1c-0.6-0.7-0.9-1.5-0.9-2.6V394
	c0-1,0.3-1.9,0.9-2.5c0.7-0.7,1.6-1,3-1s2.3,0.3,2.9,1c0.7,0.7,1,1.5,1,2.5v0.9c0,1-0.3,1.9-1,2.6
	C626.2,398.2,625.2,398.5,623.8,398.5z M642.7,404.7l-13.2-39.6h5.4l13.2,39.6H642.7z M638.7,440.8c-1,0.8-2.2,1.5-3.6,2.1
	s-3.2,0.9-5.3,0.9c-1.7,0-3.2-0.2-4.5-0.6c-1.3-0.4-2.4-1.1-3.3-1.8c-0.9-0.8-1.6-1.7-2-2.8c-0.4-1.1-0.7-2.2-0.7-3.5
	c0-1.1,0.1-2,0.4-2.8c0.3-0.8,0.8-1.6,1.3-2.3c0.6-0.7,1.2-1.3,2-1.9c0.8-0.6,1.6-1.1,2.5-1.6c-0.4-0.5-0.9-1-1.3-1.6
	c-0.4-0.6-0.8-1.2-1.1-1.8c-0.3-0.6-0.6-1.3-0.8-2c-0.2-0.7-0.3-1.4-0.3-2.1c0-1,0.2-2,0.6-2.8c0.4-0.9,1.1-1.7,1.9-2.4
	c0.8-0.7,1.8-1.2,2.9-1.6c1.2-0.4,2.4-0.6,3.9-0.6c1.3,0,2.4,0.2,3.5,0.5c1.1,0.3,2,0.8,2.8,1.4c0.8,0.6,1.4,1.3,1.9,2.2
	c0.5,0.9,0.7,1.9,0.7,3c0,1-0.2,1.9-0.5,2.7c-0.3,0.8-0.8,1.5-1.3,2.2c-0.6,0.7-1.2,1.3-2,1.8c-0.7,0.6-1.5,1.1-2.4,1.6l4.8,5.2
	c0.4-0.9,0.7-2,0.9-3c0.2-1.1,0.3-2.1,0.4-3.2h7.4v5.5h-2.8c-0.5,1.9-1.2,3.5-2,4.9l6.2,6.7h-8L638.7,440.8z M631.1,416.8
	c-0.8,0-1.5,0.2-2,0.7c-0.5,0.4-0.8,1.1-0.8,1.9v0.2c0,0.6,0.2,1.2,0.6,1.8c0.4,0.6,1,1.4,2,2.4c1-0.6,1.8-1.2,2.4-1.9
	c0.5-0.7,0.8-1.4,0.8-2.3v-0.2c0-0.8-0.3-1.4-0.8-1.9C632.6,417.1,631.9,416.8,631.1,416.8z M630.7,438.4c1.7,0,3.2-0.4,4.5-1.2
	l-6.5-7.1c-1,0.6-1.7,1.2-2.1,1.8s-0.6,1.3-0.6,2.1v0.4c0,1.1,0.4,2.1,1.2,2.8C627.9,438.1,629.1,438.4,630.7,438.4z M661,450.1
	l-13.2-39.6h5.4l13.2,39.6H661z M653.3,479l-2.1-12.6v-8.6h6.9v8.6l-2,12.6H653.3z M654.6,489.3c-1.4,0-2.4-0.3-3.1-1
	c-0.6-0.7-0.9-1.5-0.9-2.4v-1.1c0-0.9,0.3-1.7,0.9-2.4c0.6-0.7,1.6-1,3.1-1c1.4,0,2.4,0.3,3,1c0.6,0.7,0.9,1.5,0.9,2.4v1.1
	c0,0.9-0.3,1.7-0.9,2.4C657,489,656,489.3,654.6,489.3z M681.3,495.5L668,455.9h5.4l13.2,39.6H681.3z M700.4,540.9l-13.2-39.6h5.4
	l13.2,39.6H700.4z M706.9,585.7v-39.9h5.6v39.9H706.9z M730.9,631.6L717.6,592h5.4l13.2,39.6H730.9z"/>
<image style="display:none;overflow:visible;" width="800" height="797" xlink:href="hovard2.png"  transform="matrix(1 0 0 1 -0.1932 0)">
</image>
</svg>
