<?xml version="1.0" encoding="utf-8"?>
<!-- Generator: Adobe Illustrator 23.0.3, SVG Export Plug-In . SVG Version: 6.00 Build 0)  -->
<svg version="1.1" id="Слой_1" xmlns="http://www.w3.org/2000/svg" xmlns:xlink="http://www.w3.org/1999/xlink" x="0px" y="0px"
	 viewBox="0 0 1440 900" style="enable-background:new 0 0 1440 900;" xml:space="preserve">
<style type="text/css">
	.st0{fill:none;}
	.st1{fill:#1E1E1E;}
</style>
<path d="M777.8,666.6c-6.8-2.8-12.7-6.8-17.5-12.2c-4.8-5.5-8.5-12.3-11.2-20.3c-2.6-8.2-4-17.6-4-28.3c0-10,1.1-18.8,3.4-26.5
	c2.3-7.7,5.5-14.2,9.7-19.6l-11-16.2l16.6-10.6l9.5,14c7.9-4.1,16.9-6.1,27-6.1c8.3,0,15.8,1.4,22.7,4.1c6.8,2.8,12.7,6.9,17.5,12.4
	c4.8,5.4,8.5,12.2,11.2,20.3c2.6,8,4,17.4,4,28.1c0,10-1.1,18.8-3.4,26.5c-2.3,7.7-5.5,14.2-9.7,19.6l11,16.2L837,678.7l-9.5-14
	c-7.9,4.1-16.9,6.1-27,6.1C792.2,670.7,784.6,669.4,777.8,666.6z M828,595.9c0-10.6-2.4-18.7-7.2-24.3c-4.9-5.6-11.7-8.5-20.3-8.5
	c-5.9,0-10.8,1.3-14.8,3.8l40.1,63.7c1.4-4.3,2.2-9.3,2.2-14.9V595.9z M772.9,615.7c0,10.6,2.5,18.7,7.4,24.3
	c4.8,5.6,11.5,8.5,20.2,8.5c5.9,0,10.8-1.3,14.8-3.8l-40.1-63.7c-1.4,4.3-2.2,9.3-2.2,14.9V615.7z M651.1,666.6
	c-6.8-2.8-12.7-6.8-17.5-12.2c-4.8-5.5-8.5-12.3-11.2-20.3c-2.6-8.2-4-17.6-4-28.3c0-10,1.1-18.8,3.4-26.5
	c2.3-7.7,5.5-14.2,9.7-19.6l-11-16.2l16.6-10.6l9.5,14c7.9-4.1,16.9-6.1,27-6.1c8.3,0,15.8,1.4,22.7,4.1c6.8,2.8,12.7,6.9,17.5,12.4
	c4.8,5.4,8.5,12.2,11.2,20.3c2.6,8,4,17.4,4,28.1c0,10-1.1,18.8-3.4,26.5c-2.3,7.7-5.5,14.2-9.7,19.6l11,16.2l-16.6,10.6l-9.5-14
	c-7.9,4.1-16.9,6.1-27,6.1C665.5,670.7,657.9,669.4,651.1,666.6z M701.3,595.9c0-10.6-2.4-18.7-7.2-24.3c-4.9-5.6-11.7-8.5-20.3-8.5
	c-5.9,0-10.8,1.3-14.8,3.8l40.1,63.7c1.4-4.3,2.2-9.3,2.2-14.9V595.9z M646.2,615.7c0,10.6,2.5,18.7,7.4,24.3
	c4.8,5.6,11.5,8.5,20.2,8.5c5.9,0,10.8-1.3,14.8-3.8l-40.1-63.7c-1.4,4.3-2.2,9.3-2.2,14.9V615.7z M524.4,666.6
	c-6.8-2.8-12.7-6.8-17.5-12.2c-4.8-5.5-8.5-12.3-11.2-20.3c-2.6-8.2-4-17.6-4-28.3c0-10,1.1-18.8,3.4-26.5
	c2.3-7.7,5.5-14.2,9.7-19.6l-11-16.2l16.6-10.6l9.5,14c7.9-4.1,16.9-6.1,27-6.1c8.3,0,15.8,1.4,22.7,4.1s12.7,6.9,17.5,12.4
	c4.8,5.4,8.5,12.2,11.2,20.3c2.6,8,4,17.4,4,28.1c0,10-1.1,18.8-3.4,26.5c-2.3,7.7-5.5,14.2-9.7,19.6l11,16.2l-16.6,10.6l-9.5-14
	c-7.9,4.1-16.9,6.1-27,6.1C538.8,670.7,531.2,669.4,524.4,666.6z M574.6,595.9c0-10.6-2.4-18.7-7.2-24.3c-4.9-5.6-11.7-8.5-20.3-8.5
	c-5.9,0-10.8,1.3-14.8,3.8l40.1,63.7c1.4-4.3,2.2-9.3,2.2-14.9V595.9z M519.5,615.7c0,10.6,2.5,18.7,7.4,24.3
	c4.8,5.6,11.5,8.5,20.2,8.5c5.9,0,10.8-1.3,14.8-3.8l-40.1-63.7c-1.4,4.3-2.2,9.3-2.2,14.9V615.7z M397.7,666.6
	c-6.8-2.8-12.7-6.8-17.5-12.2c-4.8-5.5-8.5-12.3-11.2-20.3c-2.6-8.2-4-17.6-4-28.3c0-10,1.1-18.8,3.4-26.5
	c2.3-7.7,5.5-14.2,9.7-19.6l-11-16.2l16.6-10.6l9.5,14c7.9-4.1,16.9-6.1,27-6.1c8.3,0,15.8,1.4,22.7,4.1s12.7,6.9,17.5,12.4
	c4.8,5.4,8.5,12.2,11.2,20.3c2.6,8,4,17.4,4,28.1c0,10-1.1,18.8-3.4,26.5s-5.5,14.2-9.7,19.6l11,16.2l-16.6,10.6l-9.5-14
	c-7.9,4.1-16.9,6.1-27,6.1C412.1,670.7,404.5,669.4,397.7,666.6z M447.9,595.9c0-10.6-2.4-18.7-7.2-24.3c-4.9-5.6-11.7-8.5-20.3-8.5
	c-5.9,0-10.8,1.3-14.8,3.8l40.1,63.7c1.4-4.3,2.2-9.3,2.2-14.9V595.9z M392.8,615.7c0,10.6,2.5,18.7,7.4,24.3
	c4.8,5.6,11.5,8.5,20.2,8.5c5.9,0,10.8-1.3,14.8-3.8L395,580.9c-1.4,4.3-2.2,9.3-2.2,14.9V615.7z M271,666.6
	c-6.8-2.8-12.7-6.8-17.5-12.2c-4.8-5.5-8.5-12.3-11.2-20.3c-2.6-8.2-4-17.6-4-28.3c0-10,1.1-18.8,3.4-26.5
	c2.3-7.7,5.5-14.2,9.7-19.6l-11-16.2l16.6-10.6l9.5,14c7.9-4.1,16.9-6.1,27-6.1c8.3,0,15.8,1.4,22.7,4.1c6.8,2.8,12.7,6.9,17.5,12.4
	c4.8,5.4,8.5,12.2,11.2,20.3c2.6,8,4,17.4,4,28.1c0,10-1.1,18.8-3.4,26.5s-5.5,14.2-9.7,19.6l11,16.2l-16.6,10.6l-9.5-14
	c-7.9,4.1-16.9,6.1-27,6.1C285.4,670.7,277.8,669.4,271,666.6z M321.2,595.9c0-10.6-2.4-18.7-7.2-24.3c-4.9-5.6-11.7-8.5-20.3-8.5
	c-5.9,0-10.8,1.3-14.8,3.8l40.1,63.7c1.4-4.3,2.2-9.3,2.2-14.9V595.9z M266.1,615.7c0,10.6,2.5,18.7,7.4,24.3
	c4.8,5.6,11.5,8.5,20.2,8.5c5.9,0,10.8-1.3,14.8-3.8l-40.1-63.7c-1.4,4.3-2.2,9.3-2.2,14.9V615.7z M144.3,666.6
	c-6.8-2.8-12.7-6.8-17.5-12.2c-4.8-5.5-8.5-12.3-11.2-20.3c-2.6-8.2-4-17.6-4-28.3c0-10,1.1-18.8,3.4-26.5
	c2.3-7.7,5.5-14.2,9.7-19.6l-11-16.2l16.6-10.6l9.5,14c7.9-4.1,16.9-6.1,27-6.1c8.3,0,15.8,1.4,22.7,4.1s12.7,6.9,17.5,12.4
	c4.8,5.4,8.5,12.2,11.2,20.3c2.6,8,4,17.4,4,28.1c0,10-1.1,18.8-3.4,26.5c-2.3,7.7-5.5,14.2-9.7,19.6l11,16.2l-16.6,10.6l-9.5-14
	c-7.9,4.1-16.9,6.1-27,6.1C158.7,670.7,151.1,669.4,144.3,666.6z M194.5,595.9c0-10.6-2.4-18.7-7.2-24.3c-4.9-5.6-11.7-8.5-20.3-8.5
	c-5.9,0-10.8,1.3-14.8,3.8l40.1,63.7c1.4-4.3,2.2-9.3,2.2-14.9V595.9z M139.4,615.7c0,10.6,2.5,18.7,7.4,24.3
	c4.8,5.6,11.5,8.5,20.2,8.5c5.9,0,10.8-1.3,14.8-3.8l-40.1-63.7c-1.4,4.3-2.2,9.3-2.2,14.9V615.7z M17.6,666.6
	c-6.8-2.8-12.7-6.8-17.5-12.2c-4.8-5.5-8.5-12.3-11.2-20.3c-2.6-8.2-4-17.6-4-28.3c0-10,1.1-18.8,3.4-26.5
	c2.3-7.7,5.5-14.2,9.7-19.6l-11-16.2l16.6-10.6l9.5,14c7.9-4.1,16.9-6.1,27-6.1c8.3,0,15.8,1.4,22.7,4.1c6.8,2.8,12.7,6.9,17.5,12.4
	c4.8,5.4,8.5,12.2,11.2,20.3c2.6,8,4,17.4,4,28.1c0,10-1.1,18.8-3.4,26.5c-2.3,7.7-5.5,14.2-9.7,19.6l11,16.2l-16.6,10.6l-9.5-14
	c-7.9,4.1-16.9,6.1-27,6.1C32,670.7,24.4,669.4,17.6,666.6z M67.8,595.9c0-10.6-2.4-18.7-7.2-24.3c-4.9-5.6-11.7-8.5-20.3-8.5
	c-5.9,0-10.8,1.3-14.8,3.8l40.1,63.7c1.4-4.3,2.2-9.3,2.2-14.9V595.9z M12.7,615.7c0,10.6,2.5,18.7,7.4,24.3
	c4.8,5.6,11.5,8.5,20.2,8.5c5.9,0,10.8-1.3,14.8-3.8l-40.1-63.7c-1.4,4.3-2.2,9.3-2.2,14.9V615.7z M777.8,829.6
	c-6.8-2.8-12.7-6.8-17.5-12.2c-4.8-5.5-8.5-12.3-11.2-20.3c-2.6-8.2-4-17.6-4-28.3c0-10,1.1-18.8,3.4-26.5
	c2.3-7.7,5.5-14.2,9.7-19.6l-11-16.2l16.6-10.6l9.5,14c7.9-4.1,16.9-6.1,27-6.1c8.3,0,15.8,1.4,22.7,4.1c6.8,2.8,12.7,6.9,17.5,12.4
	c4.8,5.4,8.5,12.2,11.2,20.3c2.6,8,4,17.4,4,28.1c0,10-1.1,18.8-3.4,26.5c-2.3,7.7-5.5,14.2-9.7,19.6l11,16.2L837,841.7l-9.5-14
	c-7.9,4.1-16.9,6.1-27,6.1C792.2,833.7,784.6,832.4,777.8,829.6z M828,758.9c0-10.6-2.4-18.7-7.2-24.3c-4.9-5.6-11.7-8.5-20.3-8.5
	c-5.9,0-10.8,1.3-14.8,3.8l40.1,63.7c1.4-4.3,2.2-9.3,2.2-14.9V758.9z M772.9,778.7c0,10.6,2.5,18.7,7.4,24.3
	c4.8,5.6,11.5,8.5,20.2,8.5c5.9,0,10.8-1.3,14.8-3.8l-40.1-63.7c-1.4,4.3-2.2,9.3-2.2,14.9V778.7z M651.1,829.6
	c-6.8-2.8-12.7-6.8-17.5-12.2c-4.8-5.5-8.5-12.3-11.2-20.3c-2.6-8.2-4-17.6-4-28.3c0-10,1.1-18.8,3.4-26.5
	c2.3-7.7,5.5-14.2,9.7-19.6l-11-16.2l16.6-10.6l9.5,14c7.9-4.1,16.9-6.1,27-6.1c8.3,0,15.8,1.4,22.7,4.1c6.8,2.8,12.7,6.9,17.5,12.4
	c4.8,5.4,8.5,12.2,11.2,20.3c2.6,8,4,17.4,4,28.1c0,10-1.1,18.8-3.4,26.5c-2.3,7.7-5.5,14.2-9.7,19.6l11,16.2l-16.6,10.6l-9.5-14
	c-7.9,4.1-16.9,6.1-27,6.1C665.5,833.7,657.9,832.4,651.1,829.6z M701.3,758.9c0-10.6-2.4-18.7-7.2-24.3c-4.9-5.6-11.7-8.5-20.3-8.5
	c-5.9,0-10.8,1.3-14.8,3.8l40.1,63.7c1.4-4.3,2.2-9.3,2.2-14.9V758.9z M646.2,778.7c0,10.6,2.5,18.7,7.4,24.3
	c4.8,5.6,11.5,8.5,20.2,8.5c5.9,0,10.8-1.3,14.8-3.8l-40.1-63.7c-1.4,4.3-2.2,9.3-2.2,14.9V778.7z M524.4,829.6
	c-6.8-2.8-12.7-6.8-17.5-12.2c-4.8-5.5-8.5-12.3-11.2-20.3c-2.6-8.2-4-17.6-4-28.3c0-10,1.1-18.8,3.4-26.5
	c2.3-7.7,5.5-14.2,9.7-19.6l-11-16.2l16.6-10.6l9.5,14c7.9-4.1,16.9-6.1,27-6.1c8.3,0,15.8,1.4,22.7,4.1c6.8,2.8,12.7,6.9,17.5,12.4
	c4.8,5.4,8.5,12.2,11.2,20.3c2.6,8,4,17.4,4,28.1c0,10-1.1,18.8-3.4,26.5c-2.3,7.7-5.5,14.2-9.7,19.6l11,16.2l-16.6,10.6l-9.5-14
	c-7.9,4.1-16.9,6.1-27,6.1C538.8,833.7,531.2,832.4,524.4,829.6z M574.6,758.9c0-10.6-2.4-18.7-7.2-24.3c-4.9-5.6-11.7-8.5-20.3-8.5
	c-5.9,0-10.8,1.3-14.8,3.8l40.1,63.7c1.4-4.3,2.2-9.3,2.2-14.9V758.9z M519.5,778.7c0,10.6,2.5,18.7,7.4,24.3
	c4.8,5.6,11.5,8.5,20.2,8.5c5.9,0,10.8-1.3,14.8-3.8l-40.1-63.7c-1.4,4.3-2.2,9.3-2.2,14.9V778.7z M397.7,829.6
	c-6.8-2.8-12.7-6.8-17.5-12.2c-4.8-5.5-8.5-12.3-11.2-20.3c-2.6-8.2-4-17.6-4-28.3c0-10,1.1-18.8,3.4-26.5
	c2.3-7.7,5.5-14.2,9.7-19.6l-11-16.2l16.6-10.6l9.5,14c7.9-4.1,16.9-6.1,27-6.1c8.3,0,15.8,1.4,22.7,4.1c6.8,2.8,12.7,6.9,17.5,12.4
	c4.8,5.4,8.5,12.2,11.2,20.3c2.6,8,4,17.4,4,28.1c0,10-1.1,18.8-3.4,26.5s-5.5,14.2-9.7,19.6l11,16.2l-16.6,10.6l-9.5-14
	c-7.9,4.1-16.9,6.1-27,6.1C412.1,833.7,404.5,832.4,397.7,829.6z M447.9,758.9c0-10.6-2.4-18.7-7.2-24.3c-4.9-5.6-11.7-8.5-20.3-8.5
	c-5.9,0-10.8,1.3-14.8,3.8l40.1,63.7c1.4-4.3,2.2-9.3,2.2-14.9V758.9z M392.8,778.7c0,10.6,2.5,18.7,7.4,24.3
	c4.8,5.6,11.5,8.5,20.2,8.5c5.9,0,10.8-1.3,14.8-3.8L395,743.9c-1.4,4.3-2.2,9.3-2.2,14.9V778.7z M271,829.6
	c-6.8-2.8-12.7-6.8-17.5-12.2c-4.8-5.5-8.5-12.3-11.2-20.3c-2.6-8.2-4-17.6-4-28.3c0-10,1.1-18.8,3.4-26.5
	c2.3-7.7,5.5-14.2,9.7-19.6l-11-16.2l16.6-10.6l9.5,14c7.9-4.1,16.9-6.1,27-6.1c8.3,0,15.8,1.4,22.7,4.1c6.8,2.8,12.7,6.9,17.5,12.4
	c4.8,5.4,8.5,12.2,11.2,20.3c2.6,8,4,17.4,4,28.1c0,10-1.1,18.8-3.4,26.5s-5.5,14.2-9.7,19.6l11,16.2l-16.6,10.6l-9.5-14
	c-7.9,4.1-16.9,6.1-27,6.1C285.4,833.7,277.8,832.4,271,829.6z M321.2,758.9c0-10.6-2.4-18.7-7.2-24.3c-4.9-5.6-11.7-8.5-20.3-8.5
	c-5.9,0-10.8,1.3-14.8,3.8l40.1,63.7c1.4-4.3,2.2-9.3,2.2-14.9V758.9z M266.1,778.7c0,10.6,2.5,18.7,7.4,24.3
	c4.8,5.6,11.5,8.5,20.2,8.5c5.9,0,10.8-1.3,14.8-3.8l-40.1-63.7c-1.4,4.3-2.2,9.3-2.2,14.9V778.7z M144.3,829.6
	c-6.8-2.8-12.7-6.8-17.5-12.2c-4.8-5.5-8.5-12.3-11.2-20.3c-2.6-8.2-4-17.6-4-28.3c0-10,1.1-18.8,3.4-26.5
	c2.3-7.7,5.5-14.2,9.7-19.6l-11-16.2l16.6-10.6l9.5,14c7.9-4.1,16.9-6.1,27-6.1c8.3,0,15.8,1.4,22.7,4.1c6.8,2.8,12.7,6.9,17.5,12.4
	c4.8,5.4,8.5,12.2,11.2,20.3c2.6,8,4,17.4,4,28.1c0,10-1.1,18.8-3.4,26.5c-2.3,7.7-5.5,14.2-9.7,19.6l11,16.2l-16.6,10.6l-9.5-14
	c-7.9,4.1-16.9,6.1-27,6.1C158.7,833.7,151.1,832.4,144.3,829.6z M194.5,758.9c0-10.6-2.4-18.7-7.2-24.3c-4.9-5.6-11.7-8.5-20.3-8.5
	c-5.9,0-10.8,1.3-14.8,3.8l40.1,63.7c1.4-4.3,2.2-9.3,2.2-14.9V758.9z M139.4,778.7c0,10.6,2.5,18.7,7.4,24.3
	c4.8,5.6,11.5,8.5,20.2,8.5c5.9,0,10.8-1.3,14.8-3.8l-40.1-63.7c-1.4,4.3-2.2,9.3-2.2,14.9V778.7z M17.6,829.6
	c-6.8-2.8-12.7-6.8-17.5-12.2c-4.8-5.5-8.5-12.3-11.2-20.3c-2.6-8.2-4-17.6-4-28.3c0-10,1.1-18.8,3.4-26.5
	c2.3-7.7,5.5-14.2,9.7-19.6l-11-16.2l16.6-10.6l9.5,14c7.9-4.1,16.9-6.1,27-6.1c8.3,0,15.8,1.4,22.7,4.1c6.8,2.8,12.7,6.9,17.5,12.4
	c4.8,5.4,8.5,12.2,11.2,20.3c2.6,8,4,17.4,4,28.1c0,10-1.1,18.8-3.4,26.5c-2.3,7.7-5.5,14.2-9.7,19.6l11,16.2l-16.6,10.6l-9.5-14
	c-7.9,4.1-16.9,6.1-27,6.1C32,833.7,24.4,832.4,17.6,829.6z M67.8,758.9c0-10.6-2.4-18.7-7.2-24.3c-4.9-5.6-11.7-8.5-20.3-8.5
	c-5.9,0-10.8,1.3-14.8,3.8l40.1,63.7c1.4-4.3,2.2-9.3,2.2-14.9V758.9z M12.7,778.7c0,10.6,2.5,18.7,7.4,24.3
	c4.8,5.6,11.5,8.5,20.2,8.5c5.9,0,10.8-1.3,14.8-3.8l-40.1-63.7c-1.4,4.3-2.2,9.3-2.2,14.9V778.7z"/>
<path d="M546.3,190.7c-10.1,0-19.1-2-27-6.1l-9.5,14L493.2,188l11-16.2c-4.2-5.4-7.4-11.9-9.7-19.6c-2.3-7.7-3.4-16.5-3.4-26.5
	c0-10.7,1.3-20,4-28.1c2.6-8.2,6.4-14.9,11.2-20.3c4.8-5.5,10.6-9.7,17.5-12.4c6.8-2.8,14.4-4.1,22.7-4.1c10.1,0,19.1,2,27,6.1
	l9.5-14l16.6,10.6l-11,16.2c4.2,5.4,7.4,11.9,9.7,19.6c2.3,7.7,3.4,16.5,3.4,26.5c0,10.7-1.3,20.1-4,28.3c-2.6,8-6.4,14.8-11.2,20.3
	c-4.8,5.4-10.6,9.5-17.5,12.2C562.1,189.4,554.5,190.7,546.3,190.7z M518.7,135.7c0,5.6,0.7,10.6,2.2,14.9L561,86.9
	c-4-2.5-8.9-3.8-14.8-3.8c-8.6,0-15.4,2.8-20.3,8.5c-4.8,5.6-7.2,13.7-7.2,24.3V135.7z M573.8,115.9c0-5.6-0.7-10.6-2.2-14.9
	l-40.1,63.7c4,2.5,8.9,3.8,14.8,3.8c8.6,0,15.4-2.8,20.2-8.5c4.9-5.6,7.4-13.7,7.4-24.3V115.9z M673,190.7c-10.1,0-19.1-2-27-6.1
	l-9.5,14L619.9,188l11-16.2c-4.2-5.4-7.4-11.9-9.7-19.6c-2.3-7.7-3.4-16.5-3.4-26.5c0-10.7,1.3-20,4-28.1
	c2.6-8.2,6.4-14.9,11.2-20.3c4.8-5.5,10.6-9.7,17.5-12.4c6.8-2.8,14.4-4.1,22.7-4.1c10.1,0,19.1,2,27,6.1l9.5-14l16.6,10.6l-11,16.2
	c4.2,5.4,7.4,11.9,9.7,19.6c2.3,7.7,3.4,16.5,3.4,26.5c0,10.7-1.3,20.1-4,28.3c-2.6,8-6.4,14.8-11.2,20.3
	c-4.8,5.4-10.6,9.5-17.5,12.2C688.8,189.4,681.2,190.7,673,190.7z M645.4,135.7c0,5.6,0.7,10.6,2.2,14.9l40.1-63.7
	c-4-2.5-8.9-3.8-14.8-3.8c-8.6,0-15.4,2.8-20.3,8.5c-4.8,5.6-7.2,13.7-7.2,24.3V135.7z M700.5,115.9c0-5.6-0.7-10.6-2.2-14.9
	l-40.1,63.7c4,2.5,8.9,3.8,14.8,3.8c8.6,0,15.4-2.8,20.2-8.5c4.9-5.6,7.4-13.7,7.4-24.3V115.9z M799.7,190.7c-10.1,0-19.1-2-27-6.1
	l-9.5,14L746.6,188l11-16.2c-4.2-5.4-7.4-11.9-9.7-19.6c-2.3-7.7-3.4-16.5-3.4-26.5c0-10.7,1.3-20,4-28.1
	c2.6-8.2,6.4-14.9,11.2-20.3c4.8-5.5,10.6-9.7,17.5-12.4c6.8-2.8,14.4-4.1,22.7-4.1c10.1,0,19.1,2,27,6.1l9.5-14l16.6,10.6l-11,16.2
	c4.2,5.4,7.4,11.9,9.7,19.6c2.3,7.7,3.4,16.5,3.4,26.5c0,10.7-1.3,20.1-4,28.3c-2.6,8-6.4,14.8-11.2,20.3
	c-4.8,5.4-10.6,9.5-17.5,12.2C815.5,189.4,807.9,190.7,799.7,190.7z M772.1,135.7c0,5.6,0.7,10.6,2.2,14.9l40.1-63.7
	c-4-2.5-8.9-3.8-14.8-3.8c-8.6,0-15.4,2.8-20.3,8.5c-4.8,5.6-7.2,13.7-7.2,24.3V135.7z M827.2,115.9c0-5.6-0.7-10.6-2.2-14.9
	l-40.1,63.7c4,2.5,8.9,3.8,14.8,3.8c8.6,0,15.4-2.8,20.2-8.5c4.9-5.6,7.4-13.7,7.4-24.3V115.9z M926.3,190.7c-10.1,0-19.1-2-27-6.1
	l-9.5,14L873.2,188l11-16.2c-4.2-5.4-7.4-11.9-9.7-19.6c-2.3-7.7-3.4-16.5-3.4-26.5c0-10.7,1.3-20,4-28.1
	c2.6-8.2,6.4-14.9,11.2-20.3c4.8-5.5,10.6-9.7,17.5-12.4c6.8-2.8,14.4-4.1,22.7-4.1c10.1,0,19.1,2,27,6.1l9.5-14l16.6,10.6l-11,16.2
	c4.2,5.4,7.4,11.9,9.7,19.6c2.3,7.7,3.4,16.5,3.4,26.5c0,10.7-1.3,20.1-4,28.3c-2.6,8-6.4,14.8-11.2,20.3
	c-4.8,5.4-10.6,9.5-17.5,12.2C942.2,189.4,934.6,190.7,926.3,190.7z M898.8,135.7c0,5.6,0.7,10.6,2.2,14.9l40.1-63.7
	c-4-2.5-8.9-3.8-14.8-3.8c-8.6,0-15.4,2.8-20.3,8.5c-4.8,5.6-7.2,13.7-7.2,24.3V135.7z M953.9,115.9c0-5.6-0.7-10.6-2.2-14.9
	l-40.1,63.7c4,2.5,8.9,3.8,14.8,3.8c8.6,0,15.4-2.8,20.2-8.5c4.9-5.6,7.4-13.7,7.4-24.3V115.9z M1053,190.7c-10.1,0-19.1-2-27-6.1
	l-9.5,14L999.9,188l11-16.2c-4.2-5.4-7.4-11.9-9.7-19.6c-2.3-7.7-3.4-16.5-3.4-26.5c0-10.7,1.3-20,4-28.1
	c2.6-8.2,6.4-14.9,11.2-20.3c4.8-5.5,10.6-9.7,17.5-12.4c6.8-2.8,14.4-4.1,22.7-4.1c10.1,0,19.1,2,27,6.1l9.5-14l16.6,10.6l-11,16.2
	c4.2,5.4,7.4,11.9,9.7,19.6s3.4,16.5,3.4,26.5c0,10.7-1.3,20.1-4,28.3c-2.6,8-6.4,14.8-11.2,20.3c-4.8,5.4-10.6,9.5-17.5,12.2
	C1068.9,189.4,1061.3,190.7,1053,190.7z M1025.5,135.7c0,5.6,0.7,10.6,2.2,14.9l40.1-63.7c-4-2.5-8.9-3.8-14.8-3.8
	c-8.6,0-15.4,2.8-20.3,8.5c-4.8,5.6-7.2,13.7-7.2,24.3V135.7z M1080.6,115.9c0-5.6-0.7-10.6-2.2-14.9l-40.1,63.7
	c4,2.5,8.9,3.8,14.8,3.8c8.6,0,15.4-2.8,20.2-8.5c4.9-5.6,7.4-13.7,7.4-24.3V115.9z M1179.7,190.7c-10.1,0-19.1-2-27-6.1l-9.5,14
	l-16.6-10.6l11-16.2c-4.2-5.4-7.4-11.9-9.7-19.6c-2.3-7.7-3.4-16.5-3.4-26.5c0-10.7,1.3-20,4-28.1c2.6-8.2,6.4-14.9,11.2-20.3
	c4.8-5.5,10.6-9.7,17.5-12.4c6.8-2.8,14.4-4.1,22.7-4.1c10.1,0,19.1,2,27,6.1l9.5-14l16.6,10.6l-11,16.2c4.2,5.4,7.4,11.9,9.7,19.6
	c2.3,7.7,3.4,16.5,3.4,26.5c0,10.7-1.3,20.1-4,28.3c-2.6,8-6.4,14.8-11.2,20.3c-4.8,5.4-10.6,9.5-17.5,12.2
	C1195.6,189.4,1188,190.7,1179.7,190.7z M1152.2,135.7c0,5.6,0.7,10.6,2.2,14.9l40.1-63.7c-4-2.5-8.9-3.8-14.8-3.8
	c-8.6,0-15.4,2.8-20.3,8.5c-4.8,5.6-7.2,13.7-7.2,24.3V135.7z M1207.3,115.9c0-5.6-0.7-10.6-2.2-14.9l-40.1,63.7
	c4,2.5,8.9,3.8,14.8,3.8c8.6,0,15.4-2.8,20.2-8.5c4.9-5.6,7.4-13.7,7.4-24.3V115.9z M1306.4,190.7c-10.1,0-19.1-2-27-6.1l-9.5,14
	l-16.6-10.6l11-16.2c-4.2-5.4-7.4-11.9-9.7-19.6c-2.3-7.7-3.4-16.5-3.4-26.5c0-10.7,1.3-20,4-28.1c2.6-8.2,6.4-14.9,11.2-20.3
	c4.8-5.5,10.6-9.7,17.5-12.4c6.8-2.8,14.4-4.1,22.7-4.1c10.1,0,19.1,2,27,6.1l9.5-14l16.6,10.6l-11,16.2c4.2,5.4,7.4,11.9,9.7,19.6
	s3.4,16.5,3.4,26.5c0,10.7-1.3,20.1-4,28.3c-2.6,8-6.4,14.8-11.2,20.3c-4.8,5.4-10.6,9.5-17.5,12.2
	C1322.3,189.4,1314.7,190.7,1306.4,190.7z M1278.9,135.7c0,5.6,0.7,10.6,2.2,14.9l40.1-63.7c-4-2.5-8.9-3.8-14.8-3.8
	c-8.6,0-15.4,2.8-20.3,8.5c-4.8,5.6-7.2,13.7-7.2,24.3V135.7z M1334,115.9c0-5.6-0.7-10.6-2.2-14.9l-40.1,63.7
	c4,2.5,8.9,3.8,14.8,3.8c8.6,0,15.4-2.8,20.2-8.5c4.9-5.6,7.4-13.7,7.4-24.3V115.9z M546.3,353.7c-10.1,0-19.1-2-27-6.1l-9.5,14
	L493.2,351l11-16.2c-4.2-5.4-7.4-11.9-9.7-19.6c-2.3-7.7-3.4-16.5-3.4-26.5c0-10.7,1.3-20,4-28.1c2.6-8.2,6.4-14.9,11.2-20.3
	c4.8-5.5,10.6-9.7,17.5-12.4c6.8-2.8,14.4-4.1,22.7-4.1c10.1,0,19.1,2,27,6.1l9.5-14l16.6,10.6l-11,16.2c4.2,5.4,7.4,11.9,9.7,19.6
	c2.3,7.7,3.4,16.5,3.4,26.5c0,10.7-1.3,20.1-4,28.3c-2.6,8-6.4,14.8-11.2,20.3c-4.8,5.4-10.6,9.5-17.5,12.2
	C562.1,352.4,554.5,353.7,546.3,353.7z M518.7,298.7c0,5.6,0.7,10.6,2.2,14.9l40.1-63.7c-4-2.5-8.9-3.8-14.8-3.8
	c-8.6,0-15.4,2.8-20.3,8.5c-4.8,5.6-7.2,13.7-7.2,24.3V298.7z M573.8,278.9c0-5.6-0.7-10.6-2.2-14.9l-40.1,63.7
	c4,2.5,8.9,3.8,14.8,3.8c8.6,0,15.4-2.8,20.2-8.5c4.9-5.6,7.4-13.7,7.4-24.3V278.9z M673,353.7c-10.1,0-19.1-2-27-6.1l-9.5,14
	L619.9,351l11-16.2c-4.2-5.4-7.4-11.9-9.7-19.6c-2.3-7.7-3.4-16.5-3.4-26.5c0-10.7,1.3-20,4-28.1c2.6-8.2,6.4-14.9,11.2-20.3
	c4.8-5.5,10.6-9.7,17.5-12.4c6.8-2.8,14.4-4.1,22.7-4.1c10.1,0,19.1,2,27,6.1l9.5-14l16.6,10.6l-11,16.2c4.2,5.4,7.4,11.9,9.7,19.6
	c2.3,7.7,3.4,16.5,3.4,26.5c0,10.7-1.3,20.1-4,28.3c-2.6,8-6.4,14.8-11.2,20.3c-4.8,5.4-10.6,9.5-17.5,12.2
	C688.8,352.4,681.2,353.7,673,353.7z M645.4,298.7c0,5.6,0.7,10.6,2.2,14.9l40.1-63.7c-4-2.5-8.9-3.8-14.8-3.8
	c-8.6,0-15.4,2.8-20.3,8.5c-4.8,5.6-7.2,13.7-7.2,24.3V298.7z M700.5,278.9c0-5.6-0.7-10.6-2.2-14.9l-40.1,63.7
	c4,2.5,8.9,3.8,14.8,3.8c8.6,0,15.4-2.8,20.2-8.5c4.9-5.6,7.4-13.7,7.4-24.3V278.9z M799.7,353.7c-10.1,0-19.1-2-27-6.1l-9.5,14
	L746.6,351l11-16.2c-4.2-5.4-7.4-11.9-9.7-19.6c-2.3-7.7-3.4-16.5-3.4-26.5c0-10.7,1.3-20,4-28.1c2.6-8.2,6.4-14.9,11.2-20.3
	c4.8-5.5,10.6-9.7,17.5-12.4c6.8-2.8,14.4-4.1,22.7-4.1c10.1,0,19.1,2,27,6.1l9.5-14l16.6,10.6l-11,16.2c4.2,5.4,7.4,11.9,9.7,19.6
	c2.3,7.7,3.4,16.5,3.4,26.5c0,10.7-1.3,20.1-4,28.3c-2.6,8-6.4,14.8-11.2,20.3c-4.8,5.4-10.6,9.5-17.5,12.2
	C815.5,352.4,807.9,353.7,799.7,353.7z M772.1,298.7c0,5.6,0.7,10.6,2.2,14.9l40.1-63.7c-4-2.5-8.9-3.8-14.8-3.8
	c-8.6,0-15.4,2.8-20.3,8.5c-4.8,5.6-7.2,13.7-7.2,24.3V298.7z M827.2,278.9c0-5.6-0.7-10.6-2.2-14.9l-40.1,63.7
	c4,2.5,8.9,3.8,14.8,3.8c8.6,0,15.4-2.8,20.2-8.5c4.9-5.6,7.4-13.7,7.4-24.3V278.9z M926.3,353.7c-10.1,0-19.1-2-27-6.1l-9.5,14
	L873.2,351l11-16.2c-4.2-5.4-7.4-11.9-9.7-19.6c-2.3-7.7-3.4-16.5-3.4-26.5c0-10.7,1.3-20,4-28.1c2.6-8.2,6.4-14.9,11.2-20.3
	c4.8-5.5,10.6-9.7,17.5-12.4c6.8-2.8,14.4-4.1,22.7-4.1c10.1,0,19.1,2,27,6.1l9.5-14l16.6,10.6l-11,16.2c4.2,5.4,7.4,11.9,9.7,19.6
	c2.3,7.7,3.4,16.5,3.4,26.5c0,10.7-1.3,20.1-4,28.3c-2.6,8-6.4,14.8-11.2,20.3c-4.8,5.4-10.6,9.5-17.5,12.2
	C942.2,352.4,934.6,353.7,926.3,353.7z M898.8,298.7c0,5.6,0.7,10.6,2.2,14.9l40.1-63.7c-4-2.5-8.9-3.8-14.8-3.8
	c-8.6,0-15.4,2.8-20.3,8.5c-4.8,5.6-7.2,13.7-7.2,24.3V298.7z M953.9,278.9c0-5.6-0.7-10.6-2.2-14.9l-40.1,63.7
	c4,2.5,8.9,3.8,14.8,3.8c8.6,0,15.4-2.8,20.2-8.5c4.9-5.6,7.4-13.7,7.4-24.3V278.9z M1053,353.7c-10.1,0-19.1-2-27-6.1l-9.5,14
	L999.9,351l11-16.2c-4.2-5.4-7.4-11.9-9.7-19.6c-2.3-7.7-3.4-16.5-3.4-26.5c0-10.7,1.3-20,4-28.1c2.6-8.2,6.4-14.9,11.2-20.3
	c4.8-5.5,10.6-9.7,17.5-12.4c6.8-2.8,14.4-4.1,22.7-4.1c10.1,0,19.1,2,27,6.1l9.5-14l16.6,10.6l-11,16.2c4.2,5.4,7.4,11.9,9.7,19.6
	c2.3,7.7,3.4,16.5,3.4,26.5c0,10.7-1.3,20.1-4,28.3c-2.6,8-6.4,14.8-11.2,20.3c-4.8,5.4-10.6,9.5-17.5,12.2
	C1068.9,352.4,1061.3,353.7,1053,353.7z M1025.5,298.7c0,5.6,0.7,10.6,2.2,14.9l40.1-63.7c-4-2.5-8.9-3.8-14.8-3.8
	c-8.6,0-15.4,2.8-20.3,8.5c-4.8,5.6-7.2,13.7-7.2,24.3V298.7z M1080.6,278.9c0-5.6-0.7-10.6-2.2-14.9l-40.1,63.7
	c4,2.5,8.9,3.8,14.8,3.8c8.6,0,15.4-2.8,20.2-8.5c4.9-5.6,7.4-13.7,7.4-24.3V278.9z M1179.7,353.7c-10.1,0-19.1-2-27-6.1l-9.5,14
	l-16.6-10.6l11-16.2c-4.2-5.4-7.4-11.9-9.7-19.6c-2.3-7.7-3.4-16.5-3.4-26.5c0-10.7,1.3-20,4-28.1c2.6-8.2,6.4-14.9,11.2-20.3
	c4.8-5.5,10.6-9.7,17.5-12.4c6.8-2.8,14.4-4.1,22.7-4.1c10.1,0,19.1,2,27,6.1l9.5-14l16.6,10.6l-11,16.2c4.2,5.4,7.4,11.9,9.7,19.6
	c2.3,7.7,3.4,16.5,3.4,26.5c0,10.7-1.3,20.1-4,28.3c-2.6,8-6.4,14.8-11.2,20.3c-4.8,5.4-10.6,9.5-17.5,12.2
	C1195.6,352.4,1188,353.7,1179.7,353.7z M1152.2,298.7c0,5.6,0.7,10.6,2.2,14.9l40.1-63.7c-4-2.5-8.9-3.8-14.8-3.8
	c-8.6,0-15.4,2.8-20.3,8.5c-4.8,5.6-7.2,13.7-7.2,24.3V298.7z M1207.3,278.9c0-5.6-0.7-10.6-2.2-14.9l-40.1,63.7
	c4,2.5,8.9,3.8,14.8,3.8c8.6,0,15.4-2.8,20.2-8.5c4.9-5.6,7.4-13.7,7.4-24.3V278.9z M1306.4,353.7c-10.1,0-19.1-2-27-6.1l-9.5,14
	l-16.6-10.6l11-16.2c-4.2-5.4-7.4-11.9-9.7-19.6c-2.3-7.7-3.4-16.5-3.4-26.5c0-10.7,1.3-20,4-28.1c2.6-8.2,6.4-14.9,11.2-20.3
	c4.8-5.5,10.6-9.7,17.5-12.4c6.8-2.8,14.4-4.1,22.7-4.1c10.1,0,19.1,2,27,6.1l9.5-14l16.6,10.6l-11,16.2c4.2,5.4,7.4,11.9,9.7,19.6
	c2.3,7.7,3.4,16.5,3.4,26.5c0,10.7-1.3,20.1-4,28.3c-2.6,8-6.4,14.8-11.2,20.3c-4.8,5.4-10.6,9.5-17.5,12.2
	C1322.3,352.4,1314.7,353.7,1306.4,353.7z M1278.9,298.7c0,5.6,0.7,10.6,2.2,14.9l40.1-63.7c-4-2.5-8.9-3.8-14.8-3.8
	c-8.6,0-15.4,2.8-20.3,8.5c-4.8,5.6-7.2,13.7-7.2,24.3V298.7z M1334,278.9c0-5.6-0.7-10.6-2.2-14.9l-40.1,63.7
	c4,2.5,8.9,3.8,14.8,3.8c8.6,0,15.4-2.8,20.2-8.5c4.9-5.6,7.4-13.7,7.4-24.3V278.9z"/>
<rect x="796" y="39.6" class="st0" width="646" height="815"/>
<g>
	<defs>
		<rect id="SVGID_1_" x="796" y="44.8" width="646" height="807.9"/>
	</defs>
	<clipPath id="SVGID_2_">
		<use xlink:href="#SVGID_1_"  style="overflow:visible;"/>
	</clipPath>
	<g style="clip-path:url(#SVGID_2_);">
		
			<image style="overflow:visible;" width="6000" height="3750" xlink:href="20340788889836FE.jpg"  transform="matrix(0.24 0 0 0.24 0 10.5815)">
		</image>
	</g>
</g>
<rect x="976.8" y="808.7" class="st1" width="5.2" height="38.7"/>
</svg>
